<svg width="152" height="32" viewBox="0 0 152 32" fill="none" xmlns="http://www.w3.org/2000/svg">
<g clip-path="url(#clip0)">
<path d="M45.6205 21.5795C45.6205 21.3333 45.7026 21.0051 45.9487 20.759C46.1128 20.5128 46.359 20.3487 46.5231 20.1846C46.7692 20.1026 46.8513 20.0205 46.8513 20.1026C47.3436 20.841 48.0821 21.4974 48.9846 21.9897C49.8872 22.482 50.9538 22.7282 52.0205 22.7282C53.2513 22.7282 54.1539 22.482 54.8103 21.9897C55.4667 21.4974 55.7949 20.841 55.7949 19.9385C55.7949 19.5282 55.7128 19.2 55.5487 18.9538C55.3846 18.6256 55.2205 18.3795 54.9744 18.2154C54.7282 18.0513 54.4 17.8872 53.9897 17.7231C53.4974 17.559 53.1692 17.3949 52.841 17.3949C52.5949 17.3128 52.1026 17.2308 51.4462 17.0667C50.6256 16.9026 49.9692 16.7385 49.3949 16.4923C48.8205 16.2462 48.2462 16 47.6718 15.5897C47.0974 15.1795 46.6872 14.7692 46.359 14.1128C46.0308 13.5385 45.9487 12.8 45.9487 11.8974C45.9487 10.4205 46.5231 9.18974 47.6718 8.28718C48.8205 7.38461 50.3795 6.8923 52.1846 6.8923C53.9897 6.8923 55.4667 7.22051 56.5333 7.87692C57.6 8.53333 58.1744 9.18974 58.1744 9.9282C58.1744 10.2564 58.0923 10.5026 57.8462 10.7487C57.6 10.9949 57.4359 11.159 57.1897 11.3231C56.9436 11.4051 56.8615 11.4872 56.8615 11.4872C56.3692 10.8308 55.7128 10.2564 54.8923 9.7641C54.0718 9.35384 53.1692 9.10769 52.1846 9.10769C51.1179 9.10769 50.2154 9.35384 49.559 9.84615C48.9026 10.3385 48.5744 10.9949 48.5744 11.8154C48.5744 12.2256 48.6564 12.6359 48.8205 12.882C48.9846 13.2103 49.2308 13.4564 49.641 13.6205C50.0513 13.7846 50.4615 13.9487 50.7897 14.0308C51.118 14.1128 51.6923 14.2769 52.3487 14.441C52.5128 14.441 52.5949 14.5231 52.6769 14.5231C53.4974 14.6872 54.2359 14.9333 54.8923 15.1795C55.4667 15.4256 56.1231 15.7538 56.6974 16.082C57.2718 16.4923 57.7641 16.9846 58.0923 17.559C58.4205 18.1333 58.5846 18.8718 58.5846 19.6923C58.5846 21.2513 58.0103 22.5641 56.8615 23.4667C55.7128 24.3692 54.0718 24.8615 52.0205 24.8615C50.0513 24.8615 48.4923 24.4513 47.3436 23.7128C46.2769 23.1385 45.6205 22.4 45.6205 21.5795ZM64.0821 17.559V8.45128C64.0821 7.63077 64.4923 7.22051 65.2308 7.22051H65.641C66.4615 7.22051 66.8718 7.63077 66.8718 8.45128V17.559C66.8718 20.9231 68.3487 22.5641 71.2205 22.5641C74.0923 22.5641 75.5692 20.841 75.5692 17.4769V8.45128C75.5692 7.63077 75.9795 7.22051 76.7179 7.22051H77.1282C77.8667 7.22051 78.2769 7.63077 78.2769 8.45128V17.559C78.2769 19.9385 77.7026 21.8256 76.4718 23.1385C75.241 24.4513 73.5179 25.0256 71.1385 25.0256C68.841 25.0256 67.0359 24.3692 65.8872 23.1385C64.6564 21.8256 64.0821 20.0205 64.0821 17.559ZM84.5128 23.3846V8.86153C84.5128 8.36923 84.6769 8.04102 84.9231 7.71282C85.1692 7.38461 85.5795 7.30256 85.9897 7.30256H90.9128C93.0462 7.30256 94.6872 7.71282 95.7538 8.61538C96.8205 9.51795 97.3949 10.7487 97.3949 12.4718C97.3949 13.9487 96.9846 15.1795 96.0821 16.082C95.1795 16.9846 93.9487 17.4769 92.2256 17.641L97.3128 23.6308C97.3949 23.7128 97.3128 23.7949 97.2308 23.959C97.1487 24.1231 96.9026 24.2872 96.6564 24.4513C96.4103 24.6154 96.0821 24.6974 95.6718 24.6974C95.0154 24.6974 94.441 24.3692 93.8667 23.6308L89.1077 17.8051H87.2205V23.3846C87.2205 24.2051 86.8103 24.6154 86.0718 24.6154H85.6615C84.841 24.7795 84.5128 24.2872 84.5128 23.3846ZM87.1385 15.6718H90.8308C92.0615 15.6718 93.0462 15.4256 93.6205 14.8513C94.2769 14.2769 94.5231 13.5385 94.5231 12.5538C94.5231 10.5026 93.2103 9.43589 90.6667 9.43589H87.0564L87.1385 15.6718ZM103.056 23.3026V8.86153C103.056 8.36923 103.221 8.04102 103.467 7.71282C103.713 7.38461 104.123 7.30256 104.533 7.30256H113.969C114.79 7.30256 115.282 7.71282 115.282 8.45128V8.61538C115.282 9.35384 114.872 9.7641 113.969 9.7641H105.764V15.3436H111.836C112.656 15.3436 113.149 15.6718 113.149 16.4103V16.4923C113.149 17.2308 112.738 17.641 111.836 17.641H105.846V23.5487C105.846 24.3692 105.436 24.7795 104.615 24.7795H104.205C103.467 24.7795 103.056 24.2872 103.056 23.3026ZM120.369 23.1385V8.86153C120.369 8.36923 120.533 8.04102 120.779 7.71282C121.026 7.38461 121.436 7.30256 121.846 7.30256H131.938C132.759 7.30256 133.251 7.71282 133.251 8.45128V8.61538C133.251 9.35384 132.841 9.7641 131.938 9.7641H123.077V14.6872H129.887C130.708 14.6872 131.2 15.0154 131.2 15.7538V15.8359C131.2 16.5744 130.79 16.9846 129.887 16.9846H123.077V22.2359H132.103C132.923 22.2359 133.333 22.5641 133.333 23.3846V23.5487C133.333 24.3692 132.923 24.7795 132.103 24.7795H121.846C121.436 24.7795 121.026 24.6154 120.779 24.3692C120.533 23.959 120.369 23.6308 120.369 23.1385ZM138.913 23.3846V8.86153C138.913 8.36923 139.077 8.04102 139.323 7.71282C139.569 7.38461 139.979 7.30256 140.39 7.30256H145.313C147.446 7.30256 149.087 7.71282 150.154 8.61538C151.221 9.51795 151.795 10.7487 151.795 12.4718C151.795 13.9487 151.385 15.1795 150.482 16.082C149.579 16.9846 148.349 17.4769 146.626 17.641L151.713 23.6308C151.795 23.7128 151.713 23.7949 151.631 23.959C151.549 24.1231 151.303 24.2872 151.056 24.4513C150.81 24.6154 150.482 24.6974 150.072 24.6974C149.415 24.6974 148.841 24.3692 148.267 23.6308L143.508 17.8051H141.621V23.3846C141.621 24.2051 141.21 24.6154 140.472 24.6154H140.062C139.323 24.7795 138.913 24.2872 138.913 23.3846ZM141.621 15.6718H145.313C146.544 15.6718 147.528 15.4256 148.103 14.8513C148.759 14.2769 149.005 13.5385 149.005 12.5538C149.005 10.5026 147.692 9.43589 145.149 9.43589H141.538L141.621 15.6718Z" fill="white"/>
<path d="M20.5128 23.3846H23.3846C23.7949 23.3846 24.041 23.0564 24.041 22.7282V9.35385C24.041 8.94359 23.7128 8.69744 23.3846 8.69744H20.5128C20.1026 8.69744 19.8564 9.02564 19.8564 9.35385V22.7282C19.8564 23.0564 20.1846 23.3846 20.5128 23.3846ZM4.92308 7.38462V15.1795V16.8205V17.641H6.5641L4.92308 20.0205L3.28205 22.4L1.64103 20.0205L0 17.641H1.72308V16.8205V15.1795V7.38462C1.72308 3.3641 5.00513 0 9.10769 0H26.4205C30.441 0 33.8051 3.28205 33.8051 7.38462H30.6051C30.6051 5.08718 28.7179 3.28205 26.5026 3.28205H9.02564C6.81026 3.2 4.92308 5.08718 4.92308 7.38462ZM32.0821 9.6L33.7231 11.9795L35.3641 14.359H33.7231V15.1795V15.9179V24.6154C33.7231 28.6359 30.441 32 26.3385 32H9.02564C5.00513 32 1.64103 28.7179 1.64103 24.6154H4.92308C4.92308 26.9128 6.81026 28.7179 9.02564 28.7179H26.3385C28.6359 28.7179 30.441 26.8308 30.441 24.6154V16V15.2615V14.441H28.8L30.441 12.0615L32.0821 9.6ZM11.9795 23.3846H14.8513C15.2615 23.3846 15.5077 23.0564 15.5077 22.7282V14.1949C15.5077 13.7846 15.1795 13.5385 14.8513 13.5385H11.9795C11.5692 13.5385 11.3231 13.8667 11.3231 14.1949V22.6462C11.3231 23.0564 11.6513 23.3846 11.9795 23.3846Z" fill="url(#paint0_linear)"/>
</g>
<defs>
<linearGradient id="paint0_linear" x1="-2.96418e-07" y1="32" x2="39.9875" y2="24.4334" gradientUnits="userSpaceOnUse">
<stop stop-color="#E84D8C"/>
<stop offset="1" stop-color="#F8D98A"/>
</linearGradient>
<clipPath id="clip0">
<rect width="151.877" height="32" fill="white"/>
</clipPath>
</defs>
</svg>
