<svg width="25" height="24" viewBox="0 0 25 24" fill="none" xmlns="http://www.w3.org/2000/svg">
<path fill-rule="evenodd" clip-rule="evenodd" d="M7.7002 11V9C7.7002 7.67392 8.22698 6.40215 9.16466 5.46447C10.1023 4.52678 11.3741 4 12.7002 4C14.0263 4 15.298 4.52678 16.2357 5.46447C17.1734 6.40215 17.7002 7.67392 17.7002 9V11C18.2306 11 18.7393 11.2107 19.1144 11.5858C19.4895 11.9609 19.7002 12.4696 19.7002 13V18C19.7002 18.5304 19.4895 19.0391 19.1144 19.4142C18.7393 19.7893 18.2306 20 17.7002 20H7.7002C7.16976 20 6.66105 19.7893 6.28598 19.4142C5.91091 19.0391 5.7002 18.5304 5.7002 18V13C5.7002 12.4696 5.91091 11.9609 6.28598 11.5858C6.66105 11.2107 7.16976 11 7.7002 11V11ZM15.7002 9V11H9.7002V9C9.7002 8.20435 10.0163 7.44129 10.5789 6.87868C11.1415 6.31607 11.9045 6 12.7002 6C13.4958 6 14.2589 6.31607 14.8215 6.87868C15.3841 7.44129 15.7002 8.20435 15.7002 9V9Z" fill="black"/>
</svg>
