<svg width="1440" height="1379" viewBox="0 0 1440 1379" fill="none" xmlns="http://www.w3.org/2000/svg">
<mask id="path-1-inside-1_1709_35781" fill="white">
<path d="M717.083 689.5C717.083 1070.3 327.834 1379 -152.33 1379C-632.493 1379 -1021.74 1070.3 -1021.74 689.5C-1021.74 308.7 -632.493 0 -152.33 0C327.834 0 717.083 308.7 717.083 689.5Z"/>
<path d="M717.083 689.5C717.083 945.44 327.834 1152.92 -152.33 1152.92C-632.493 1152.92 -1021.74 945.44 -1021.74 689.5C-1021.74 433.56 -632.493 226.079 -152.33 226.079C327.834 226.079 717.083 433.56 717.083 689.5Z"/>
<path d="M717.083 689.5C717.083 898.906 327.834 1068.66 -152.33 1068.66C-632.493 1068.66 -1021.74 898.906 -1021.74 689.5C-1021.74 480.094 -632.493 310.338 -152.33 310.338C327.834 310.338 717.083 480.094 717.083 689.5Z"/>
<path d="M717.083 689.5C717.083 875.869 327.834 1026.95 -152.33 1026.95C-632.493 1026.95 -1021.74 875.869 -1021.74 689.5C-1021.74 503.131 -632.493 352.05 -152.33 352.05C327.834 352.05 717.083 503.131 717.083 689.5Z"/>
<path d="M717.083 689.5C717.083 854.214 327.834 987.741 -152.33 987.741C-632.493 987.741 -1021.74 854.214 -1021.74 689.5C-1021.74 524.786 -632.493 391.259 -152.33 391.259C327.834 391.259 717.083 524.786 717.083 689.5Z"/>
<path d="M717.083 689.5C717.083 838.549 327.834 959.377 -152.33 959.377C-632.493 959.377 -1021.74 838.549 -1021.74 689.5C-1021.74 540.451 -632.493 419.623 -152.33 419.623C327.834 419.623 717.083 540.451 717.083 689.5Z"/>
<path d="M717.083 689.5C717.083 826.109 327.834 936.852 -152.33 936.852C-632.493 936.852 -1021.74 826.109 -1021.74 689.5C-1021.74 552.891 -632.493 442.148 -152.33 442.148C327.834 442.148 717.083 552.891 717.083 689.5Z"/>
<path d="M717.083 689.5C717.083 815.051 327.834 916.831 -152.33 916.831C-632.493 916.831 -1021.74 815.051 -1021.74 689.5C-1021.74 563.949 -632.493 462.169 -152.33 462.169C327.834 462.169 717.083 563.949 717.083 689.5Z"/>
<path d="M717.083 689.5C717.083 801.69 327.834 892.638 -152.33 892.638C-632.493 892.638 -1021.74 801.69 -1021.74 689.5C-1021.74 577.31 -632.493 486.362 -152.33 486.362C327.834 486.362 717.083 577.31 717.083 689.5Z"/>
<path d="M717.083 689.5C717.083 789.25 327.834 870.113 -152.33 870.113C-632.493 870.113 -1021.74 789.25 -1021.74 689.5C-1021.74 589.75 -632.493 508.887 -152.33 508.887C327.834 508.887 717.083 589.75 717.083 689.5Z"/>
<path d="M717.083 689.5C717.083 777.731 327.834 849.257 -152.33 849.257C-632.493 849.257 -1021.74 777.731 -1021.74 689.5C-1021.74 601.269 -632.493 529.743 -152.33 529.743C327.834 529.743 717.083 601.269 717.083 689.5Z"/>
<path d="M717.083 689.5C717.083 761.145 327.834 819.224 -152.33 819.224C-632.493 819.224 -1021.74 761.145 -1021.74 689.5C-1021.74 617.855 -632.493 559.776 -152.33 559.776C327.834 559.776 717.083 617.855 717.083 689.5Z"/>
<path d="M717.083 689.5C717.083 739.029 327.834 779.181 -152.33 779.181C-632.493 779.181 -1021.74 739.029 -1021.74 689.5C-1021.74 639.971 -632.493 599.819 -152.33 599.819C327.834 599.819 717.083 639.971 717.083 689.5Z"/>
<path d="M717.083 689.5C717.083 721.521 327.834 747.48 -152.33 747.48C-632.493 747.48 -1021.74 721.521 -1021.74 689.5C-1021.74 657.479 -632.493 631.52 -152.33 631.52C327.834 631.52 717.083 657.479 717.083 689.5Z"/>
<path d="M717.083 689.5C717.083 709.542 327.834 725.789 -152.33 725.789C-632.493 725.789 -1021.74 709.542 -1021.74 689.5C-1021.74 669.458 -632.493 653.211 -152.33 653.211C327.834 653.211 717.083 669.458 717.083 689.5Z"/>
<path d="M717.083 689.5C717.083 697.563 327.834 704.099 -152.33 704.099C-632.493 704.099 -1021.74 697.563 -1021.74 689.5C-1021.74 681.437 -632.493 674.901 -152.33 674.901C327.834 674.901 717.083 681.437 717.083 689.5Z"/>
<path d="M2456.74 689.5C2456.74 1070.3 2067.49 1379 1587.33 1379C1107.17 1379 717.917 1070.3 717.917 689.5C717.917 308.7 1107.17 0 1587.33 0C2067.49 0 2456.74 308.7 2456.74 689.5Z"/>
<path d="M2456.74 689.5C2456.74 945.44 2067.49 1152.92 1587.33 1152.92C1107.17 1152.92 717.917 945.44 717.917 689.5C717.917 433.56 1107.17 226.079 1587.33 226.079C2067.49 226.079 2456.74 433.56 2456.74 689.5Z"/>
<path d="M2456.74 689.5C2456.74 898.906 2067.49 1068.66 1587.33 1068.66C1107.17 1068.66 717.917 898.906 717.917 689.5C717.917 480.094 1107.17 310.338 1587.33 310.338C2067.49 310.338 2456.74 480.094 2456.74 689.5Z"/>
<path d="M2456.74 689.5C2456.74 875.869 2067.49 1026.95 1587.33 1026.95C1107.17 1026.95 717.917 875.869 717.917 689.5C717.917 503.131 1107.17 352.05 1587.33 352.05C2067.49 352.05 2456.74 503.131 2456.74 689.5Z"/>
<path d="M2456.74 689.5C2456.74 854.214 2067.49 987.741 1587.33 987.741C1107.17 987.741 717.917 854.214 717.917 689.5C717.917 524.786 1107.17 391.259 1587.33 391.259C2067.49 391.259 2456.74 524.786 2456.74 689.5Z"/>
<path d="M2456.74 689.5C2456.74 838.549 2067.49 959.377 1587.33 959.377C1107.17 959.377 717.917 838.549 717.917 689.5C717.917 540.451 1107.17 419.623 1587.33 419.623C2067.49 419.623 2456.74 540.451 2456.74 689.5Z"/>
<path d="M2456.74 689.5C2456.74 826.109 2067.49 936.852 1587.33 936.852C1107.17 936.852 717.917 826.109 717.917 689.5C717.917 552.891 1107.17 442.148 1587.33 442.148C2067.49 442.148 2456.74 552.891 2456.74 689.5Z"/>
<path d="M2456.74 689.5C2456.74 815.051 2067.49 916.831 1587.33 916.831C1107.17 916.831 717.917 815.051 717.917 689.5C717.917 563.949 1107.17 462.169 1587.33 462.169C2067.49 462.169 2456.74 563.949 2456.74 689.5Z"/>
<path d="M2456.74 689.5C2456.74 801.69 2067.49 892.638 1587.33 892.638C1107.17 892.638 717.917 801.69 717.917 689.5C717.917 577.31 1107.17 486.362 1587.33 486.362C2067.49 486.362 2456.74 577.31 2456.74 689.5Z"/>
<path d="M2456.74 689.5C2456.74 789.25 2067.49 870.113 1587.33 870.113C1107.17 870.113 717.917 789.25 717.917 689.5C717.917 589.75 1107.17 508.887 1587.33 508.887C2067.49 508.887 2456.74 589.75 2456.74 689.5Z"/>
<path d="M2456.74 689.5C2456.74 777.731 2067.49 849.257 1587.33 849.257C1107.17 849.257 717.917 777.731 717.917 689.5C717.917 601.269 1107.17 529.743 1587.33 529.743C2067.49 529.743 2456.74 601.269 2456.74 689.5Z"/>
<path d="M2456.74 689.5C2456.74 761.145 2067.49 819.224 1587.33 819.224C1107.17 819.224 717.917 761.145 717.917 689.5C717.917 617.855 1107.17 559.776 1587.33 559.776C2067.49 559.776 2456.74 617.855 2456.74 689.5Z"/>
<path d="M2456.74 689.5C2456.74 739.029 2067.49 779.181 1587.33 779.181C1107.17 779.181 717.917 739.029 717.917 689.5C717.917 639.971 1107.17 599.819 1587.33 599.819C2067.49 599.819 2456.74 639.971 2456.74 689.5Z"/>
<path d="M2456.74 689.5C2456.74 721.521 2067.49 747.48 1587.33 747.48C1107.17 747.48 717.917 721.521 717.917 689.5C717.917 657.479 1107.17 631.52 1587.33 631.52C2067.49 631.52 2456.74 657.479 2456.74 689.5Z"/>
<path d="M2456.74 689.5C2456.74 709.542 2067.49 725.789 1587.33 725.789C1107.17 725.789 717.917 709.542 717.917 689.5C717.917 669.458 1107.17 653.211 1587.33 653.211C2067.49 653.211 2456.74 669.458 2456.74 689.5Z"/>
<path d="M2456.74 689.5C2456.74 697.563 2067.49 704.099 1587.33 704.099C1107.17 704.099 717.917 697.563 717.917 689.5C717.917 681.437 1107.17 674.901 1587.33 674.901C2067.49 674.901 2456.74 681.437 2456.74 689.5Z"/>
<path d="M1500.64 690.751C1500.64 1044.14 1150.2 1330.61 717.917 1330.61C285.631 1330.61 -64.805 1044.14 -64.805 690.751C-64.805 337.365 285.631 50.8887 717.917 50.8887C1150.2 50.8887 1500.64 337.365 1500.64 690.751Z"/>
<path d="M1500.64 690.751C1500.64 940.011 1150.2 1142.08 717.917 1142.08C285.631 1142.08 -64.805 940.011 -64.805 690.751C-64.805 441.492 285.631 239.427 717.917 239.427C1150.2 239.427 1500.64 441.492 1500.64 690.751Z"/>
<path d="M1500.64 690.751C1500.64 893.016 1150.2 1056.98 717.917 1056.98C285.631 1056.98 -64.805 893.016 -64.805 690.751C-64.805 488.487 285.631 324.52 717.917 324.52C1150.2 324.52 1500.64 488.487 1500.64 690.751Z"/>
<path d="M1500.64 690.751C1500.64 869.518 1150.2 1014.44 717.917 1014.44C285.631 1014.44 -64.805 869.518 -64.805 690.751C-64.805 511.985 285.631 367.066 717.917 367.066C1150.2 367.066 1500.64 511.985 1500.64 690.751Z"/>
<path d="M1500.64 690.751C1500.64 849.706 1150.2 978.564 717.917 978.564C285.631 978.564 -64.805 849.706 -64.805 690.751C-64.805 531.797 285.631 402.938 717.917 402.938C1150.2 402.938 1500.64 531.797 1500.64 690.751Z"/>
<path d="M1500.64 690.751C1500.64 834.963 1150.2 951.869 717.917 951.869C285.631 951.869 -64.805 834.963 -64.805 690.751C-64.805 546.54 285.631 429.634 717.917 429.634C1150.2 429.634 1500.64 546.54 1500.64 690.751Z"/>
<path d="M1500.64 690.751C1500.64 823.905 1150.2 931.847 717.917 931.847C285.631 931.847 -64.805 823.905 -64.805 690.751C-64.805 557.598 285.631 449.656 717.917 449.656C1150.2 449.656 1500.64 557.598 1500.64 690.751Z"/>
<path d="M1500.64 690.751C1500.64 814.69 1150.2 915.162 717.917 915.162C285.631 915.162 -64.805 814.69 -64.805 690.751C-64.805 566.813 285.631 466.341 717.917 466.341C1150.2 466.341 1500.64 566.813 1500.64 690.751Z"/>
<path d="M1500.64 690.751C1500.64 806.397 1150.2 900.146 717.917 900.146C285.631 900.146 -64.805 806.397 -64.805 690.751C-64.805 575.106 285.631 481.357 717.917 481.357C1150.2 481.357 1500.64 575.106 1500.64 690.751Z"/>
<path d="M1500.64 690.751C1500.64 793.957 1150.2 877.621 717.917 877.621C285.631 877.621 -64.805 793.957 -64.805 690.751C-64.805 587.546 285.631 503.881 717.917 503.881C1150.2 503.881 1500.64 587.546 1500.64 690.751Z"/>
<path d="M1500.64 690.751C1500.64 785.203 1150.2 861.771 717.917 861.771C285.631 861.771 -64.805 785.203 -64.805 690.751C-64.805 596.3 285.631 519.732 717.917 519.732C1150.2 519.732 1500.64 596.3 1500.64 690.751Z"/>
<path d="M1500.64 690.751C1500.64 776.449 1150.2 845.92 717.917 845.92C285.631 845.92 -64.805 776.449 -64.805 690.751C-64.805 605.054 285.631 535.583 717.917 535.583C1150.2 535.583 1500.64 605.054 1500.64 690.751Z"/>
<path d="M1500.64 690.751C1500.64 766.773 1150.2 828.401 717.917 828.401C285.631 828.401 -64.805 766.773 -64.805 690.751C-64.805 614.73 285.631 553.102 717.917 553.102C1150.2 553.102 1500.64 614.73 1500.64 690.751Z"/>
<path d="M1500.64 690.751C1500.64 754.794 1150.2 806.711 717.917 806.711C285.631 806.711 -64.805 754.794 -64.805 690.751C-64.805 626.709 285.631 574.792 717.917 574.792C1150.2 574.792 1500.64 626.709 1500.64 690.751Z"/>
<path d="M1500.64 690.751C1500.64 743.736 1150.2 786.689 717.917 786.689C285.631 786.689 -64.805 743.736 -64.805 690.751C-64.805 637.766 285.631 594.814 717.917 594.814C1150.2 594.814 1500.64 637.766 1500.64 690.751Z"/>
<path d="M1500.64 690.751C1500.64 734.522 1150.2 770.004 717.917 770.004C285.631 770.004 -64.805 734.522 -64.805 690.751C-64.805 646.981 285.631 611.498 717.917 611.498C1150.2 611.498 1500.64 646.981 1500.64 690.751Z"/>
<path d="M1500.64 690.751C1500.64 723.464 1150.2 749.982 717.917 749.982C285.631 749.982 -64.805 723.464 -64.805 690.751C-64.805 658.039 285.631 631.52 717.917 631.52C1150.2 631.52 1500.64 658.039 1500.64 690.751Z"/>
<path d="M1500.64 690.751C1500.64 714.249 1150.2 733.298 717.917 733.298C285.631 733.298 -64.805 714.249 -64.805 690.751C-64.805 667.254 285.631 648.205 717.917 648.205C1150.2 648.205 1500.64 667.254 1500.64 690.751Z"/>
</mask>
<path d="M716.083 689.5C716.083 1069.54 327.51 1378 -152.33 1378V1380C328.157 1380 718.083 1071.06 718.083 689.5H716.083ZM-152.33 1378C-632.17 1378 -1020.74 1069.54 -1020.74 689.5H-1022.74C-1022.74 1071.06 -632.817 1380 -152.33 1380V1378ZM-1020.74 689.5C-1020.74 309.456 -632.17 1 -152.33 1V-1C-632.817 -1 -1022.74 307.944 -1022.74 689.5H-1020.74ZM-152.33 1C327.51 1 716.083 309.456 716.083 689.5H718.083C718.083 307.944 328.157 -1 -152.33 -1V1ZM716.083 689.5C716.083 816.921 619.172 932.511 461.968 1016.31C304.806 1100.08 87.6212 1151.92 -152.33 1151.92V1153.92C87.8828 1153.92 305.404 1102.02 462.909 1018.07C620.37 934.139 718.083 818.02 718.083 689.5H716.083ZM-152.33 1151.92C-392.281 1151.92 -609.466 1100.08 -766.627 1016.31C-923.832 932.511 -1020.74 816.921 -1020.74 689.5H-1022.74C-1022.74 818.02 -925.029 934.139 -767.568 1018.07C-610.064 1102.02 -392.542 1153.92 -152.33 1153.92V1151.92ZM-1020.74 689.5C-1020.74 562.079 -923.832 446.489 -766.627 362.695C-609.466 278.923 -392.281 227.079 -152.33 227.079V225.079C-392.542 225.079 -610.064 276.975 -767.568 360.93C-925.029 444.861 -1022.74 560.981 -1022.74 689.5H-1020.74ZM-152.33 227.079C87.6212 227.079 304.806 278.923 461.968 362.695C619.172 446.489 716.083 562.079 716.083 689.5H718.083C718.083 560.981 620.37 444.861 462.909 360.93C305.404 276.975 87.8828 225.079 -152.33 225.079V227.079ZM716.083 689.5C716.083 741.519 691.914 791.156 648.043 836.391C604.167 881.631 540.63 922.417 462.038 956.692C304.859 1025.24 87.6478 1067.66 -152.33 1067.66V1069.66C87.8562 1069.66 305.352 1027.21 462.838 958.525C541.579 924.185 605.365 883.268 649.478 837.783C693.597 792.293 718.083 742.183 718.083 689.5H716.083ZM-152.33 1067.66C-392.307 1067.66 -609.519 1025.24 -766.698 956.692C-845.289 922.417 -908.827 881.631 -952.702 836.391C-996.573 791.156 -1020.74 741.519 -1020.74 689.5H-1022.74C-1022.74 742.183 -998.256 792.293 -954.138 837.783C-910.024 883.268 -846.239 924.185 -767.498 958.525C-610.011 1027.21 -392.516 1069.66 -152.33 1069.66V1067.66ZM-1020.74 689.5C-1020.74 637.481 -996.573 587.844 -952.702 542.609C-908.827 497.37 -845.289 456.583 -766.698 422.308C-609.519 353.76 -392.307 311.338 -152.33 311.338V309.338C-392.516 309.338 -610.011 351.793 -767.498 420.475C-846.239 454.815 -910.024 495.732 -954.138 541.217C-998.256 586.707 -1022.74 636.817 -1022.74 689.5H-1020.74ZM-152.33 311.338C87.6478 311.338 304.859 353.76 462.038 422.308C540.63 456.583 604.167 497.37 648.043 542.609C691.914 587.844 716.083 637.481 716.083 689.5H718.083C718.083 636.817 693.597 586.707 649.478 541.217C605.365 495.732 541.579 454.815 462.838 420.475C305.352 351.793 87.8562 309.338 -152.33 309.338V311.338ZM716.083 689.5C716.083 735.717 691.955 779.856 648.084 820.114C604.213 860.373 540.675 896.674 462.076 927.181C304.885 988.193 87.6604 1025.95 -152.33 1025.95V1027.95C87.8435 1027.95 305.325 990.167 462.8 929.046C541.534 898.486 605.319 862.073 649.437 821.588C693.555 781.102 718.083 736.467 718.083 689.5H716.083ZM-152.33 1025.95C-392.32 1025.95 -609.545 988.193 -766.736 927.181C-845.335 896.674 -908.873 860.373 -952.744 820.114C-996.615 779.856 -1020.74 735.717 -1020.74 689.5H-1022.74C-1022.74 736.467 -998.215 781.102 -954.096 821.588C-909.978 862.073 -846.194 898.486 -767.46 929.046C-609.985 990.167 -392.503 1027.95 -152.33 1027.95V1025.95ZM-1020.74 689.5C-1020.74 643.283 -996.615 599.144 -952.744 558.886C-908.873 518.627 -845.335 482.326 -766.736 451.819C-609.545 390.807 -392.32 353.05 -152.33 353.05V351.05C-392.503 351.05 -609.985 388.833 -767.46 449.954C-846.194 480.514 -909.978 516.927 -954.096 557.412C-998.215 597.898 -1022.74 642.533 -1022.74 689.5H-1020.74ZM-152.33 353.05C87.6604 353.05 304.885 390.807 462.076 451.819C540.675 482.326 604.213 518.627 648.084 558.886C691.955 599.144 716.083 643.283 716.083 689.5H718.083C718.083 642.533 693.555 597.898 649.437 557.412C605.319 516.927 541.534 480.514 462.8 449.954C305.325 388.833 87.8435 351.05 -152.33 351.05V353.05ZM716.083 689.5C716.083 730.253 692.008 769.226 648.131 804.812C604.261 840.392 540.72 872.477 462.114 899.442C304.911 953.369 87.672 986.741 -152.33 986.741V988.741C87.832 988.741 305.3 955.35 462.763 901.334C541.489 874.328 605.271 842.148 649.391 806.366C693.502 770.59 718.083 731.104 718.083 689.5H716.083ZM-152.33 986.741C-392.332 986.741 -609.57 953.369 -766.773 899.442C-845.38 872.477 -908.921 840.392 -952.79 804.812C-996.668 769.226 -1020.74 730.253 -1020.74 689.5H-1022.74C-1022.74 731.104 -998.162 770.59 -954.05 806.366C-909.93 842.148 -846.149 874.328 -767.422 901.334C-609.96 955.35 -392.492 988.741 -152.33 988.741V986.741ZM-1020.74 689.5C-1020.74 648.747 -996.668 609.774 -952.79 574.188C-908.921 538.608 -845.38 506.523 -766.773 479.558C-609.57 425.631 -392.332 392.259 -152.33 392.259V390.259C-392.492 390.259 -609.96 423.65 -767.422 477.666C-846.149 504.672 -909.93 536.852 -954.05 572.634C-998.162 608.41 -1022.74 647.896 -1022.74 689.5H-1020.74ZM-152.33 392.259C87.672 392.259 304.911 425.631 462.114 479.558C540.72 506.523 604.261 538.608 648.131 574.188C692.008 609.774 716.083 648.747 716.083 689.5H718.083C718.083 647.896 693.502 608.41 649.391 572.634C605.271 536.852 541.489 504.672 462.763 477.666C305.3 423.65 87.832 390.259 -152.33 390.259V392.259ZM716.083 689.5C716.083 726.293 692.059 761.531 648.169 793.742C604.299 825.938 540.754 854.974 462.142 879.377C304.929 928.178 87.6802 958.377 -152.33 958.377V960.377C87.8239 960.377 305.282 930.162 462.735 881.287C541.455 856.851 605.233 827.734 649.352 795.354C693.451 762.99 718.083 727.232 718.083 689.5H716.083ZM-152.33 958.377C-392.34 958.377 -609.589 928.178 -766.801 879.377C-845.414 854.974 -908.959 825.938 -952.829 793.742C-996.719 761.531 -1020.74 726.293 -1020.74 689.5H-1022.74C-1022.74 727.232 -998.111 762.99 -954.012 795.354C-909.892 827.734 -846.115 856.851 -767.394 881.287C-609.941 930.162 -392.484 960.377 -152.33 960.377V958.377ZM-1020.74 689.5C-1020.74 652.707 -996.719 617.469 -952.829 585.258C-908.959 553.062 -845.414 524.026 -766.801 499.623C-609.589 450.822 -392.34 420.623 -152.33 420.623V418.623C-392.484 418.623 -609.941 448.838 -767.394 497.713C-846.115 522.149 -909.892 551.266 -954.012 583.646C-998.111 616.01 -1022.74 651.769 -1022.74 689.5H-1020.74ZM-152.33 420.623C87.6802 420.623 304.929 450.822 462.142 499.623C540.754 524.026 604.299 553.062 648.169 585.258C692.059 617.469 716.083 652.707 716.083 689.5H718.083C718.083 651.769 693.451 616.01 649.352 583.646C605.233 551.266 541.455 522.149 462.735 497.713C305.282 448.838 87.8239 418.623 -152.33 418.623V420.623ZM716.083 689.5C716.083 723.143 692.11 755.417 648.202 784.951C604.331 814.461 540.782 841.076 462.165 863.443C304.943 908.173 87.6865 935.852 -152.33 935.852V937.852C87.8175 937.852 305.267 910.16 462.712 865.366C541.427 842.971 605.201 816.286 649.319 786.61C693.401 756.959 718.083 724.162 718.083 689.5H716.083ZM-152.33 935.852C-392.346 935.852 -609.603 908.173 -766.824 863.443C-845.442 841.076 -908.991 814.461 -952.862 784.951C-996.769 755.417 -1020.74 723.143 -1020.74 689.5H-1022.74C-1022.74 724.162 -998.06 756.959 -953.978 786.61C-909.861 816.286 -846.087 842.971 -767.371 865.366C-609.927 910.16 -392.477 937.852 -152.33 937.852V935.852ZM-1020.74 689.5C-1020.74 655.857 -996.769 623.583 -952.862 594.049C-908.991 564.539 -845.442 537.924 -766.824 515.557C-609.603 470.827 -392.346 443.148 -152.33 443.148V441.148C-392.477 441.148 -609.927 468.84 -767.371 513.634C-846.087 536.029 -909.861 562.714 -953.978 592.39C-998.06 622.041 -1022.74 654.838 -1022.74 689.5H-1020.74ZM-152.33 443.148C87.6865 443.148 304.943 470.827 462.165 515.557C540.782 537.924 604.331 564.539 648.202 594.049C692.11 623.583 716.083 655.857 716.083 689.5H718.083C718.083 654.838 693.401 622.041 649.319 592.39C605.201 562.714 541.427 536.029 462.712 513.634C305.267 468.84 87.8175 441.148 -152.33 441.148V443.148ZM716.083 689.5C716.083 720.338 692.164 749.98 648.235 777.137C604.36 804.26 540.807 828.722 462.185 849.28C304.956 890.391 87.6921 915.831 -152.33 915.831V917.831C87.8119 917.831 305.254 892.38 462.691 851.215C541.402 830.633 605.171 806.11 649.286 778.838C693.347 751.6 718.083 721.438 718.083 689.5H716.083ZM-152.33 915.831C-392.352 915.831 -609.616 890.391 -766.845 849.28C-845.467 828.722 -909.02 804.26 -952.894 777.137C-996.824 749.98 -1020.74 720.338 -1020.74 689.5H-1022.74C-1022.74 721.438 -998.006 751.6 -953.946 778.838C-909.831 806.11 -846.062 830.633 -767.351 851.215C-609.914 892.38 -392.472 917.831 -152.33 917.831V915.831ZM-1020.74 689.5C-1020.74 658.662 -996.824 629.02 -952.894 601.863C-909.02 574.74 -845.467 550.278 -766.845 529.72C-609.616 488.609 -392.352 463.169 -152.33 463.169V461.169C-392.472 461.169 -609.914 486.62 -767.351 527.786C-846.062 548.367 -909.831 572.89 -953.946 600.162C-998.006 627.4 -1022.74 657.562 -1022.74 689.5H-1020.74ZM-152.33 463.169C87.6921 463.169 304.956 488.609 462.185 529.72C540.807 550.278 604.36 574.74 648.235 601.863C692.164 629.02 716.083 658.662 716.083 689.5H718.083C718.083 657.562 693.347 627.4 649.286 600.162C605.171 572.89 541.402 548.367 462.691 527.786C305.254 486.62 87.8119 461.169 -152.33 461.169V463.169ZM716.083 689.5C716.083 703.214 710.14 716.681 698.668 729.781C687.19 742.886 670.217 755.575 648.277 767.695C604.398 791.934 540.838 813.795 462.211 832.166C304.972 868.905 87.6987 891.638 -152.33 891.638V893.638C87.8052 893.638 305.239 870.896 462.666 834.114C541.371 815.724 605.134 793.813 649.244 769.446C671.299 757.262 688.487 744.44 700.172 731.098C711.863 717.75 718.083 703.833 718.083 689.5H716.083ZM-152.33 891.638C-392.358 891.638 -609.632 868.905 -766.87 832.166C-845.498 813.795 -909.058 791.934 -952.937 767.695C-974.877 755.575 -991.85 742.886 -1003.33 729.781C-1014.8 716.681 -1020.74 703.214 -1020.74 689.5H-1022.74C-1022.74 703.833 -1016.52 717.75 -1004.83 731.098C-993.147 744.44 -975.959 757.262 -953.904 769.446C-909.793 793.813 -846.031 815.724 -767.325 834.114C-609.898 870.896 -392.465 893.638 -152.33 893.638V891.638ZM-1020.74 689.5C-1020.74 675.786 -1014.8 662.319 -1003.33 649.22C-991.85 636.114 -974.877 623.425 -952.937 611.305C-909.058 587.066 -845.498 565.205 -766.87 546.834C-609.632 510.095 -392.358 487.362 -152.33 487.362V485.362C-392.465 485.362 -609.898 508.104 -767.325 544.886C-846.031 563.276 -909.793 585.187 -953.904 609.554C-975.959 621.738 -993.147 634.56 -1004.83 647.902C-1016.52 661.25 -1022.74 675.167 -1022.74 689.5H-1020.74ZM-152.33 487.362C87.6987 487.362 304.972 510.095 462.211 546.834C540.838 565.205 604.398 587.066 648.277 611.305C670.217 623.425 687.19 636.114 698.668 649.22C710.14 662.319 716.083 675.786 716.083 689.5H718.083C718.083 675.167 711.863 661.25 700.172 647.902C688.487 634.56 671.299 621.738 649.244 609.554C605.134 585.187 541.371 563.276 462.666 544.886C305.239 508.104 87.8052 485.362 -152.33 485.362V487.362ZM716.083 689.5C716.083 701.619 710.176 713.555 698.708 725.198C687.235 736.845 670.264 748.127 648.32 758.905C604.434 780.46 540.867 799.898 462.235 816.234C304.987 848.901 87.7048 869.113 -152.33 869.113V871.113C87.7991 871.113 305.224 850.894 462.641 818.192C541.342 801.842 605.097 782.362 649.201 760.7C671.251 749.87 688.442 738.47 700.132 726.602C711.826 714.73 718.083 702.318 718.083 689.5H716.083ZM-152.33 869.113C-392.365 869.113 -609.646 848.901 -766.894 816.234C-845.527 799.898 -909.094 780.46 -952.979 758.905C-974.924 748.127 -991.895 736.845 -1003.37 725.198C-1014.84 713.555 -1020.74 701.619 -1020.74 689.5H-1022.74C-1022.74 702.318 -1016.49 714.73 -1004.79 726.602C-993.101 738.47 -975.911 749.87 -953.861 760.7C-909.757 782.362 -846.002 801.842 -767.301 818.192C-609.883 850.894 -392.459 871.113 -152.33 871.113V869.113ZM-1020.74 689.5C-1020.74 677.381 -1014.84 665.445 -1003.37 653.802C-991.895 642.155 -974.924 630.873 -952.979 620.095C-909.094 598.54 -845.527 579.102 -766.894 562.766C-609.646 530.099 -392.365 509.887 -152.33 509.887V507.887C-392.459 507.887 -609.883 528.106 -767.301 560.808C-846.002 577.158 -909.757 596.638 -953.861 618.3C-975.911 629.13 -993.101 640.53 -1004.79 652.398C-1016.49 664.27 -1022.74 676.682 -1022.74 689.5H-1020.74ZM-152.33 509.887C87.7048 509.887 304.987 530.099 462.235 562.766C540.867 579.102 604.434 598.54 648.32 620.095C670.264 630.873 687.235 642.155 698.708 653.802C710.176 665.445 716.083 677.381 716.083 689.5H718.083C718.083 676.682 711.826 664.27 700.132 652.398C688.442 640.53 671.251 629.13 649.201 618.3C605.097 596.638 541.342 577.158 462.641 560.808C305.224 528.106 87.7991 507.887 -152.33 507.887V509.887ZM716.083 689.5C716.083 700.133 710.223 710.651 698.752 720.953C687.284 731.251 670.312 741.232 648.362 750.768C604.469 769.836 540.894 787.032 462.257 801.482C305 830.378 87.7104 848.257 -152.33 848.257V850.257C87.7935 850.257 305.21 832.373 462.619 803.449C541.315 788.988 605.062 771.759 649.159 752.602C671.204 743.025 688.394 732.942 700.088 722.441C711.779 711.942 718.083 700.925 718.083 689.5H716.083ZM-152.33 848.257C-392.37 848.257 -609.66 830.378 -766.917 801.482C-845.554 787.032 -909.129 769.836 -953.022 750.768C-974.972 741.232 -991.943 731.251 -1003.41 720.953C-1014.88 710.651 -1020.74 700.133 -1020.74 689.5H-1022.74C-1022.74 700.925 -1016.44 711.942 -1004.75 722.441C-993.053 732.942 -975.863 743.025 -953.819 752.602C-909.722 771.759 -845.975 788.988 -767.279 803.449C-609.87 832.373 -392.453 850.257 -152.33 850.257V848.257ZM-1020.74 689.5C-1020.74 678.867 -1014.88 668.349 -1003.41 658.047C-991.943 647.749 -974.972 637.768 -953.022 628.233C-909.129 609.164 -845.554 591.968 -766.917 577.518C-609.66 548.622 -392.37 530.743 -152.33 530.743V528.743C-392.453 528.743 -609.87 546.627 -767.279 575.551C-845.975 590.012 -909.722 607.241 -953.819 626.398C-975.863 635.975 -993.053 646.058 -1004.75 656.559C-1016.44 667.058 -1022.74 678.075 -1022.74 689.5H-1020.74ZM-152.33 530.743C87.7104 530.743 305 548.622 462.257 577.518C540.894 591.968 604.469 609.164 648.362 628.233C670.312 637.768 687.284 647.749 698.752 658.047C710.223 668.349 716.083 678.867 716.083 689.5H718.083C718.083 678.075 711.779 667.058 700.088 656.559C688.394 646.058 671.204 635.975 649.159 626.398C605.062 607.241 541.315 590.012 462.619 575.551C305.21 546.627 87.7935 528.743 -152.33 528.743V530.743ZM716.083 689.5C716.083 697.97 710.327 706.454 698.831 714.836C687.363 723.198 670.387 731.305 648.428 739.052C604.522 754.54 540.933 768.506 462.291 780.24C305.02 803.706 87.7185 818.224 -152.33 818.224V820.224C87.7855 820.224 305.191 805.703 462.586 782.218C541.276 770.477 605.01 756.489 649.093 740.938C671.129 733.164 688.314 724.98 700.009 716.452C711.676 707.945 718.083 698.941 718.083 689.5H716.083ZM-152.33 818.224C-392.378 818.224 -609.68 803.706 -766.95 780.24C-845.593 768.506 -909.182 754.54 -953.088 739.052C-975.047 731.305 -992.023 723.198 -1003.49 714.836C-1014.99 706.454 -1020.74 697.97 -1020.74 689.5H-1022.74C-1022.74 698.941 -1016.34 707.945 -1004.67 716.452C-992.974 724.98 -975.788 733.164 -953.753 740.938C-909.67 756.489 -845.935 770.477 -767.245 782.218C-609.85 805.703 -392.445 820.224 -152.33 820.224V818.224ZM-1020.74 689.5C-1020.74 681.03 -1014.99 672.546 -1003.49 664.164C-992.023 655.802 -975.047 647.695 -953.088 639.948C-909.182 624.46 -845.593 610.494 -766.95 598.76C-609.68 575.294 -392.378 560.776 -152.33 560.776V558.776C-392.445 558.776 -609.85 573.297 -767.245 596.782C-845.935 608.523 -909.67 622.511 -953.753 638.062C-975.788 645.836 -992.974 654.02 -1004.67 662.548C-1016.34 671.055 -1022.74 680.059 -1022.74 689.5H-1020.74ZM-152.33 560.776C87.7185 560.776 305.02 575.294 462.291 598.76C540.933 610.494 604.522 624.46 648.428 639.948C670.387 647.695 687.363 655.802 698.831 664.164C710.327 672.546 716.083 681.03 716.083 689.5H718.083C718.083 680.059 711.676 671.055 700.009 662.548C688.314 654.02 671.129 645.836 649.093 638.062C605.01 622.511 541.276 608.523 462.586 596.782C305.191 573.297 87.7855 558.776 -152.33 558.776V560.776ZM716.083 689.5C716.083 692.243 714.74 695.065 711.882 697.968C709.021 700.874 704.712 703.786 698.97 706.681C687.49 712.468 670.496 718.078 648.524 723.436C604.595 734.15 540.986 743.806 462.336 751.919C305.046 768.144 87.7289 778.181 -152.33 778.181V780.181C87.775 780.181 305.164 770.142 462.541 753.909C541.223 745.793 604.937 736.125 648.998 725.379C671.02 720.009 688.187 714.356 699.87 708.467C705.71 705.523 710.232 702.494 713.307 699.371C716.385 696.245 718.083 692.948 718.083 689.5H716.083ZM-152.33 778.181C-392.389 778.181 -609.706 768.144 -766.995 751.919C-845.646 743.806 -909.254 734.15 -953.183 723.436C-975.156 718.078 -992.15 712.468 -1003.63 706.681C-1009.37 703.786 -1013.68 700.874 -1016.54 697.968C-1019.4 695.065 -1020.74 692.243 -1020.74 689.5H-1022.74C-1022.74 692.948 -1021.04 696.245 -1017.97 699.371C-1014.89 702.494 -1010.37 705.523 -1004.53 708.467C-992.847 714.356 -975.679 720.009 -953.657 725.379C-909.597 736.125 -845.883 745.793 -767.2 753.909C-609.824 770.142 -392.435 780.181 -152.33 780.181V778.181ZM-1020.74 689.5C-1020.74 686.757 -1019.4 683.935 -1016.54 681.032C-1013.68 678.126 -1009.37 675.214 -1003.63 672.319C-992.15 666.532 -975.156 660.922 -953.183 655.564C-909.254 644.85 -845.646 635.194 -766.995 627.081C-609.706 610.856 -392.389 600.819 -152.33 600.819V598.819C-392.435 598.819 -609.824 608.858 -767.2 625.091C-845.883 633.207 -909.597 642.875 -953.657 653.621C-975.679 658.991 -992.847 664.644 -1004.53 670.533C-1010.37 673.477 -1014.89 676.506 -1017.97 679.629C-1021.04 682.755 -1022.74 686.052 -1022.74 689.5H-1020.74ZM-152.33 600.819C87.7289 600.819 305.046 610.856 462.336 627.081C540.986 635.194 604.595 644.85 648.524 655.564C670.496 660.922 687.49 666.532 698.97 672.319C704.712 675.214 709.021 678.126 711.882 681.032C714.74 683.935 716.083 686.757 716.083 689.5H718.083C718.083 686.052 716.385 682.755 713.307 679.629C710.232 676.506 705.71 673.477 699.87 670.533C688.187 664.644 671.02 658.991 648.998 653.621C604.937 642.875 541.223 633.207 462.541 625.091C305.164 608.858 87.775 598.819 -152.33 598.819V600.819ZM716.083 689.5C716.083 690.964 714.956 692.681 712.046 694.592C709.187 696.469 704.869 698.357 699.11 700.234C687.605 703.984 670.587 707.615 648.605 711.081C604.654 718.01 541.028 724.255 462.372 729.5C305.067 739.99 87.7371 746.48 -152.33 746.48V748.48C87.7668 748.48 305.143 741.99 462.505 731.496C541.181 726.249 604.877 720 648.916 713.056C670.929 709.586 688.072 705.935 699.73 702.136C705.552 700.238 710.066 698.285 713.144 696.264C716.17 694.277 718.083 692.038 718.083 689.5H716.083ZM-152.33 746.48C-392.397 746.48 -609.727 739.99 -767.031 729.5C-845.688 724.255 -909.314 718.01 -953.265 711.081C-975.247 707.615 -992.265 703.984 -1003.77 700.234C-1009.53 698.357 -1013.85 696.469 -1016.71 694.592C-1019.62 692.681 -1020.74 690.964 -1020.74 689.5H-1022.74C-1022.74 692.038 -1020.83 694.277 -1017.8 696.264C-1014.73 698.285 -1010.21 700.238 -1004.39 702.136C-992.731 705.935 -975.588 709.586 -953.576 713.056C-909.537 720 -845.841 726.249 -767.164 731.496C-609.803 741.99 -392.427 748.48 -152.33 748.48V746.48ZM-1020.74 689.5C-1020.74 688.036 -1019.62 686.319 -1016.71 684.408C-1013.85 682.531 -1009.53 680.643 -1003.77 678.766C-992.265 675.016 -975.247 671.385 -953.265 667.919C-909.314 660.99 -845.688 654.745 -767.031 649.5C-609.727 639.01 -392.397 632.52 -152.33 632.52V630.52C-392.427 630.52 -609.803 637.01 -767.164 647.504C-845.841 652.751 -909.537 659 -953.576 665.944C-975.588 669.415 -992.731 673.065 -1004.39 676.864C-1010.21 678.762 -1014.73 680.715 -1017.8 682.736C-1020.83 684.723 -1022.74 686.962 -1022.74 689.5H-1020.74ZM-152.33 632.52C87.7371 632.52 305.067 639.01 462.372 649.5C541.028 654.745 604.654 660.99 648.605 667.919C670.587 671.385 687.605 675.016 699.11 678.766C704.869 680.643 709.187 682.531 712.046 684.408C714.956 686.319 716.083 688.036 716.083 689.5H718.083C718.083 686.962 716.17 684.723 713.144 682.736C710.066 680.715 705.552 678.762 699.73 676.864C688.072 673.065 670.929 669.415 648.916 665.944C604.877 659 541.181 652.751 462.505 647.504C305.143 637.01 87.7668 630.52 -152.33 630.52V632.52ZM716.083 689.5C716.083 689.691 715.969 690.058 715.316 690.596C714.677 691.122 713.659 691.692 712.214 692.285C709.335 693.469 704.993 694.656 699.22 695.834C687.69 698.186 670.651 700.46 648.662 702.63C604.696 706.969 541.057 710.878 462.396 714.161C305.081 720.728 87.7427 724.789 -152.33 724.789V726.789C87.7614 726.789 305.129 722.728 462.48 716.16C541.152 712.876 604.836 708.965 648.859 704.621C670.865 702.449 687.987 700.166 699.62 697.793C705.428 696.609 709.918 695.392 712.975 694.135C714.498 693.509 715.725 692.85 716.588 692.139C717.438 691.44 718.083 690.562 718.083 689.5H716.083ZM-152.33 724.789C-392.402 724.789 -609.741 720.728 -767.056 714.161C-845.716 710.878 -909.356 706.969 -953.322 702.63C-975.311 700.46 -992.35 698.186 -1003.88 695.834C-1009.65 694.656 -1013.99 693.469 -1016.87 692.285C-1018.32 691.692 -1019.34 691.122 -1019.98 690.596C-1020.63 690.058 -1020.74 689.691 -1020.74 689.5H-1022.74C-1022.74 690.562 -1022.1 691.44 -1021.25 692.139C-1020.38 692.85 -1019.16 693.509 -1017.63 694.135C-1014.58 695.392 -1010.09 696.609 -1004.28 697.793C-992.647 700.166 -975.525 702.449 -953.518 704.621C-909.496 708.965 -845.812 712.876 -767.14 716.16C-609.789 722.728 -392.421 726.789 -152.33 726.789V724.789ZM-1020.74 689.5C-1020.74 689.309 -1020.63 688.942 -1019.98 688.405C-1019.34 687.878 -1018.32 687.308 -1016.87 686.715C-1013.99 685.531 -1009.65 684.344 -1003.88 683.166C-992.35 680.814 -975.311 678.54 -953.322 676.37C-909.356 672.031 -845.716 668.122 -767.056 664.839C-609.741 658.272 -392.402 654.211 -152.33 654.211V652.211C-392.421 652.211 -609.789 656.273 -767.14 662.84C-845.812 666.124 -909.496 670.035 -953.518 674.379C-975.525 676.551 -992.647 678.834 -1004.28 681.207C-1010.09 682.391 -1014.58 683.608 -1017.63 684.865C-1019.16 685.491 -1020.38 686.15 -1021.25 686.861C-1022.1 687.56 -1022.74 688.438 -1022.74 689.5H-1020.74ZM-152.33 654.211C87.7427 654.211 305.081 658.272 462.396 664.839C541.057 668.122 604.696 672.031 648.662 676.37C670.651 678.54 687.69 680.814 699.22 683.166C704.993 684.344 709.335 685.531 712.214 686.715C713.659 687.308 714.677 687.878 715.316 688.405C715.969 688.942 716.083 689.309 716.083 689.5H718.083C718.083 688.438 717.438 687.56 716.588 686.861C715.725 686.15 714.498 685.491 712.975 684.865C709.918 683.608 705.428 682.391 699.62 681.207C687.987 678.834 670.865 676.551 648.859 674.379C604.836 670.035 541.152 666.124 462.48 662.84C305.129 656.273 87.7614 652.211 -152.33 652.211V654.211ZM716.083 689.5C716.083 689.092 716.377 688.957 716.247 689.043C716.167 689.096 715.982 689.188 715.638 689.302C714.962 689.526 713.902 689.763 712.432 690.006C709.505 690.49 705.122 690.971 699.338 691.446C687.778 692.394 670.715 693.31 648.721 694.183C604.738 695.93 541.085 697.502 462.421 698.823C305.096 701.465 87.7483 703.099 -152.33 703.099V705.099C87.7557 705.099 305.115 703.465 462.455 700.823C541.124 699.502 604.794 697.929 648.8 696.182C670.801 695.308 687.899 694.391 699.502 693.439C705.299 692.963 709.748 692.477 712.758 691.979C714.256 691.732 715.44 691.474 716.267 691.201C716.673 691.066 717.054 690.908 717.352 690.71C717.6 690.546 718.083 690.16 718.083 689.5H716.083ZM-152.33 703.099C-392.408 703.099 -609.755 701.465 -767.081 698.823C-845.745 697.502 -909.397 695.93 -953.381 694.183C-975.374 693.31 -992.438 692.394 -1004 691.446C-1009.78 690.971 -1014.16 690.49 -1017.09 690.006C-1018.56 689.763 -1019.62 689.526 -1020.3 689.302C-1020.64 689.188 -1020.83 689.096 -1020.91 689.043C-1021.04 688.957 -1020.74 689.092 -1020.74 689.5H-1022.74C-1022.74 690.16 -1022.26 690.546 -1022.01 690.71C-1021.71 690.908 -1021.33 691.066 -1020.93 691.201C-1020.1 691.474 -1018.92 691.732 -1017.42 691.979C-1014.41 692.477 -1009.96 692.963 -1004.16 693.439C-992.558 694.391 -975.461 695.308 -953.46 696.182C-909.454 697.929 -845.783 699.502 -767.115 700.823C-609.775 703.465 -392.415 705.099 -152.33 705.099V703.099ZM-1020.74 689.5C-1020.74 689.908 -1021.04 690.043 -1020.91 689.957C-1020.83 689.904 -1020.64 689.812 -1020.3 689.698C-1019.62 689.474 -1018.56 689.237 -1017.09 688.994C-1014.16 688.51 -1009.78 688.029 -1004 687.554C-992.438 686.606 -975.374 685.69 -953.381 684.817C-909.397 683.07 -845.745 681.498 -767.081 680.177C-609.755 677.535 -392.408 675.901 -152.33 675.901V673.901C-392.415 673.901 -609.775 675.535 -767.115 678.177C-845.783 679.498 -909.454 681.071 -953.46 682.818C-975.461 683.692 -992.558 684.609 -1004.16 685.561C-1009.96 686.037 -1014.41 686.523 -1017.42 687.021C-1018.92 687.268 -1020.1 687.526 -1020.93 687.799C-1021.33 687.934 -1021.71 688.092 -1022.01 688.29C-1022.26 688.454 -1022.74 688.84 -1022.74 689.5H-1020.74ZM-152.33 675.901C87.7483 675.901 305.096 677.535 462.421 680.177C541.085 681.498 604.738 683.07 648.721 684.817C670.715 685.69 687.778 686.606 699.338 687.554C705.122 688.029 709.505 688.51 712.432 688.994C713.902 689.237 714.962 689.474 715.638 689.698C715.982 689.812 716.167 689.904 716.247 689.957C716.377 690.043 716.083 689.908 716.083 689.5H718.083C718.083 688.84 717.6 688.454 717.352 688.29C717.054 688.092 716.673 687.934 716.267 687.799C715.44 687.526 714.256 687.268 712.758 687.021C709.748 686.523 705.299 686.037 699.502 685.561C687.899 684.609 670.801 683.692 648.8 682.818C604.794 681.071 541.124 679.498 462.455 678.177C305.115 675.535 87.7557 673.901 -152.33 673.901V675.901ZM2455.74 689.5C2455.74 1069.54 2067.17 1378 1587.33 1378V1380C2067.82 1380 2457.74 1071.06 2457.74 689.5H2455.74ZM1587.33 1378C1107.49 1378 718.917 1069.54 718.917 689.5H716.917C716.917 1071.06 1106.84 1380 1587.33 1380V1378ZM718.917 689.5C718.917 309.456 1107.49 1 1587.33 1V-1C1106.84 -1 716.917 307.944 716.917 689.5H718.917ZM1587.33 1C2067.17 1 2455.74 309.456 2455.74 689.5H2457.74C2457.74 307.944 2067.82 -1 1587.33 -1V1ZM2455.74 689.5C2455.74 816.921 2358.83 932.511 2201.63 1016.31C2044.47 1100.08 1827.28 1151.92 1587.33 1151.92V1153.92C1827.54 1153.92 2045.06 1102.02 2202.57 1018.07C2360.03 934.139 2457.74 818.02 2457.74 689.5H2455.74ZM1587.33 1151.92C1347.38 1151.92 1130.19 1100.08 973.033 1016.31C815.828 932.511 718.917 816.921 718.917 689.5H716.917C716.917 818.02 814.63 934.139 972.092 1018.07C1129.6 1102.02 1347.12 1153.92 1587.33 1153.92V1151.92ZM718.917 689.5C718.917 562.079 815.828 446.489 973.033 362.695C1130.19 278.923 1347.38 227.079 1587.33 227.079V225.079C1347.12 225.079 1129.6 276.975 972.092 360.93C814.63 444.861 716.917 560.981 716.917 689.5H718.917ZM1587.33 227.079C1827.28 227.079 2044.47 278.923 2201.63 362.695C2358.83 446.489 2455.74 562.079 2455.74 689.5H2457.74C2457.74 560.981 2360.03 444.861 2202.57 360.93C2045.06 276.975 1827.54 225.079 1587.33 225.079V227.079ZM2455.74 689.5C2455.74 741.519 2431.57 791.156 2387.7 836.391C2343.83 881.631 2280.29 922.417 2201.7 956.692C2044.52 1025.24 1827.31 1067.66 1587.33 1067.66V1069.66C1827.52 1069.66 2045.01 1027.21 2202.5 958.525C2281.24 924.185 2345.02 883.268 2389.14 837.783C2433.26 792.293 2457.74 742.183 2457.74 689.5H2455.74ZM1587.33 1067.66C1347.35 1067.66 1130.14 1025.24 972.962 956.692C894.371 922.417 830.833 881.631 786.958 836.391C743.087 791.156 718.917 741.519 718.917 689.5H716.917C716.917 742.183 741.404 792.293 785.522 837.783C829.636 883.268 893.421 924.185 972.162 958.525C1129.65 1027.21 1347.14 1069.66 1587.33 1069.66V1067.66ZM718.917 689.5C718.917 637.481 743.087 587.844 786.958 542.609C830.833 497.37 894.371 456.583 972.962 422.308C1130.14 353.76 1347.35 311.338 1587.33 311.338V309.338C1347.14 309.338 1129.65 351.793 972.162 420.475C893.421 454.815 829.636 495.732 785.522 541.217C741.404 586.707 716.917 636.817 716.917 689.5H718.917ZM1587.33 311.338C1827.31 311.338 2044.52 353.76 2201.7 422.308C2280.29 456.583 2343.83 497.37 2387.7 542.609C2431.57 587.844 2455.74 637.481 2455.74 689.5H2457.74C2457.74 636.817 2433.26 586.707 2389.14 541.217C2345.02 495.732 2281.24 454.815 2202.5 420.475C2045.01 351.793 1827.52 309.338 1587.33 309.338V311.338ZM2455.74 689.5C2455.74 735.717 2431.62 779.856 2387.74 820.114C2343.87 860.373 2280.33 896.674 2201.74 927.181C2044.55 988.193 1827.32 1025.95 1587.33 1025.95V1027.95C1827.5 1027.95 2044.98 990.167 2202.46 929.046C2281.19 898.486 2344.98 862.073 2389.1 821.588C2433.22 781.102 2457.74 736.467 2457.74 689.5H2455.74ZM1587.33 1025.95C1347.34 1025.95 1130.11 988.193 972.924 927.181C894.325 896.674 830.787 860.373 786.916 820.114C743.045 779.856 718.917 735.717 718.917 689.5H716.917C716.917 736.467 741.445 781.102 785.564 821.588C829.682 862.073 893.466 898.486 972.2 929.046C1129.68 990.167 1347.16 1027.95 1587.33 1027.95V1025.95ZM718.917 689.5C718.917 643.283 743.045 599.144 786.916 558.886C830.787 518.627 894.325 482.326 972.924 451.819C1130.11 390.807 1347.34 353.05 1587.33 353.05V351.05C1347.16 351.05 1129.68 388.833 972.2 449.954C893.466 480.514 829.682 516.927 785.564 557.412C741.445 597.898 716.917 642.533 716.917 689.5H718.917ZM1587.33 353.05C1827.32 353.05 2044.55 390.807 2201.74 451.819C2280.33 482.326 2343.87 518.627 2387.74 558.886C2431.62 599.144 2455.74 643.283 2455.74 689.5H2457.74C2457.74 642.533 2433.22 597.898 2389.1 557.412C2344.98 516.927 2281.19 480.514 2202.46 449.954C2044.98 388.833 1827.5 351.05 1587.33 351.05V353.05ZM2455.74 689.5C2455.74 730.253 2431.67 769.226 2387.79 804.812C2343.92 840.392 2280.38 872.477 2201.77 899.442C2044.57 953.369 1827.33 986.741 1587.33 986.741V988.741C1827.49 988.741 2044.96 955.35 2202.42 901.334C2281.15 874.328 2344.93 842.148 2389.05 806.366C2433.16 770.59 2457.74 731.104 2457.74 689.5H2455.74ZM1587.33 986.741C1347.33 986.741 1130.09 953.369 972.887 899.442C894.28 872.477 830.739 840.392 786.87 804.812C742.992 769.226 718.917 730.253 718.917 689.5H716.917C716.917 731.104 741.498 770.59 785.61 806.366C829.73 842.148 893.511 874.328 972.238 901.334C1129.7 955.35 1347.17 988.741 1587.33 988.741V986.741ZM718.917 689.5C718.917 648.747 742.992 609.774 786.87 574.188C830.739 538.608 894.28 506.523 972.887 479.558C1130.09 425.631 1347.33 392.259 1587.33 392.259V390.259C1347.17 390.259 1129.7 423.65 972.238 477.666C893.511 504.672 829.73 536.852 785.61 572.634C741.498 608.41 716.917 647.896 716.917 689.5H718.917ZM1587.33 392.259C1827.33 392.259 2044.57 425.631 2201.77 479.558C2280.38 506.523 2343.92 538.608 2387.79 574.188C2431.67 609.774 2455.74 648.747 2455.74 689.5H2457.74C2457.74 647.896 2433.16 608.41 2389.05 572.634C2344.93 536.852 2281.15 504.672 2202.42 477.666C2044.96 423.65 1827.49 390.259 1587.33 390.259V392.259ZM2455.74 689.5C2455.74 726.293 2431.72 761.531 2387.83 793.742C2343.96 825.938 2280.41 854.974 2201.8 879.377C2044.59 928.178 1827.34 958.377 1587.33 958.377V960.377C1827.48 960.377 2044.94 930.162 2202.39 881.287C2281.11 856.851 2344.89 827.734 2389.01 795.354C2433.11 762.99 2457.74 727.232 2457.74 689.5H2455.74ZM1587.33 958.377C1347.32 958.377 1130.07 928.178 972.859 879.377C894.246 854.974 830.701 825.938 786.831 793.742C742.941 761.531 718.917 726.293 718.917 689.5H716.917C716.917 727.232 741.549 762.99 785.648 795.354C829.768 827.734 893.545 856.851 972.266 881.287C1129.72 930.162 1347.18 960.377 1587.33 960.377V958.377ZM718.917 689.5C718.917 652.707 742.941 617.469 786.831 585.258C830.701 553.062 894.246 524.026 972.859 499.623C1130.07 450.822 1347.32 420.623 1587.33 420.623V418.623C1347.18 418.623 1129.72 448.838 972.266 497.713C893.545 522.149 829.768 551.266 785.648 583.646C741.549 616.01 716.917 651.769 716.917 689.5H718.917ZM1587.33 420.623C1827.34 420.623 2044.59 450.822 2201.8 499.623C2280.41 524.026 2343.96 553.062 2387.83 585.258C2431.72 617.469 2455.74 652.707 2455.74 689.5H2457.74C2457.74 651.769 2433.11 616.01 2389.01 583.646C2344.89 551.266 2281.11 522.149 2202.39 497.713C2044.94 448.838 1827.48 418.623 1587.33 418.623V420.623ZM2455.74 689.5C2455.74 723.143 2431.77 755.417 2387.86 784.951C2343.99 814.461 2280.44 841.076 2201.82 863.443C2044.6 908.173 1827.35 935.852 1587.33 935.852V937.852C1827.48 937.852 2044.93 910.16 2202.37 865.366C2281.09 842.971 2344.86 816.286 2388.98 786.61C2433.06 756.959 2457.74 724.162 2457.74 689.5H2455.74ZM1587.33 935.852C1347.31 935.852 1130.06 908.173 972.836 863.443C894.218 841.076 830.669 814.461 786.798 784.951C742.891 755.417 718.917 723.143 718.917 689.5H716.917C716.917 724.162 741.599 756.959 785.682 786.61C829.799 816.286 893.573 842.971 972.288 865.366C1129.73 910.16 1347.18 937.852 1587.33 937.852V935.852ZM718.917 689.5C718.917 655.857 742.891 623.583 786.798 594.049C830.669 564.539 894.218 537.924 972.836 515.557C1130.06 470.827 1347.31 443.148 1587.33 443.148V441.148C1347.18 441.148 1129.73 468.84 972.288 513.634C893.573 536.029 829.799 562.714 785.682 592.39C741.599 622.041 716.917 654.838 716.917 689.5H718.917ZM1587.33 443.148C1827.35 443.148 2044.6 470.827 2201.82 515.557C2280.44 537.924 2343.99 564.539 2387.86 594.049C2431.77 623.583 2455.74 655.857 2455.74 689.5H2457.74C2457.74 654.838 2433.06 622.041 2388.98 592.39C2344.86 562.714 2281.09 536.029 2202.37 513.634C2044.93 468.84 1827.48 441.148 1587.33 441.148V443.148ZM2455.74 689.5C2455.74 720.338 2431.82 749.98 2387.89 777.137C2344.02 804.26 2280.47 828.722 2201.85 849.28C2044.62 890.391 1827.35 915.831 1587.33 915.831V917.831C1827.47 917.831 2044.91 892.38 2202.35 851.215C2281.06 830.633 2344.83 806.11 2388.95 778.838C2433.01 751.6 2457.74 721.438 2457.74 689.5H2455.74ZM1587.33 915.831C1347.31 915.831 1130.04 890.391 972.815 849.28C894.193 828.722 830.64 804.26 786.766 777.137C742.836 749.98 718.917 720.338 718.917 689.5H716.917C716.917 721.438 741.654 751.6 785.714 778.838C829.829 806.11 893.598 830.633 972.309 851.215C1129.75 892.38 1347.19 917.831 1587.33 917.831V915.831ZM718.917 689.5C718.917 658.662 742.836 629.02 786.766 601.863C830.64 574.74 894.193 550.278 972.815 529.72C1130.04 488.609 1347.31 463.169 1587.33 463.169V461.169C1347.19 461.169 1129.75 486.62 972.309 527.786C893.598 548.367 829.829 572.89 785.714 600.162C741.654 627.4 716.917 657.562 716.917 689.5H718.917ZM1587.33 463.169C1827.35 463.169 2044.62 488.609 2201.85 529.72C2280.47 550.278 2344.02 574.74 2387.89 601.863C2431.82 629.02 2455.74 658.662 2455.74 689.5H2457.74C2457.74 657.562 2433.01 627.4 2388.95 600.162C2344.83 572.89 2281.06 548.367 2202.35 527.786C2044.91 486.62 1827.47 461.169 1587.33 461.169V463.169ZM2455.74 689.5C2455.74 703.214 2449.8 716.681 2438.33 729.781C2426.85 742.886 2409.88 755.575 2387.94 767.695C2344.06 791.934 2280.5 813.795 2201.87 832.166C2044.63 868.905 1827.36 891.638 1587.33 891.638V893.638C1827.47 893.638 2044.9 870.896 2202.33 834.114C2281.03 815.724 2344.79 793.813 2388.9 769.446C2410.96 757.262 2428.15 744.44 2439.83 731.098C2451.52 717.75 2457.74 703.833 2457.74 689.5H2455.74ZM1587.33 891.638C1347.3 891.638 1130.03 868.905 972.79 832.166C894.162 813.795 830.602 791.934 786.723 767.695C764.783 755.575 747.81 742.886 736.333 729.781C724.86 716.681 718.917 703.214 718.917 689.5H716.917C716.917 703.833 723.137 717.75 734.828 731.098C746.513 744.44 763.701 757.262 785.756 769.446C829.867 793.813 893.629 815.724 972.335 834.114C1129.76 870.896 1347.19 893.638 1587.33 893.638V891.638ZM718.917 689.5C718.917 675.786 724.86 662.319 736.333 649.22C747.81 636.114 764.783 623.425 786.723 611.305C830.602 587.066 894.162 565.205 972.79 546.834C1130.03 510.095 1347.3 487.362 1587.33 487.362V485.362C1347.19 485.362 1129.76 508.104 972.335 544.886C893.629 563.276 829.867 585.187 785.756 609.554C763.701 621.738 746.513 634.56 734.828 647.902C723.137 661.25 716.917 675.167 716.917 689.5H718.917ZM1587.33 487.362C1827.36 487.362 2044.63 510.095 2201.87 546.834C2280.5 565.205 2344.06 587.066 2387.94 611.305C2409.88 623.425 2426.85 636.114 2438.33 649.22C2449.8 662.319 2455.74 675.786 2455.74 689.5H2457.74C2457.74 675.167 2451.52 661.25 2439.83 647.902C2428.15 634.56 2410.96 621.738 2388.9 609.554C2344.79 585.187 2281.03 563.276 2202.33 544.886C2044.9 508.104 1827.47 485.362 1587.33 485.362V487.362ZM2455.74 689.5C2455.74 701.619 2449.84 713.555 2438.37 725.198C2426.9 736.845 2409.92 748.127 2387.98 758.905C2344.09 780.46 2280.53 799.898 2201.89 816.234C2044.65 848.901 1827.36 869.113 1587.33 869.113V871.113C1827.46 871.113 2044.88 850.894 2202.3 818.192C2281 801.842 2344.76 782.362 2388.86 760.7C2410.91 749.87 2428.1 738.47 2439.79 726.602C2451.49 714.73 2457.74 702.318 2457.74 689.5H2455.74ZM1587.33 869.113C1347.3 869.113 1130.01 848.901 972.766 816.234C894.133 799.898 830.566 780.46 786.681 758.905C764.736 748.127 747.765 736.845 736.293 725.198C724.824 713.555 718.917 701.619 718.917 689.5H716.917C716.917 702.318 723.174 714.73 734.868 726.602C746.559 738.47 763.749 749.87 785.799 760.7C829.903 782.362 893.658 801.842 972.359 818.192C1129.78 850.894 1347.2 871.113 1587.33 871.113V869.113ZM718.917 689.5C718.917 677.381 724.824 665.445 736.293 653.802C747.765 642.155 764.736 630.873 786.681 620.095C830.566 598.54 894.133 579.102 972.766 562.766C1130.01 530.099 1347.3 509.887 1587.33 509.887V507.887C1347.2 507.887 1129.78 528.106 972.359 560.808C893.658 577.158 829.903 596.638 785.799 618.3C763.749 629.13 746.559 640.53 734.868 652.398C723.174 664.27 716.917 676.682 716.917 689.5H718.917ZM1587.33 509.887C1827.36 509.887 2044.65 530.099 2201.89 562.766C2280.53 579.102 2344.09 598.54 2387.98 620.095C2409.92 630.873 2426.9 642.155 2438.37 653.802C2449.84 665.445 2455.74 677.381 2455.74 689.5H2457.74C2457.74 676.682 2451.49 664.27 2439.79 652.398C2428.1 640.53 2410.91 629.13 2388.86 618.3C2344.76 596.638 2281 577.158 2202.3 560.808C2044.88 528.106 1827.46 507.887 1587.33 507.887V509.887ZM2455.74 689.5C2455.74 700.133 2449.88 710.651 2438.41 720.953C2426.94 731.251 2409.97 741.232 2388.02 750.768C2344.13 769.836 2280.55 787.032 2201.92 801.482C2044.66 830.378 1827.37 848.257 1587.33 848.257V850.257C1827.45 850.257 2044.87 832.373 2202.28 803.449C2280.97 788.988 2344.72 771.759 2388.82 752.602C2410.86 743.025 2428.05 732.942 2439.75 722.441C2451.44 711.942 2457.74 700.925 2457.74 689.5H2455.74ZM1587.33 848.257C1347.29 848.257 1130 830.378 972.743 801.482C894.106 787.032 830.531 769.836 786.638 750.768C764.688 741.232 747.717 731.251 736.248 720.953C724.777 710.651 718.917 700.133 718.917 689.5H716.917C716.917 700.925 723.221 711.942 734.912 722.441C746.607 732.942 763.797 743.025 785.841 752.602C829.938 771.759 893.685 788.988 972.381 803.449C1129.79 832.373 1347.21 850.257 1587.33 850.257V848.257ZM718.917 689.5C718.917 678.867 724.777 668.349 736.248 658.047C747.717 647.749 764.688 637.768 786.638 628.233C830.531 609.164 894.106 591.968 972.743 577.518C1130 548.622 1347.29 530.743 1587.33 530.743V528.743C1347.21 528.743 1129.79 546.627 972.381 575.551C893.685 590.012 829.938 607.241 785.841 626.398C763.797 635.975 746.607 646.058 734.912 656.559C723.221 667.058 716.917 678.075 716.917 689.5H718.917ZM1587.33 530.743C1827.37 530.743 2044.66 548.622 2201.92 577.518C2280.55 591.968 2344.13 609.164 2388.02 628.233C2409.97 637.768 2426.94 647.749 2438.41 658.047C2449.88 668.349 2455.74 678.867 2455.74 689.5H2457.74C2457.74 678.075 2451.44 667.058 2439.75 656.559C2428.05 646.058 2410.86 635.975 2388.82 626.398C2344.72 607.241 2280.97 590.012 2202.28 575.551C2044.87 546.627 1827.45 528.743 1587.33 528.743V530.743ZM2455.74 689.5C2455.74 697.97 2449.99 706.454 2438.49 714.836C2427.02 723.198 2410.05 731.305 2388.09 739.052C2344.18 754.54 2280.59 768.506 2201.95 780.24C2044.68 803.706 1827.38 818.224 1587.33 818.224V820.224C1827.45 820.224 2044.85 805.703 2202.25 782.218C2280.94 770.477 2344.67 756.489 2388.75 740.938C2410.79 733.164 2427.97 724.98 2439.67 716.452C2451.34 707.945 2457.74 698.941 2457.74 689.5H2455.74ZM1587.33 818.224C1347.28 818.224 1129.98 803.706 972.71 780.24C894.067 768.506 830.478 754.54 786.572 739.052C764.613 731.305 747.637 723.198 736.169 714.836C724.674 706.454 718.917 697.97 718.917 689.5H716.917C716.917 698.941 723.324 707.945 734.991 716.452C746.686 724.98 763.871 733.164 785.907 740.938C829.99 756.489 893.725 770.477 972.415 782.218C1129.81 805.703 1347.21 820.224 1587.33 820.224V818.224ZM718.917 689.5C718.917 681.03 724.674 672.546 736.169 664.164C747.637 655.802 764.613 647.695 786.572 639.948C830.478 624.46 894.067 610.494 972.71 598.76C1129.98 575.294 1347.28 560.776 1587.33 560.776V558.776C1347.21 558.776 1129.81 573.297 972.415 596.782C893.725 608.523 829.99 622.511 785.907 638.062C763.871 645.836 746.686 654.02 734.991 662.548C723.324 671.055 716.917 680.059 716.917 689.5H718.917ZM1587.33 560.776C1827.38 560.776 2044.68 575.294 2201.95 598.76C2280.59 610.494 2344.18 624.46 2388.09 639.948C2410.05 647.695 2427.02 655.802 2438.49 664.164C2449.99 672.546 2455.74 681.03 2455.74 689.5H2457.74C2457.74 680.059 2451.34 671.055 2439.67 662.548C2427.97 654.02 2410.79 645.836 2388.75 638.062C2344.67 622.511 2280.94 608.523 2202.25 596.782C2044.85 573.297 1827.45 558.776 1587.33 558.776V560.776ZM2455.74 689.5C2455.74 692.243 2454.4 695.065 2451.54 697.968C2448.68 700.874 2444.37 703.786 2438.63 706.681C2427.15 712.468 2410.16 718.078 2388.18 723.436C2344.25 734.15 2280.65 743.806 2202 751.919C2044.71 768.144 1827.39 778.181 1587.33 778.181V780.181C1827.43 780.181 2044.82 770.142 2202.2 753.909C2280.88 745.793 2344.6 736.125 2388.66 725.379C2410.68 720.009 2427.85 714.356 2439.53 708.467C2445.37 705.523 2449.89 702.494 2452.97 699.371C2456.05 696.245 2457.74 692.948 2457.74 689.5H2455.74ZM1587.33 778.181C1347.27 778.181 1129.95 768.144 972.665 751.919C894.014 743.806 830.406 734.15 786.477 723.436C764.504 718.078 747.51 712.468 736.03 706.681C730.289 703.786 725.979 700.874 723.118 697.968C720.26 695.065 718.917 692.243 718.917 689.5H716.917C716.917 692.948 718.615 696.245 721.693 699.371C724.768 702.494 729.291 705.523 735.13 708.467C746.813 714.356 763.981 720.009 786.003 725.379C830.063 736.125 893.777 745.793 972.46 753.909C1129.84 770.142 1347.23 780.181 1587.33 780.181V778.181ZM718.917 689.5C718.917 686.757 720.26 683.935 723.118 681.032C725.979 678.126 730.289 675.214 736.03 672.319C747.51 666.532 764.504 660.922 786.477 655.564C830.406 644.85 894.014 635.194 972.665 627.081C1129.95 610.856 1347.27 600.819 1587.33 600.819V598.819C1347.23 598.819 1129.84 608.858 972.46 625.091C893.777 633.207 830.063 642.875 786.003 653.621C763.981 658.991 746.813 664.644 735.13 670.533C729.291 673.477 724.768 676.506 721.693 679.629C718.615 682.755 716.917 686.052 716.917 689.5H718.917ZM1587.33 600.819C1827.39 600.819 2044.71 610.856 2202 627.081C2280.65 635.194 2344.25 644.85 2388.18 655.564C2410.16 660.922 2427.15 666.532 2438.63 672.319C2444.37 675.214 2448.68 678.126 2451.54 681.032C2454.4 683.935 2455.74 686.757 2455.74 689.5H2457.74C2457.74 686.052 2456.05 682.755 2452.97 679.629C2449.89 676.506 2445.37 673.477 2439.53 670.533C2427.85 664.644 2410.68 658.991 2388.66 653.621C2344.6 642.875 2280.88 633.207 2202.2 625.091C2044.82 608.858 1827.43 598.819 1587.33 598.819V600.819ZM2455.74 689.5C2455.74 690.964 2454.62 692.681 2451.71 694.592C2448.85 696.469 2444.53 698.357 2438.77 700.234C2427.27 703.984 2410.25 707.615 2388.26 711.081C2344.31 718.01 2280.69 724.255 2202.03 729.5C2044.73 739.99 1827.4 746.48 1587.33 746.48V748.48C1827.43 748.48 2044.8 741.99 2202.16 731.496C2280.84 726.249 2344.54 720 2388.58 713.056C2410.59 709.586 2427.73 705.935 2439.39 702.136C2445.21 700.238 2449.73 698.285 2452.8 696.264C2455.83 694.277 2457.74 692.038 2457.74 689.5H2455.74ZM1587.33 746.48C1347.26 746.48 1129.93 739.99 972.629 729.5C893.972 724.255 830.346 718.01 786.396 711.081C764.413 707.615 747.395 703.984 735.89 700.234C730.131 698.357 725.813 696.469 722.954 694.592C720.044 692.681 718.917 690.964 718.917 689.5H716.917C716.917 692.038 718.831 694.277 721.857 696.264C724.935 698.285 729.448 700.238 735.271 702.136C746.928 705.935 764.072 709.586 786.084 713.056C830.123 720 893.819 726.249 972.496 731.496C1129.86 741.99 1347.23 748.48 1587.33 748.48V746.48ZM718.917 689.5C718.917 688.036 720.044 686.319 722.954 684.408C725.813 682.531 730.131 680.643 735.89 678.766C747.395 675.016 764.413 671.385 786.396 667.919C830.346 660.99 893.972 654.745 972.629 649.5C1129.93 639.01 1347.26 632.52 1587.33 632.52V630.52C1347.23 630.52 1129.86 637.01 972.496 647.504C893.819 652.751 830.123 659 786.084 665.944C764.072 669.415 746.928 673.065 735.271 676.864C729.448 678.762 724.935 680.715 721.857 682.736C718.831 684.723 716.917 686.962 716.917 689.5H718.917ZM1587.33 632.52C1827.4 632.52 2044.73 639.01 2202.03 649.5C2280.69 654.745 2344.31 660.99 2388.26 667.919C2410.25 671.385 2427.27 675.016 2438.77 678.766C2444.53 680.643 2448.85 682.531 2451.71 684.408C2454.62 686.319 2455.74 688.036 2455.74 689.5H2457.74C2457.74 686.962 2455.83 684.723 2452.8 682.736C2449.73 680.715 2445.21 678.762 2439.39 676.864C2427.73 673.065 2410.59 669.415 2388.58 665.944C2344.54 659 2280.84 652.751 2202.16 647.504C2044.8 637.01 1827.43 630.52 1587.33 630.52V632.52ZM2455.74 689.5C2455.74 689.691 2455.63 690.058 2454.98 690.596C2454.34 691.122 2453.32 691.692 2451.87 692.285C2448.99 693.469 2444.65 694.656 2438.88 695.834C2427.35 698.186 2410.31 700.46 2388.32 702.63C2344.36 706.969 2280.72 710.878 2202.06 714.161C2044.74 720.728 1827.4 724.789 1587.33 724.789V726.789C1827.42 726.789 2044.79 722.728 2202.14 716.16C2280.81 712.876 2344.5 708.965 2388.52 704.621C2410.53 702.449 2427.65 700.166 2439.28 697.793C2445.09 696.609 2449.58 695.392 2452.63 694.135C2454.16 693.509 2455.39 692.85 2456.25 692.139C2457.1 691.44 2457.74 690.562 2457.74 689.5H2455.74ZM1587.33 724.789C1347.26 724.789 1129.92 720.728 972.604 714.161C893.944 710.878 830.304 706.969 786.338 702.63C764.349 700.46 747.31 698.186 735.78 695.834C730.007 694.656 725.665 693.469 722.786 692.285C721.341 691.692 720.324 691.122 719.684 690.596C719.031 690.058 718.917 689.691 718.917 689.5H716.917C716.917 690.562 717.563 691.44 718.413 692.139C719.275 692.85 720.502 693.509 722.026 694.135C725.082 695.392 729.572 696.609 735.38 697.793C747.013 700.166 764.135 702.449 786.141 704.621C830.164 708.965 893.848 712.876 972.521 716.16C1129.87 722.728 1347.24 726.789 1587.33 726.789V724.789ZM718.917 689.5C718.917 689.309 719.031 688.942 719.684 688.405C720.324 687.878 721.341 687.308 722.786 686.715C725.665 685.531 730.007 684.344 735.78 683.166C747.31 680.814 764.349 678.54 786.338 676.37C830.304 672.031 893.944 668.122 972.604 664.839C1129.92 658.272 1347.26 654.211 1587.33 654.211V652.211C1347.24 652.211 1129.87 656.273 972.521 662.84C893.848 666.124 830.164 670.035 786.141 674.379C764.135 676.551 747.013 678.834 735.38 681.207C729.572 682.391 725.082 683.608 722.026 684.865C720.502 685.491 719.275 686.15 718.413 686.861C717.563 687.56 716.917 688.438 716.917 689.5H718.917ZM1587.33 654.211C1827.4 654.211 2044.74 658.272 2202.06 664.839C2280.72 668.122 2344.36 672.031 2388.32 676.37C2410.31 678.54 2427.35 680.814 2438.88 683.166C2444.65 684.344 2448.99 685.531 2451.87 686.715C2453.32 687.308 2454.34 687.878 2454.98 688.405C2455.63 688.942 2455.74 689.309 2455.74 689.5H2457.74C2457.74 688.438 2457.1 687.56 2456.25 686.861C2455.39 686.15 2454.16 685.491 2452.63 684.865C2449.58 683.608 2445.09 682.391 2439.28 681.207C2427.65 678.834 2410.53 676.551 2388.52 674.379C2344.5 670.035 2280.81 666.124 2202.14 662.84C2044.79 656.273 1827.42 652.211 1587.33 652.211V654.211ZM2455.74 689.5C2455.74 689.092 2456.04 688.957 2455.91 689.043C2455.83 689.096 2455.64 689.188 2455.3 689.302C2454.62 689.526 2453.56 689.763 2452.09 690.006C2449.17 690.49 2444.78 690.971 2439 691.446C2427.44 692.394 2410.37 693.31 2388.38 694.183C2344.4 695.93 2280.75 697.502 2202.08 698.823C2044.76 701.465 1827.41 703.099 1587.33 703.099V705.099C1827.42 705.099 2044.77 703.465 2202.11 700.823C2280.78 699.502 2344.45 697.929 2388.46 696.182C2410.46 695.308 2427.56 694.391 2439.16 693.439C2444.96 692.963 2449.41 692.477 2452.42 691.979C2453.92 691.732 2455.1 691.474 2455.93 691.201C2456.33 691.066 2456.71 690.908 2457.01 690.71C2457.26 690.546 2457.74 690.16 2457.74 689.5H2455.74ZM1587.33 703.099C1347.25 703.099 1129.9 701.465 972.579 698.823C893.915 697.502 830.263 695.93 786.279 694.183C764.286 693.31 747.222 692.394 735.662 691.446C729.878 690.971 725.495 690.49 722.569 690.006C721.098 689.763 720.038 689.526 719.363 689.302C719.018 689.188 718.833 689.096 718.753 689.043C718.623 688.957 718.917 689.092 718.917 689.5H716.917C716.917 690.16 717.401 690.546 717.648 690.71C717.947 690.908 718.327 691.066 718.734 691.201C719.561 691.474 720.745 691.732 722.242 691.979C725.252 692.477 729.701 692.963 735.499 693.439C747.102 694.391 764.199 695.308 786.2 696.182C830.206 697.929 893.876 699.502 972.545 700.823C1129.89 703.465 1347.24 705.099 1587.33 705.099V703.099ZM718.917 689.5C718.917 689.908 718.623 690.043 718.753 689.957C718.833 689.904 719.018 689.812 719.363 689.698C720.038 689.474 721.098 689.237 722.569 688.994C725.495 688.51 729.878 688.029 735.662 687.554C747.222 686.606 764.286 685.69 786.279 684.817C830.263 683.07 893.915 681.498 972.579 680.177C1129.9 677.535 1347.25 675.901 1587.33 675.901V673.901C1347.24 673.901 1129.89 675.535 972.545 678.177C893.876 679.498 830.206 681.071 786.2 682.818C764.199 683.692 747.102 684.609 735.499 685.561C729.701 686.037 725.252 686.523 722.242 687.021C720.745 687.268 719.561 687.526 718.734 687.799C718.327 687.934 717.947 688.092 717.648 688.29C717.401 688.454 716.917 688.84 716.917 689.5H718.917ZM1587.33 675.901C1827.41 675.901 2044.76 677.535 2202.08 680.177C2280.75 681.498 2344.4 683.07 2388.38 684.817C2410.37 685.69 2427.44 686.606 2439 687.554C2444.78 688.029 2449.17 688.51 2452.09 688.994C2453.56 689.237 2454.62 689.474 2455.3 689.698C2455.64 689.812 2455.83 689.904 2455.91 689.957C2456.04 690.043 2455.74 689.908 2455.74 689.5H2457.74C2457.74 688.84 2457.26 688.454 2457.01 688.29C2456.71 688.092 2456.33 687.934 2455.93 687.799C2455.1 687.526 2453.92 687.268 2452.42 687.021C2449.41 686.523 2444.96 686.037 2439.16 685.561C2427.56 684.609 2410.46 683.692 2388.46 682.818C2344.45 681.071 2280.78 679.498 2202.11 678.177C2044.77 675.535 1827.42 673.901 1587.33 673.901V675.901ZM1499.64 690.751C1499.64 1043.41 1149.85 1329.61 717.917 1329.61V1331.61C1150.56 1331.61 1501.64 1044.87 1501.64 690.751H1499.64ZM717.917 1329.61C285.986 1329.61 -63.805 1043.41 -63.805 690.751H-65.805C-65.805 1044.87 285.277 1331.61 717.917 1331.61V1329.61ZM-63.805 690.751C-63.805 338.096 285.986 51.8887 717.917 51.8887V49.8887C285.277 49.8887 -65.805 336.634 -65.805 690.751H-63.805ZM717.917 51.8887C1149.85 51.8887 1499.64 338.096 1499.64 690.751H1501.64C1501.64 336.634 1150.56 49.8887 717.917 49.8887V51.8887ZM1499.64 690.751C1499.64 814.872 1412.38 927.433 1270.89 1009.02C1129.42 1090.59 933.916 1141.08 717.917 1141.08V1143.08C934.203 1143.08 1130.06 1092.53 1271.88 1010.75C1413.68 928.992 1501.64 815.89 1501.64 690.751H1499.64ZM717.917 1141.08C501.917 1141.08 306.416 1090.59 164.948 1009.02C23.4545 927.433 -63.805 814.872 -63.805 690.751H-65.805C-65.805 815.89 22.1538 928.992 163.949 1010.75C305.772 1092.53 501.631 1143.08 717.917 1143.08V1141.08ZM-63.805 690.751C-63.805 566.631 23.4545 454.07 164.948 372.483C306.416 290.912 501.917 240.427 717.917 240.427V238.427C501.631 238.427 305.772 288.975 163.949 370.751C22.1538 452.511 -65.805 565.612 -65.805 690.751H-63.805ZM717.917 240.427C933.916 240.427 1129.42 290.912 1270.89 372.483C1412.38 454.07 1499.64 566.631 1499.64 690.751H1501.64C1501.64 565.612 1413.68 452.511 1271.88 370.751C1130.06 288.975 934.203 238.427 717.917 238.427V240.427ZM1499.64 690.751C1499.64 791.266 1412.53 882.573 1270.96 948.811C1129.48 1015.01 933.947 1055.98 717.917 1055.98V1057.98C934.172 1057.98 1130 1016.97 1271.81 950.622C1413.53 884.31 1501.64 792.501 1501.64 690.751H1499.64ZM717.917 1055.98C501.887 1055.98 306.357 1015.01 164.873 948.811C23.3077 882.573 -63.805 791.266 -63.805 690.751H-65.805C-65.805 792.501 22.3005 884.31 164.025 950.622C305.83 1016.97 501.661 1057.98 717.917 1057.98V1055.98ZM-63.805 690.751C-63.805 590.237 23.3077 498.93 164.873 432.692C306.357 366.492 501.887 325.52 717.917 325.52V323.52C501.661 323.52 305.83 364.531 164.025 430.881C22.3005 497.193 -65.805 589.001 -65.805 690.751H-63.805ZM717.917 325.52C933.947 325.52 1129.48 366.492 1270.96 432.692C1412.53 498.93 1499.64 590.237 1499.64 690.751H1501.64C1501.64 589.001 1413.53 497.193 1271.81 430.881C1130 364.531 934.172 323.52 717.917 323.52V325.52ZM1499.64 690.751C1499.64 735.092 1477.91 777.426 1438.43 816.029C1398.94 854.636 1341.75 889.449 1271 918.707C1129.51 977.222 933.961 1013.44 717.917 1013.44V1015.44C934.158 1015.44 1129.97 979.193 1271.77 920.556C1342.66 891.238 1400.1 856.303 1439.83 817.459C1479.56 778.612 1501.64 735.794 1501.64 690.751H1499.64ZM717.917 1013.44C501.872 1013.44 306.328 977.222 164.831 918.707C94.0806 889.449 36.8909 854.636 -2.59576 816.029C-42.079 777.426 -63.805 735.092 -63.805 690.751H-65.805C-65.805 735.794 -43.7264 778.612 -3.99396 817.459C35.7352 856.303 93.1725 891.238 164.067 920.556C305.86 979.193 501.676 1015.44 717.917 1015.44V1013.44ZM-63.805 690.751C-63.805 646.411 -42.079 604.077 -2.59576 565.473C36.8909 526.867 94.0806 492.053 164.831 462.795C306.328 404.281 501.872 368.066 717.917 368.066V366.066C501.676 366.066 305.86 402.31 164.067 460.947C93.1725 490.265 35.7352 525.2 -3.99396 564.043C-43.7264 602.89 -65.805 645.709 -65.805 690.751H-63.805ZM717.917 368.066C933.961 368.066 1129.51 404.281 1271 462.795C1341.75 492.053 1398.94 526.867 1438.43 565.473C1477.91 604.077 1499.64 646.411 1499.64 690.751H1501.64C1501.64 645.709 1479.56 602.89 1439.83 564.043C1400.1 525.2 1342.66 490.265 1271.77 460.947C1129.97 402.31 934.158 366.066 717.917 366.066V368.066ZM1499.64 690.751C1499.64 730.094 1477.96 767.699 1438.47 802.027C1398.99 836.352 1341.8 867.309 1271.04 893.327C1129.53 945.361 933.973 977.564 717.917 977.564V979.564C934.146 979.564 1129.95 947.339 1271.73 895.205C1342.62 869.139 1400.05 838.078 1439.78 803.536C1479.51 768.996 1501.64 730.887 1501.64 690.751H1499.64ZM717.917 977.564C501.86 977.564 306.302 945.361 164.794 893.327C94.036 867.309 36.8446 836.352 -2.63873 802.027C-42.1246 767.699 -63.805 730.094 -63.805 690.751H-65.805C-65.805 730.887 -43.6808 768.996 -3.95093 803.536C35.7814 838.078 93.217 869.139 164.104 895.205C305.885 947.339 501.688 979.564 717.917 979.564V977.564ZM-63.805 690.751C-63.805 651.409 -42.1246 613.804 -2.63873 579.476C36.8446 545.151 94.036 514.194 164.794 488.175C306.302 436.142 501.86 403.938 717.917 403.938V401.938C501.688 401.938 305.885 434.164 164.104 486.298C93.217 512.364 35.7814 543.425 -3.95093 577.967C-43.6808 612.506 -65.805 650.616 -65.805 690.751H-63.805ZM717.917 403.938C933.973 403.938 1129.53 436.142 1271.04 488.175C1341.8 514.194 1398.99 545.151 1438.47 579.476C1477.96 613.804 1499.64 651.409 1499.64 690.751H1501.64C1501.64 650.616 1479.51 612.506 1439.78 577.967C1400.05 543.425 1342.62 512.364 1271.73 486.298C1129.95 434.164 934.146 401.938 717.917 401.938V403.938ZM1499.64 690.751C1499.64 726.367 1478 760.455 1438.51 791.605C1399.03 822.746 1341.83 850.834 1271.07 874.441C1129.55 921.651 933.982 950.869 717.917 950.869V952.869C934.137 952.869 1129.93 923.633 1271.7 876.338C1342.58 852.692 1400.01 824.514 1439.75 793.175C1479.47 761.846 1501.64 727.242 1501.64 690.751H1499.64ZM717.917 950.869C501.852 950.869 306.283 921.651 164.765 874.441C94.0012 850.834 36.807 822.746 -2.6756 791.605C-42.1694 760.455 -63.805 726.367 -63.805 690.751H-65.805C-65.805 727.242 -43.6361 761.846 -3.91412 793.175C35.819 824.514 93.2518 852.692 164.132 876.338C305.904 923.633 501.697 952.869 717.917 952.869V950.869ZM-63.805 690.751C-63.805 655.136 -42.1694 621.048 -2.6756 589.898C36.807 558.757 94.0012 530.669 164.765 507.062C306.283 459.852 501.852 430.634 717.917 430.634V428.634C501.697 428.634 305.904 457.87 164.132 505.165C93.2518 528.811 35.819 556.989 -3.91412 588.328C-43.6361 619.657 -65.805 654.261 -65.805 690.751H-63.805ZM717.917 430.634C933.982 430.634 1129.55 459.852 1271.07 507.062C1341.83 530.669 1399.03 558.757 1438.51 589.898C1478 621.048 1499.64 655.136 1499.64 690.751H1501.64C1501.64 654.261 1479.47 619.657 1439.75 588.328C1400.01 556.989 1342.58 528.811 1271.7 505.165C1129.93 457.87 934.137 428.634 717.917 428.634V430.634ZM1499.64 690.751C1499.64 723.567 1478.05 755.019 1438.54 783.788C1399.06 812.542 1341.86 838.478 1271.09 860.276C1129.57 903.869 933.988 930.847 717.917 930.847V932.847C934.131 932.847 1129.92 905.854 1271.68 862.187C1342.56 840.356 1399.98 814.34 1439.72 785.405C1479.43 756.486 1501.64 724.513 1501.64 690.751H1499.64ZM717.917 930.847C501.845 930.847 306.269 903.869 164.743 860.276C93.9744 838.478 36.7771 812.542 -2.70618 783.788C-42.2111 755.019 -63.805 723.567 -63.805 690.751H-65.805C-65.805 724.513 -43.5944 756.486 -3.88354 785.405C35.849 814.34 93.2787 840.356 164.155 862.187C305.919 905.854 501.703 932.847 717.917 932.847V930.847ZM-63.805 690.751C-63.805 657.936 -42.2111 626.484 -2.70618 597.714C36.7771 568.961 93.9744 543.025 164.743 521.227C306.269 477.634 501.845 450.656 717.917 450.656V448.656C501.703 448.656 305.919 475.649 164.155 519.315C93.2787 541.147 35.849 567.163 -3.88354 596.098C-43.5944 625.017 -65.805 656.99 -65.805 690.751H-63.805ZM717.917 450.656C933.988 450.656 1129.57 477.634 1271.09 521.227C1341.86 543.025 1399.06 568.961 1438.54 597.714C1478.05 626.484 1499.64 657.936 1499.64 690.751H1501.64C1501.64 656.99 1479.43 625.017 1439.72 596.098C1399.98 567.163 1342.56 541.147 1271.68 519.315C1129.92 475.649 934.131 448.656 717.917 448.656V450.656ZM1499.64 690.751C1499.64 721.23 1478.09 750.487 1438.57 777.274C1399.08 804.039 1341.88 828.181 1271.11 848.472C1129.58 889.051 933.994 914.162 717.917 914.162V916.162C934.126 916.162 1129.9 891.038 1271.66 850.395C1342.53 830.076 1399.96 805.862 1439.69 778.93C1479.39 752.021 1501.64 722.242 1501.64 690.751H1499.64ZM717.917 914.162C501.84 914.162 306.257 889.051 164.724 848.472C93.9515 828.181 36.7509 804.039 -2.73376 777.274C-42.2526 750.487 -63.805 721.23 -63.805 690.751H-65.805C-65.805 722.242 -43.5529 752.021 -3.85596 778.93C35.8752 805.862 93.3015 830.076 164.173 850.395C305.931 891.038 501.708 916.162 717.917 916.162V914.162ZM-63.805 690.751C-63.805 660.273 -42.2526 631.016 -2.73376 604.228C36.7509 577.464 93.9515 553.321 164.724 533.03C306.257 492.452 501.84 467.341 717.917 467.341V465.341C501.708 465.341 305.931 490.465 164.173 531.108C93.3015 551.427 35.8752 575.641 -3.85596 602.573C-43.5529 629.481 -65.805 659.261 -65.805 690.751H-63.805ZM717.917 467.341C933.994 467.341 1129.58 492.452 1271.11 533.03C1341.88 553.321 1399.08 577.464 1438.57 604.228C1478.09 631.016 1499.64 660.273 1499.64 690.751H1501.64C1501.64 659.261 1479.39 629.481 1439.69 602.573C1399.96 575.641 1342.53 551.427 1271.66 531.108C1129.9 490.465 934.126 465.341 717.917 465.341V467.341ZM1499.64 690.751C1499.64 719.124 1478.13 746.406 1438.59 771.412C1399.11 796.387 1341.9 818.915 1271.13 837.85C1129.59 875.714 933.998 899.146 717.917 899.146V901.146C934.121 901.146 1129.89 877.703 1271.64 839.782C1342.51 820.823 1399.93 798.231 1439.66 773.102C1479.34 748.005 1501.64 720.202 1501.64 690.751H1499.64ZM717.917 899.146C501.836 899.146 306.246 875.714 164.707 837.85C93.9307 818.915 36.7263 796.387 -2.76031 771.412C-42.2961 746.406 -63.805 719.124 -63.805 690.751H-65.805C-65.805 720.202 -43.5093 748.005 -3.82941 773.102C35.8998 798.231 93.3224 820.823 164.191 839.782C305.941 877.703 501.713 901.146 717.917 901.146V899.146ZM-63.805 690.751C-63.805 662.379 -42.2961 635.097 -2.76031 610.091C36.7263 585.116 93.9307 562.587 164.707 543.653C306.246 505.789 501.836 482.357 717.917 482.357V480.357C501.713 480.357 305.941 503.8 164.191 541.721C93.3224 560.68 35.8998 583.272 -3.82941 608.4C-43.5093 633.498 -65.805 661.301 -65.805 690.751H-63.805ZM717.917 482.357C933.998 482.357 1129.59 505.789 1271.13 543.653C1341.9 562.587 1399.11 585.116 1438.59 610.091C1478.13 635.097 1499.64 662.379 1499.64 690.751H1501.64C1501.64 661.301 1479.34 633.498 1439.66 608.4C1399.93 583.272 1342.51 560.68 1271.64 541.721C1129.89 503.8 934.121 480.357 717.917 480.357V482.357ZM1499.64 690.751C1499.64 715.958 1478.21 740.282 1438.64 762.619C1399.15 784.91 1341.93 805.017 1271.15 821.916C1129.6 855.71 934.005 876.621 717.917 876.621V878.621C934.114 878.621 1129.88 857.701 1271.62 823.861C1342.48 806.943 1399.9 786.783 1439.62 764.36C1479.26 741.983 1501.64 717.147 1501.64 690.751H1499.64ZM717.917 876.621C501.829 876.621 306.23 855.71 164.681 821.916C93.8989 805.017 36.6879 784.91 -2.80328 762.619C-42.3752 740.282 -63.805 715.958 -63.805 690.751H-65.805C-65.805 717.147 -43.4303 741.983 -3.78638 764.36C35.9381 786.783 93.3541 806.943 164.217 823.861C305.958 857.701 501.72 878.621 717.917 878.621V876.621ZM-63.805 690.751C-63.805 665.545 -42.3752 641.221 -2.80328 618.884C36.6879 596.593 93.8989 576.486 164.681 559.587C306.23 525.793 501.829 504.881 717.917 504.881V502.881C501.72 502.881 305.958 523.802 164.217 557.642C93.3541 574.56 35.9381 594.72 -3.78638 617.142C-43.4303 639.519 -65.805 664.355 -65.805 690.751H-63.805ZM717.917 504.881C934.005 504.881 1129.6 525.793 1271.15 559.587C1341.93 576.486 1399.15 596.593 1438.64 618.884C1478.21 641.221 1499.64 665.545 1499.64 690.751H1501.64C1501.64 664.355 1479.26 639.519 1439.62 617.142C1399.9 594.72 1342.48 574.56 1271.62 557.642C1129.88 523.802 934.114 502.881 717.917 502.881V504.881ZM1499.64 690.751C1499.64 702.226 1494.32 713.521 1484.01 724.534C1473.69 735.553 1458.42 746.229 1438.67 756.431C1399.17 776.834 1341.96 795.237 1271.17 810.703C1129.62 841.632 934.01 860.771 717.917 860.771V862.771C934.109 862.771 1129.86 843.625 1271.6 812.657C1342.46 797.175 1399.87 778.727 1439.59 758.208C1459.45 747.95 1474.93 737.149 1485.47 725.901C1496.01 714.649 1501.64 702.89 1501.64 690.751H1499.64ZM717.917 860.771C501.824 860.771 306.218 841.632 164.662 810.703C93.8762 795.237 36.6598 776.834 -2.83588 756.431C-22.585 746.229 -37.8536 735.553 -48.173 724.534C-58.4879 713.521 -63.805 702.226 -63.805 690.751H-65.805C-65.805 702.89 -60.171 714.649 -49.6328 725.901C-39.0991 737.149 -23.6126 747.95 -3.75378 758.208C35.9663 778.727 93.3768 797.175 164.235 812.657C305.969 843.625 501.725 862.771 717.917 862.771V860.771ZM-63.805 690.751C-63.805 679.277 -58.4879 667.982 -48.173 656.969C-37.8536 645.95 -22.585 635.273 -2.83588 625.071C36.6598 604.669 93.8762 586.266 164.662 570.799C306.218 539.87 501.824 520.732 717.917 520.732V518.732C501.725 518.732 305.969 537.878 164.235 568.845C93.3768 584.328 35.9663 602.776 -3.75378 623.294C-23.6126 633.553 -39.0991 644.354 -49.6328 655.601C-60.171 666.854 -65.805 678.613 -65.805 690.751H-63.805ZM717.917 520.732C934.01 520.732 1129.62 539.87 1271.17 570.799C1341.96 586.266 1399.17 604.669 1438.67 625.071C1458.42 635.273 1473.69 645.95 1484.01 656.969C1494.32 667.982 1499.64 679.277 1499.64 690.751H1501.64C1501.64 678.613 1496.01 666.854 1485.47 655.601C1474.93 644.354 1459.45 633.553 1439.59 623.294C1399.87 602.776 1342.46 584.328 1271.6 568.845C1129.86 537.878 934.109 518.732 717.917 518.732V520.732ZM1499.64 690.751C1499.64 701.097 1494.36 711.313 1484.04 721.305C1473.73 731.299 1458.46 740.986 1438.7 750.245C1399.2 768.759 1341.98 785.458 1271.19 799.491C1129.63 827.555 934.015 844.92 717.917 844.92V846.92C934.104 846.92 1129.85 829.549 1271.58 801.453C1342.43 787.407 1399.84 770.67 1439.55 752.056C1459.41 742.75 1474.89 732.95 1485.43 722.742C1495.97 712.532 1501.64 701.831 1501.64 690.751H1499.64ZM717.917 844.92C501.819 844.92 306.207 827.555 164.643 799.491C93.8534 785.458 36.6307 768.759 -2.87048 750.245C-22.6237 740.986 -37.8915 731.299 -48.2071 721.305C-58.5214 711.313 -63.805 701.097 -63.805 690.751H-65.805C-65.805 701.831 -60.1376 712.532 -49.5987 722.742C-39.0611 732.95 -23.5739 742.75 -3.71924 752.056C35.9954 770.67 93.3997 787.407 164.255 801.453C305.981 829.549 501.729 846.92 717.917 846.92V844.92ZM-63.805 690.751C-63.805 680.406 -58.5214 670.19 -48.2071 660.198C-37.8915 650.204 -22.6237 640.516 -2.87048 631.258C36.6307 612.744 93.8534 596.045 164.643 582.011C306.207 553.948 501.819 536.583 717.917 536.583V534.583C501.729 534.583 305.981 551.953 164.255 580.05C93.3997 594.096 35.9954 610.833 -3.71924 629.447C-23.5739 638.753 -39.0611 648.553 -49.5987 658.761C-60.1376 668.971 -65.805 679.672 -65.805 690.751H-63.805ZM717.917 536.583C934.015 536.583 1129.63 553.948 1271.19 582.011C1341.98 596.045 1399.2 612.744 1438.7 631.258C1458.46 640.516 1473.73 650.204 1484.04 660.198C1494.36 670.19 1499.64 680.406 1499.64 690.751H1501.64C1501.64 679.672 1495.97 668.971 1485.43 658.761C1474.89 648.553 1459.41 638.753 1439.55 629.447C1399.84 610.833 1342.43 594.096 1271.58 580.05C1129.85 551.953 934.104 534.583 717.917 534.583V536.583ZM1499.64 690.751C1499.64 699.84 1494.4 708.865 1484.09 717.734C1473.77 726.597 1458.5 735.192 1438.74 743.407C1399.24 759.834 1342.01 774.65 1271.21 787.1C1129.64 811.996 934.02 827.401 717.917 827.401V829.401C934.099 829.401 1129.84 813.992 1271.56 789.069C1342.41 776.609 1399.81 761.764 1439.51 745.254C1459.36 737.001 1474.85 728.309 1485.39 719.251C1495.92 710.198 1501.64 700.668 1501.64 690.751H1499.64ZM717.917 827.401C501.814 827.401 306.194 811.996 164.622 787.1C93.828 774.65 36.5977 759.834 -2.91095 743.407C-22.6695 735.192 -37.9384 726.597 -48.2511 717.734C-58.5707 708.865 -63.805 699.84 -63.805 690.751H-65.805C-65.805 700.668 -60.0881 710.198 -49.5547 719.251C-39.0143 728.309 -23.5281 737.001 -3.67877 745.254C36.0284 761.764 93.425 776.609 164.276 789.069C305.993 813.992 501.734 829.401 717.917 829.401V827.401ZM-63.805 690.751C-63.805 681.663 -58.5707 672.637 -48.2511 663.769C-37.9384 654.906 -22.6695 646.31 -2.91095 638.095C36.5977 621.668 93.828 606.853 164.622 594.403C306.194 569.506 501.814 554.102 717.917 554.102V552.102C501.734 552.102 305.993 567.511 164.276 592.433C93.425 604.893 36.0284 619.739 -3.67877 636.249C-23.5281 644.501 -39.0143 653.193 -49.5547 662.252C-60.0881 671.304 -65.805 680.834 -65.805 690.751H-63.805ZM717.917 554.102C934.02 554.102 1129.64 569.506 1271.21 594.403C1342.01 606.853 1399.24 621.668 1438.74 638.095C1458.5 646.31 1473.77 654.906 1484.09 663.769C1494.4 672.637 1499.64 681.663 1499.64 690.751H1501.64C1501.64 680.834 1495.92 671.304 1485.39 662.252C1474.85 653.193 1459.36 644.501 1439.51 636.249C1399.81 619.739 1342.41 604.893 1271.56 592.433C1129.84 567.511 934.099 552.102 717.917 552.102V554.102ZM1499.64 690.751C1499.64 698.268 1494.49 705.824 1484.15 713.311C1473.84 720.778 1458.56 728.021 1438.8 734.944C1399.28 748.787 1342.04 761.269 1271.24 771.758C1129.66 792.733 934.026 805.711 717.917 805.711V807.711C934.093 807.711 1129.82 794.73 1271.53 773.736C1342.38 763.241 1399.76 750.736 1439.46 736.832C1459.3 729.882 1474.78 722.562 1485.32 714.931C1495.83 707.322 1501.64 699.245 1501.64 690.751H1499.64ZM717.917 805.711C501.807 805.711 306.178 792.733 164.595 771.758C93.7964 761.269 36.5553 748.787 -2.96429 734.944C-22.7303 728.021 -38.0037 720.778 -48.3165 713.311C-58.6588 705.824 -63.805 698.268 -63.805 690.751H-65.805C-65.805 699.245 -60.0001 707.322 -49.4893 714.931C-38.9489 722.562 -23.4673 729.882 -3.62543 736.832C36.0707 750.736 93.4567 763.241 164.302 773.736C306.009 794.73 501.741 807.711 717.917 807.711V805.711ZM-63.805 690.751C-63.805 683.235 -58.6588 675.679 -48.3165 668.192C-38.0037 660.725 -22.7303 653.482 -2.96429 646.558C36.5553 632.716 93.7964 620.234 164.595 609.745C306.178 588.769 501.807 575.792 717.917 575.792V573.792C501.741 573.792 306.009 586.773 164.302 607.766C93.4567 618.262 36.0707 630.767 -3.62543 644.671C-23.4673 651.621 -38.9489 658.94 -49.4893 666.571C-60.0001 674.181 -65.805 682.257 -65.805 690.751H-63.805ZM717.917 575.792C934.026 575.792 1129.66 588.769 1271.24 609.745C1342.04 620.234 1399.28 632.716 1438.8 646.558C1458.56 653.482 1473.84 660.725 1484.15 668.192C1494.49 675.679 1499.64 683.235 1499.64 690.751H1501.64C1501.64 682.257 1495.83 674.181 1485.32 666.571C1474.78 658.94 1459.3 651.621 1439.46 644.671C1399.76 630.767 1342.38 618.262 1271.53 607.766C1129.82 586.773 934.093 573.792 717.917 573.792V575.792ZM1499.64 690.751C1499.64 696.796 1494.61 703.004 1484.22 709.228C1473.91 715.408 1458.62 721.404 1438.85 727.134C1399.32 738.59 1342.07 748.919 1271.26 757.597C1129.67 774.952 934.032 785.689 717.917 785.689V787.689C934.087 787.689 1129.81 776.95 1271.51 759.582C1342.35 750.899 1399.72 740.555 1439.41 729.055C1459.24 723.307 1474.71 717.255 1485.25 710.944C1495.71 704.678 1501.64 697.953 1501.64 690.751H1499.64ZM717.917 785.689C501.802 785.689 306.164 774.952 164.571 757.597C93.7671 748.919 36.5153 738.59 -3.01654 727.134C-22.79 721.404 -38.0715 715.408 -48.389 709.228C-58.7806 703.004 -63.805 696.796 -63.805 690.751H-65.805C-65.805 697.953 -59.8782 704.678 -49.4167 710.944C-38.8811 717.255 -23.4077 723.307 -3.57318 729.055C36.1108 740.555 93.486 750.899 164.327 759.582C306.024 776.95 501.747 787.689 717.917 787.689V785.689ZM-63.805 690.751C-63.805 684.707 -58.7806 678.499 -48.389 672.274C-38.0715 666.094 -22.79 660.099 -3.01654 654.369C36.5153 642.913 93.7671 632.584 164.571 623.906C306.164 606.551 501.802 595.814 717.917 595.814V593.814C501.747 593.814 306.024 604.553 164.327 621.921C93.486 630.604 36.1108 640.948 -3.57318 652.448C-23.4077 658.195 -38.8811 664.248 -49.4167 670.559C-59.8782 676.825 -65.805 683.55 -65.805 690.751H-63.805ZM717.917 595.814C934.032 595.814 1129.67 606.551 1271.26 623.906C1342.07 632.584 1399.32 642.913 1438.85 654.369C1458.62 660.099 1473.91 666.094 1484.22 672.274C1494.61 678.499 1499.64 684.707 1499.64 690.751H1501.64C1501.64 683.55 1495.71 676.825 1485.25 670.559C1474.71 664.248 1459.24 658.195 1439.41 652.448C1399.72 640.948 1342.35 630.604 1271.51 621.921C1129.81 604.553 934.087 593.814 717.917 593.814V595.814ZM1499.64 690.751C1499.64 693.128 1498.45 695.592 1495.89 698.146C1493.33 700.703 1489.46 703.271 1484.29 705.827C1473.97 710.937 1458.68 715.893 1438.9 720.628C1399.35 730.094 1342.09 738.627 1271.28 745.797C1129.68 760.134 934.037 769.004 717.917 769.004V771.004C934.082 771.004 1129.8 762.133 1271.49 747.787C1342.32 740.614 1399.69 732.07 1439.36 722.573C1459.19 717.826 1474.65 712.829 1485.18 707.62C1490.44 705.016 1494.52 702.334 1497.3 699.563C1500.09 696.789 1501.64 693.846 1501.64 690.751H1499.64ZM717.917 769.004C501.797 769.004 306.152 760.134 164.55 745.797C93.7426 738.627 36.481 730.094 -3.06201 720.628C-22.8417 715.893 -38.1334 710.937 -48.4594 705.827C-53.6246 703.271 -57.4934 700.703 -60.0579 698.146C-62.6203 695.592 -63.805 693.128 -63.805 690.751H-65.805C-65.805 693.846 -64.252 696.789 -61.47 699.563C-58.69 702.334 -54.6077 705.016 -49.3464 707.62C-38.8192 712.829 -23.356 717.826 -3.52765 722.573C36.145 732.07 93.5104 740.614 164.348 747.787C306.036 762.133 501.752 771.004 717.917 771.004V769.004ZM-63.805 690.751C-63.805 688.375 -62.6203 685.911 -60.0579 683.356C-57.4934 680.8 -53.6246 678.231 -48.4594 675.675C-38.1334 670.566 -22.8417 665.61 -3.06201 660.875C36.481 651.409 93.7426 642.875 164.55 635.706C306.152 621.368 501.797 612.498 717.917 612.498V610.498C501.752 610.498 306.036 619.37 164.348 633.716C93.5104 640.889 36.145 649.433 -3.52765 658.93C-23.356 663.677 -38.8192 668.674 -49.3464 673.883C-54.6077 676.486 -58.69 679.168 -61.47 681.94C-64.252 684.714 -65.805 687.657 -65.805 690.751H-63.805ZM717.917 612.498C934.037 612.498 1129.68 621.368 1271.28 635.706C1342.09 642.875 1399.35 651.409 1438.9 660.875C1458.68 665.61 1473.97 670.566 1484.29 675.675C1489.46 678.231 1493.33 680.8 1495.89 683.356C1498.45 685.911 1499.64 688.375 1499.64 690.751H1501.64C1501.64 687.657 1500.09 684.714 1497.3 681.94C1494.52 679.168 1490.44 676.486 1485.18 673.883C1474.65 668.674 1459.19 663.677 1439.36 658.93C1399.69 649.433 1342.32 640.889 1271.49 633.716C1129.8 619.37 934.082 610.498 717.917 610.498V612.498ZM1499.64 690.751C1499.64 692.317 1498.59 694.078 1496 696.006C1493.44 697.913 1489.57 699.836 1484.39 701.751C1474.05 705.575 1458.74 709.282 1438.95 712.822C1399.39 719.9 1342.12 726.278 1271.31 731.637C1129.7 742.353 934.043 748.982 717.917 748.982V750.982C934.077 750.982 1129.78 744.352 1271.46 733.631C1342.29 728.271 1399.65 721.886 1439.3 714.791C1459.13 711.245 1474.57 707.513 1485.08 703.626C1490.33 701.685 1494.41 699.684 1497.2 697.609C1499.95 695.554 1501.64 693.275 1501.64 690.751H1499.64ZM717.917 748.982C501.791 748.982 306.137 742.353 164.524 731.637C93.7133 726.278 36.4393 719.9 -3.11871 712.822C-22.9054 709.282 -38.2136 705.575 -48.556 701.751C-53.7332 699.836 -57.606 697.913 -60.1664 696.006C-62.7531 694.078 -63.805 692.317 -63.805 690.751H-65.805C-65.805 693.275 -64.1191 695.554 -61.3614 697.609C-58.5774 699.684 -54.4992 701.685 -49.2498 703.626C-38.7391 707.513 -23.2922 711.245 -3.47095 714.791C36.1868 721.886 93.5398 728.271 164.373 733.631C306.051 744.352 501.757 750.982 717.917 750.982V748.982ZM-63.805 690.751C-63.805 689.185 -62.7531 687.425 -60.1664 685.497C-57.606 683.589 -53.7332 681.667 -48.556 679.752C-38.2136 675.927 -22.9054 672.22 -3.11871 668.68C36.4393 661.603 93.7133 655.224 164.524 649.866C306.137 639.15 501.791 632.52 717.917 632.52V630.52C501.757 630.52 306.051 637.15 164.373 647.872C93.5398 653.232 36.1868 659.616 -3.47095 666.712C-23.2922 670.258 -38.7391 673.989 -49.2498 677.876C-54.4992 679.818 -58.5774 681.819 -61.3614 683.893C-64.1191 685.948 -65.805 688.228 -65.805 690.751H-63.805ZM717.917 632.52C934.043 632.52 1129.7 639.15 1271.31 649.866C1342.12 655.224 1399.39 661.603 1438.95 668.68C1458.74 672.22 1474.05 675.927 1484.39 679.752C1489.57 681.667 1493.44 683.589 1496 685.497C1498.59 687.425 1499.64 689.185 1499.64 690.751H1501.64C1501.64 688.228 1499.95 685.948 1497.2 683.893C1494.41 681.819 1490.33 679.818 1485.08 677.876C1474.57 673.989 1459.13 670.258 1439.3 666.712C1399.65 659.616 1342.29 653.232 1271.46 647.872C1129.78 637.15 934.077 630.52 717.917 630.52V632.52ZM1499.64 690.751C1499.64 691.152 1499.46 691.65 1498.89 692.259C1498.32 692.872 1497.41 693.531 1496.13 694.22C1493.56 695.595 1489.67 696.981 1484.48 698.359C1474.12 701.112 1458.79 703.777 1439 706.32C1399.43 711.406 1342.15 715.988 1271.33 719.838C1129.71 727.536 934.047 732.298 717.917 732.298V734.298C934.072 734.298 1129.77 729.535 1271.44 721.835C1342.27 717.985 1399.61 713.399 1439.26 708.304C1459.07 705.758 1474.5 703.079 1484.99 700.292C1490.23 698.901 1494.3 697.468 1497.07 695.983C1498.46 695.241 1499.57 694.46 1500.35 693.623C1501.14 692.781 1501.64 691.819 1501.64 690.751H1499.64ZM717.917 732.298C501.786 732.298 306.125 727.536 164.503 719.838C93.6888 715.988 36.4041 711.406 -3.16736 706.32C-22.9595 703.777 -38.2847 701.112 -48.6462 698.359C-53.8348 696.981 -57.7222 695.595 -60.292 694.22C-61.5781 693.531 -62.4832 692.872 -63.0552 692.259C-63.6229 691.65 -63.805 691.152 -63.805 690.751H-65.805C-65.805 691.819 -65.3027 692.781 -64.5179 693.623C-63.7375 694.46 -62.6219 695.241 -61.2358 695.983C-58.4612 697.468 -54.3975 698.901 -49.1596 700.292C-38.668 703.079 -23.2381 705.758 -3.4223 708.304C36.222 713.399 93.5642 717.985 164.395 721.835C306.063 729.535 501.762 734.298 717.917 734.298V732.298ZM-63.805 690.751C-63.805 690.351 -63.6229 689.853 -63.0552 689.244C-62.4832 688.63 -61.5781 687.971 -60.292 687.283C-57.7222 685.907 -53.8348 684.522 -48.6462 683.143C-38.2847 680.391 -22.9595 677.726 -3.16736 675.182C36.4041 670.097 93.6888 665.514 164.503 661.665C306.125 653.967 501.786 649.205 717.917 649.205V647.205C501.762 647.205 306.063 651.967 164.395 659.668C93.5642 663.518 36.222 668.104 -3.4223 673.199C-23.2381 675.745 -38.668 678.423 -49.1596 681.21C-54.3975 682.602 -58.4612 684.035 -61.2358 685.52C-62.6219 686.261 -63.7375 687.043 -64.5179 687.88C-65.3027 688.721 -65.805 689.683 -65.805 690.751H-63.805ZM717.917 649.205C934.047 649.205 1129.71 653.967 1271.33 661.665C1342.15 665.514 1399.43 670.097 1439 675.182C1458.79 677.726 1474.12 680.391 1484.48 683.143C1489.67 684.522 1493.56 685.907 1496.13 687.283C1497.41 687.971 1498.32 688.63 1498.89 689.244C1499.46 689.853 1499.64 690.351 1499.64 690.751H1501.64C1501.64 689.683 1501.14 688.721 1500.35 687.88C1499.57 687.043 1498.46 686.261 1497.07 685.52C1494.3 684.035 1490.23 682.602 1484.99 681.21C1474.5 678.423 1459.07 675.745 1439.26 673.199C1399.61 668.104 1342.27 663.518 1271.44 659.668C1129.77 651.967 934.072 647.205 717.917 647.205V649.205Z" fill="#F8F9FA" mask="url(#path-1-inside-1_1709_35781)"/>
</svg>
