<svg width="370" height="184" viewBox="0 0 370 184" fill="none" xmlns="http://www.w3.org/2000/svg">
<g clip-path="url(#clip0)">
<rect y="0.203613" width="370" height="95.1054" fill="#532076"/>
<rect width="370.867" height="100.819" transform="matrix(-1 0 0 1 370.434 80.3767)" fill="#532076"/>
<path opacity="0.1" d="M462.572 120.505C446.147 118.65 423.94 116.887 397.571 117.021C397.571 117.021 397.571 117.021 397.571 117.021L397.571 117.094L462.572 120.505ZM462.572 120.505V110.588C449.087 111.068 391.105 108.431 370.429 107.18L370.427 107.18C364.604 106.686 360.313 105.614 355.898 104.511C354.91 104.265 353.917 104.017 352.899 103.773C347.329 102.44 341.011 101.242 330.904 101.176C323.66 101.129 315.383 102.409 305.602 103.922C301.736 104.52 297.635 105.154 293.27 105.758C277.865 107.886 259.183 109.623 235.967 107.988L235.972 107.916L235.967 107.988C228.166 107.435 221.905 106.651 215.921 105.9C213.542 105.602 211.207 105.309 208.836 105.039C200.501 104.088 191.72 103.411 179.035 103.735C169.142 103.993 163.559 104.686 158.023 105.5C157.285 105.609 156.548 105.719 155.802 105.831C150.947 106.56 145.699 107.348 137.283 107.988L137.277 107.916L137.283 107.988C117.945 109.455 104.546 108.413 91.0204 107.023C89.3964 106.856 87.7706 106.684 86.1325 106.51C74.1292 105.24 61.4658 103.9 44.0057 103.959C41.1735 103.968 38.3053 104.404 35.2623 104.995C34.0768 105.225 32.8637 105.479 31.616 105.741C29.6645 106.149 27.6283 106.576 25.4802 106.957C18.4311 108.207 10.1513 108.975 -0.446442 107.061C-5.73926 106.105 -9.02399 105.726 -11.06 105.708C-12.0782 105.699 -12.7794 105.781 -13.2616 105.925C-13.7426 106.068 -13.9998 106.27 -14.1398 106.498C-14.2811 106.728 -14.3108 106.997 -14.312 107.291C-14.3123 107.375 -14.3103 107.462 -14.3082 107.55C-14.3032 107.764 -14.2979 107.987 -14.3264 108.199C-14.3675 108.504 -14.4792 108.799 -14.7622 109.049C-15.0346 109.29 -15.4594 109.483 -16.1152 109.61V118.508L462.572 120.505Z" stroke="#7936B3" stroke-width="0.144531"/>
<path opacity="0.1" fill-rule="evenodd" clip-rule="evenodd" d="M61.5703 101.456C75.2369 100.475 82.0215 108.382 95.3153 108.382C103.586 108.382 108.758 105.884 114.067 103.32C117.458 101.683 120.904 100.018 125.25 98.9603C134.431 96.7255 139.722 99.1278 146.146 102.044C151.909 104.661 159.96 107.774 169.797 108.158C180.179 108.563 188.809 105.916 195.523 103.382C202.924 100.589 211.325 98.5675 221.18 100.306C227.146 101.359 235.033 105.536 235.033 105.536C235.033 105.536 242.336 109.536 249.229 109.28C253.552 109.113 257.235 108.211 261.144 107.254C266.717 105.888 273.665 105.571 281.756 104.793C318.3 101.28 347.959 89.7187 370.361 110.396L413.504 116.348L376.215 176.738H-2.89062V107.254C-2.89062 107.254 9.52886 120.475 22.1133 123.894C45.4903 130.245 41.779 102.877 61.5703 101.456Z" fill="#7936B3"/>
<path opacity="0.2" d="M-2.96289 115.987C19.1504 144.169 50.5155 116.685 84.6953 115.337C97.1091 114.847 104.313 115.597 116.448 113.714C122.005 112.851 124.64 111.307 130.435 110.85C137.795 110.263 141.632 111.345 146.236 112.644C149.726 113.628 153.657 114.737 159.898 115.337C171.47 116.447 177.332 114.496 183.489 112.445C189.02 110.604 196.453 108.781 205.153 108.831C215.559 108.89 224.402 111.843 230.606 114.324C237.466 117.067 243.223 119.369 253.471 117.131C254.861 116.826 256.267 116.452 257.709 116.068C263.361 114.564 269.569 112.912 277.513 114.664C319.197 121.026 346.008 98.8236 370.289 119.601C394.57 140.379 408.156 147.489 408.156 147.489L372.529 177.651H-2.96289V115.987Z" fill="#7936B3"/>
<path opacity="0.3" d="M80.9375 126.62C91.8034 122.022 100.784 120.99 107.1 120.945C114.691 120.886 120.197 122.229 125.414 123.502C132.056 125.122 138.229 126.629 147.641 124.983C151.298 124.341 153.578 123.552 155.688 122.822C158.447 121.867 161.694 121.013 165.79 120.72C172.138 120.267 177.159 121.541 181.829 122.891C184.429 123.643 187.149 124.429 190.539 124.983C200.88 126.661 206.775 124.398 212.877 122.055C218.681 119.826 224.671 117.526 234.851 118.477C241.222 119.075 244.75 120.525 248.672 122.137C252.846 123.853 257.466 125.753 266.435 127.002C275.439 128.258 283.137 124.983 295.35 124.983C307.562 124.983 313.579 137.822 330.868 137.729C348.267 137.635 352.656 126.276 370.217 128.295L372.674 175.825H-4.11914L-6.57617 129.176C-6.57617 129.176 -6.50391 127.567 -0.433594 128.221C5.63672 128.875 14.3936 133.728 31.002 133.654C47.6103 133.579 70.0716 131.219 80.9375 126.62Z" fill="#7936B3"/>
<path opacity="0.6" d="M386.321 114.941L384.602 131.541L370.065 137.499C366.635 136.808 364.371 136.213 362.56 135.713C362.264 135.631 361.981 135.552 361.706 135.475C360.294 135.081 359.117 134.753 357.756 134.489C354.505 133.86 350.209 133.605 339.138 133.705C339.138 133.705 339.137 133.705 339.137 133.705L339.138 133.777C333.325 133.819 329.971 134.043 326.074 134.302C323.722 134.459 321.173 134.629 317.767 134.78C294.006 135.83 279.074 133.806 264.84 131.878C255.511 130.614 246.482 129.391 235.464 129.099C214.506 128.538 204.93 131.833 195.382 135.118C186.183 138.284 177.01 141.44 157.709 141.129C135.196 140.77 122.515 136.061 111.362 131.919C99.6735 127.579 89.6625 123.862 71.7693 126.426C62.6624 127.722 55.1974 130.117 47.9041 132.458C36.0064 136.276 24.5659 139.947 7.20068 138.455L386.321 114.941ZM386.321 114.941L370.239 120.181L370.239 120.181L370.238 120.182C362.489 122.501 358.382 122.215 341.014 120.344C324.23 118.539 317.593 116.526 311.98 114.734C311.802 114.678 311.625 114.621 311.449 114.565C306.075 112.846 301.392 111.349 289.115 110.46C269.489 109.043 257.943 112.467 246.749 115.785C246.462 115.871 246.174 115.956 245.886 116.041C234.413 119.438 223.102 122.59 203.626 120.149L203.635 120.078L203.626 120.149C197.083 119.324 191.831 118.152 186.812 117.032C184.818 116.587 182.86 116.15 180.874 115.746C173.887 114.327 166.527 113.317 155.894 113.801C147.602 114.185 142.923 115.22 138.283 116.434C137.664 116.596 137.046 116.761 136.421 116.929C132.35 118.016 127.947 119.193 120.888 120.149L120.878 120.078L120.888 120.149C104.667 122.339 93.4268 120.784 82.0839 118.708C80.722 118.458 79.3587 118.202 77.9851 117.943C67.9202 116.047 57.3051 114.047 42.6684 114.135L42.668 114.063L42.6684 114.135C30.4979 114.202 13.1989 115.736 -7.73242 122.569L386.321 114.941Z" stroke="#1A011C" stroke-width="0.144531"/>
<path opacity="0.4" d="M88.7157 137.321C97.7171 138.322 103.647 135.858 109.815 133.294C113.595 131.723 117.465 130.115 122.185 129.245C131.46 127.523 136.65 130.019 142.709 132.933C148.49 135.713 156.731 139.152 166.733 139.116C174.688 139.087 181.492 137.206 186.261 135.081C191.21 132.875 196.174 130.663 207.038 131.04C212.749 131.235 217.429 132.056 222.265 132.905C229.643 134.2 237.384 135.558 249.7 134.853C251.466 134.752 252.787 134.638 254.007 134.533C256.026 134.358 257.765 134.208 260.778 134.18C272.257 134.046 283.426 135.215 308.141 144.219C332.855 153.223 360.244 147.911 370 145.245L371.807 177.879H-3.25195V146.332C-3.25195 146.332 21.5974 137.711 38.8428 135.661C56.3836 133.576 71.9112 135.402 88.7157 137.321Z" fill="#7936B3"/>
<path opacity="0.6" d="M44.0059 138.166C29.4884 138.244 8.853 140.041 -16.1152 148.05V163.716C-11.0326 164.923 -5.03592 166.013 1.71393 166.598C18.4042 168.006 30.5012 165.483 41.999 162.108C44.7564 161.299 47.48 160.44 50.2247 159.575C58.9236 156.833 67.834 154.024 78.7012 152.506C99.5693 149.567 111.459 153.663 124.999 158.596C125.316 158.712 125.635 158.828 125.954 158.944C139.252 163.796 154.366 169.309 181.203 169.729C204.208 170.094 215.139 166.399 226.106 162.692C226.314 162.622 226.522 162.551 226.73 162.481C237.92 158.702 249.384 154.99 273.933 155.637C287.077 155.978 297.849 157.411 308.975 158.892C311.9 159.281 314.849 159.674 317.872 160.051C332.395 161.861 348.632 163.309 372.081 162.291C376.14 162.115 379.179 161.916 381.984 161.732C386.632 161.428 390.637 161.166 397.57 161.117C423.939 160.882 446.146 163.964 462.572 167.208V149.757C455.836 150.176 437.912 149.16 419.083 147.767C400.184 146.368 380.363 144.588 370.002 143.491C363.162 144.589 357.495 142.974 351.031 141.089L350.792 141.02C344.383 139.151 337.165 137.047 327.219 137.047C322.186 137.047 316.87 137.913 310.998 139.125C308.754 139.588 306.429 140.101 304.007 140.636C300.094 141.5 295.93 142.42 291.455 143.271C276.961 146.028 259.182 148.07 235.963 145.211L235.972 145.139L235.963 145.211C228.161 144.244 221.898 142.871 215.914 141.559C213.535 141.038 211.2 140.526 208.83 140.053C200.497 138.39 191.718 137.207 179.036 137.774C169.146 138.224 163.565 139.436 158.031 140.859C157.293 141.049 156.556 141.243 155.809 141.439C150.954 142.713 145.705 144.091 137.287 145.211C117.944 147.777 104.542 145.955 91.015 143.522C89.3908 143.23 87.765 142.93 86.1269 142.626C74.1236 140.405 61.4628 138.062 44.0059 138.166Z" stroke="#7936B3" stroke-width="0.144531"/>
<path opacity="0.5" d="M80.9375 147.73C92.3555 147.73 103.829 144.057 114.561 140.691C115.425 140.42 115.89 140.254 116.764 140.013C127.671 137.006 136.615 139.523 146.549 142.731C154.974 145.452 164.31 148.468 176.868 148.313C187.162 148.191 191.733 146.027 196.264 143.881C200.914 141.678 205.522 139.496 216.231 139.564C226.439 139.62 233.346 141.674 240.525 143.809C247.7 145.942 255.148 148.156 266.435 148.538C275.085 148.829 280.167 146.691 289.062 146.721C305.576 146.775 313.482 152.542 330.254 153.375C346.219 154.168 357.281 154.543 370 150.871L371.807 178.061H-0.433594V151.061C-0.433594 151.061 17.6857 144.288 30.6406 142.609C50.1564 140.08 61.0864 147.73 80.9375 147.73Z" fill="#7936B3"/>
<path d="M80.9375 156.482C70.518 155.158 62.004 161.765 38.2286 161.765C14.4532 161.765 18.7168 153.981 -0.722656 153.981L-1.15618 187.796H370.434V153.981C351.211 153.892 323.389 165.925 289.063 160.393C271.773 157.607 263.088 153.054 244.633 153.892C221.015 154.984 219.342 161.104 197.964 161.765C160.416 162.907 153.086 142.92 128.078 151.479C106.569 158.859 105.219 159.569 80.9375 156.482Z" fill="white"/>
</g>
<defs>
<clipPath id="clip0">
<rect width="370" height="183.105" fill="white" transform="translate(0 0.203613)"/>
</clipPath>
</defs>
</svg>
