<svg width="100%" height="auto" viewBox="0 0 16 16" fill="none" xmlns="http://www.w3.org/2000/svg">
<path d="M12.6666 1.78334C12.7999 1.78334 12.9332 1.85001 12.9999 1.91668C13.1999 2.11668 13.1999 2.45001 12.9999 2.65001L3.66657 11.9833C3.46657 12.1833 3.13323 12.1833 2.93323 11.9833C2.73323 11.7833 2.73323 11.45 2.93323 11.25L12.2666 1.91668C12.3999 1.78335 12.5332 1.78334 12.6666 1.78334Z" fill="black"/>
<path d="M5.79995 1.78335H12.6666C12.9333 1.78335 13.2 1.98335 13.2 2.31668V9.11668C13.2 9.38335 13 9.65002 12.6666 9.65002C12.3333 9.65002 12.1333 9.45002 12.1333 9.11668V2.78335H5.79995C5.53328 2.78335 5.26662 2.58335 5.26662 2.25002C5.26662 1.91668 5.53328 1.78335 5.79995 1.78335Z" fill="black"/>
<path opacity="0.4" d="M2.33328 15.2H13.6666C13.9333 15.2 14.2 15 14.2 14.6667C14.2 14.3333 14 14.1333 13.6666 14.1333H2.33328C2.06662 14.1333 1.79995 14.3333 1.79995 14.6667C1.79995 15 2.06662 15.2 2.33328 15.2Z" fill="currentColor"/>
</svg>
