<svg width="1920" height="1080" viewBox="0 0 1920 1080" fill="none" xmlns="http://www.w3.org/2000/svg">
<g clip-path="url(#clip0)">
<rect width="1920" height="1080" fill="#F8F9FA"/>
<g style="mix-blend-mode:multiply">
<path d="M2943.96 -317.808L463.585 -71.9458L594.407 1247.85L3074.78 1001.99L2943.96 -317.808Z" fill="white"/>
<path fill-rule="evenodd" clip-rule="evenodd" d="M2395.09 -285.652C2395.09 -285.652 2047.27 -9.43336 1892.83 182.192C1807.02 288.662 1854.83 424.61 1757.35 466.192C1659.86 507.78 1517.81 514.46 1364.45 657.706C1275.49 740.803 1176.55 877.234 1059.86 944.219C943.18 1011.2 538.858 1104.78 538.858 1104.78L-135.983 1104.78L-91.8564 -100.542L1976.55 -244.165L2395.09 -285.652Z" fill="#F8F9FA"/>
<path fill-rule="evenodd" clip-rule="evenodd" d="M2452.17 -241.93C2452.17 -241.93 2104.35 34.2892 1949.91 225.914C1864.1 332.385 1911.91 468.333 1814.43 509.915C1716.94 551.503 1574.89 558.183 1421.53 701.429C1332.57 784.525 1233.62 920.956 1116.94 987.942C1000.26 1054.93 595.935 1148.5 595.935 1148.5L-78.9059 1148.5L-34.7792 -56.8196L2033.62 -200.442L2452.17 -241.93Z" fill="url(#paint0_linear)"/>
<path d="M2395.09 -285.652C2395.09 -285.652 2047.27 -9.43345 1892.83 182.192C1807.02 288.662 1854.83 424.61 1757.35 466.192C1659.86 507.78 1517.81 514.46 1364.45 657.706C1275.49 740.803 1176.55 877.233 1059.86 944.219C943.18 1011.2 538.857 1104.78 538.857 1104.78" stroke="#EAECEE" stroke-width="2" stroke-miterlimit="1.5" stroke-linecap="round" stroke-linejoin="round"/>
<path fill-rule="evenodd" clip-rule="evenodd" d="M1774.71 -213.673C1774.71 -213.673 1870.87 59.5206 1624.18 274.705C1377.49 489.89 1341.25 305.843 1135.67 486.726C930.097 667.604 829.9 981.458 557.291 1008.48L-42.0027 1008.48L-42.0027 -213.673L1774.71 -213.673Z" fill="url(#paint1_linear)"/>
<path fill-rule="evenodd" clip-rule="evenodd" d="M1060.63 285.623C1171.86 177.425 1173.48 39.0594 1328.74 -33.1182C1484 -105.296 1777.73 -130.063 1881.2 -328.986L-150.326 -243.887L-123.598 625.979C223.387 549.911 787.519 551.263 1060.63 285.623Z" fill="white"/>
<path opacity="0.2" fill-rule="evenodd" clip-rule="evenodd" d="M2024.55 656.479C1920.12 709.537 1868.59 680.706 1735.08 759.3C1601.57 837.893 1593.11 931.691 1410.52 987.986C1227.93 1044.28 887.827 1075.07 758.96 1214.74L2070.91 1084.7L3138.53 474.104L3114.64 22.4008C3114.64 22.4008 2690.21 59.6794 2471.96 176.517C2226.41 307.972 2274.01 529.722 2024.55 656.479Z" fill="#F8F9FA"/>
<path d="M1774.71 -213.673C1774.71 -213.673 1870.87 59.5205 1624.18 274.705C1377.49 489.89 1298.41 316.828 1135.67 486.726C841.517 793.835 848.831 1001.24 259.523 1133.37" stroke="#EAECEE" stroke-width="2" stroke-miterlimit="1.5" stroke-linecap="round" stroke-linejoin="round"/>
<path d="M1066 -435C1066 -435 827.091 -245.283 721.009 -113.667C662.068 -40.5397 694.91 52.8345 627.951 81.3947C560.989 109.959 463.416 114.547 358.079 212.933C296.975 270.007 229.012 363.713 148.866 409.721C68.7188 455.729 -209 520 -209 520" stroke="#F8F9FA" stroke-width="2" stroke-miterlimit="1.5" stroke-linecap="round" stroke-linejoin="round"/>
</g>
</g>
<defs>
<linearGradient id="paint0_linear" x1="1122.7" y1="534.674" x2="1260.43" y2="871.736" gradientUnits="userSpaceOnUse">
<stop stop-color="white" stop-opacity="0"/>
<stop offset="1" stop-color="white"/>
</linearGradient>
<linearGradient id="paint1_linear" x1="819.576" y1="414.792" x2="986.63" y2="728.019" gradientUnits="userSpaceOnUse">
<stop stop-color="white" stop-opacity="0"/>
<stop offset="1" stop-color="white"/>
</linearGradient>
<clipPath id="clip0">
<rect width="1920" height="1080" fill="white"/>
</clipPath>
</defs>
</svg>
