<svg width="1440" height="575" viewBox="0 0 1440 575" fill="none" xmlns="http://www.w3.org/2000/svg">
<g clip-path="url(#clip0)">
<path opacity="0.5" d="M-560 227.5C-422.5 227.5 -479.695 239.551 -132.853 206.385C-24.8602 196.058 99.1315 121.053 224.123 140.076C349.115 159.099 455.108 223.234 642.095 378.679C791.685 503.034 1042.4 410.202 1149.06 348.242C1255.72 286.281 1461.35 257.679 1668.03 234.657C1823.23 217.369 1985.5 228 1999.5 227.5" stroke="#7305AA"/>
<path opacity="0.5" d="M1243 106.288C1329.4 115.116 1688.54 35.4294 2005.53 22.1802L2028.04 484C1894.19 487.869 1893.93 527.5 1770.48 527.5C1621.56 527.5 1616.69 550.432 1463 537.247C1307.39 523.898 1208.2 468.712 1069 468.712C895 468.712 823 575 644 575C465 575 499 491.945 347 491.945C225.4 491.945 107 479.697 -39 491.945C-185 504.192 -267 487.5 -482 459.5C-697 431.5 -972 521 -972 521L-958 122.5C-958 122.5 -718.954 25.8743 -562.685 22.5132C-398.59 18.9838 -137.323 126.042 -30.6566 192.255C76.0101 258.467 227.141 328.893 413.194 255.246C552.745 200.007 761 55.7577 886 35.4294C1011 15.1011 1135 95.2526 1243 106.288Z" fill="#F8EAFF"/>
<path d="M885.877 140.076C1010.87 121.053 1134.86 196.058 1242.85 206.385C1589.69 239.551 1793.08 212.261 2041.49 238.233L2068 587.982C2068 587.982 1985.62 572.295 1857.81 609.672C1715.68 651.239 1616.52 622.01 1462.84 609.672C1307.24 597.18 1208.06 545.537 1068.86 545.537C894.876 545.537 822.881 645 643.893 645C464.905 645 498.903 567.278 346.913 567.278C225.321 567.278 38.9334 595.54 -39.0614 609.672C-39.0614 609.672 -508.413 580.476 -572.724 585.773L-958 221.556C-958 221.556 -713.226 217.369 -558.027 234.657C-351.348 257.679 -145.721 286.281 -39.0614 348.242C67.5981 410.202 318.315 503.034 467.905 378.679C654.892 223.234 760.885 159.099 885.877 140.076Z" fill="url(#paint0_linear)"/>
<path opacity="0.5" d="M1243 106.288C1329.4 115.116 1688.54 35.4294 2005.53 22.1802L2028.04 523.392C1894.19 527.261 1893.93 544.127 1770.48 544.127C1621.56 544.127 1616.69 550.432 1463 537.247C1307.39 523.898 1208.2 468.712 1069 468.712C895 468.712 823 575 644 575C465 575 499 491.945 347 491.945C225.4 491.945 39 522.146 -39 537.247L-972 600.5L-958 122.5C-958 122.5 -718.954 25.8743 -562.685 22.5132C-398.59 18.9838 -137.323 126.042 -30.6566 192.255C76.0101 258.467 227.141 328.893 413.194 255.246C552.745 200.007 761 55.7577 886 35.4294C1011 15.1011 1135 95.2526 1243 106.288Z" fill="url(#paint1_linear)"/>
<path opacity="0.2" d="M885.877 140.076C1010.87 121.053 1134.86 196.058 1242.85 206.385C1589.69 239.551 1793.08 212.261 2041.49 238.233L2068 587.982C2068 587.982 1985.62 572.295 1857.81 609.672C1715.68 651.239 1616.52 622.01 1462.84 609.672C1307.24 597.18 1208.06 545.537 1068.86 545.537C894.876 545.537 822.881 645 643.893 645C464.905 645 498.903 567.278 346.913 567.278C225.321 567.278 38.9334 595.54 -39.0614 609.672C-39.0614 609.672 -508.413 580.476 -572.724 585.773L-958 221.556C-958 221.556 -713.226 217.369 -558.027 234.657C-351.348 257.679 -145.721 286.281 -39.0614 348.242C67.5981 410.202 318.315 503.034 467.905 378.679C654.892 223.234 760.885 159.099 885.877 140.076Z" fill="url(#paint2_linear)"/>
<path opacity="0.2" d="M2000 338.059C1862.47 338.059 1919.68 347.522 1572.77 321.48C1464.76 313.371 1340.74 254.479 1215.72 269.415C1090.71 284.352 984.694 334.709 797.67 456.762C648.051 554.404 397.285 481.514 290.605 432.864C183.924 384.213 -21.7431 361.755 -228.462 343.679C-383.692 330.105 -545.997 338.452 -560 338.059" stroke="#7305AA"/>
</g>
<defs>
<linearGradient id="paint0_linear" x1="768.291" y1="197.592" x2="768.291" y2="585.49" gradientUnits="userSpaceOnUse">
<stop stop-color="white" stop-opacity="0.29"/>
<stop offset="1" stop-color="white"/>
</linearGradient>
<linearGradient id="paint1_linear" x1="739.481" y1="91.1598" x2="739.481" y2="532.752" gradientUnits="userSpaceOnUse">
<stop stop-color="white" stop-opacity="0.29"/>
<stop offset="1" stop-color="white"/>
</linearGradient>
<linearGradient id="paint2_linear" x1="768.291" y1="197.592" x2="768.291" y2="585.49" gradientUnits="userSpaceOnUse">
<stop stop-color="white" stop-opacity="0.29"/>
<stop offset="1" stop-color="white"/>
</linearGradient>
<clipPath id="clip0">
<rect width="2559" height="575" fill="white" transform="translate(-560)"/>
</clipPath>
</defs>
</svg>
