<svg width="1920" height="1080" viewBox="0 0 1920 1080" fill="none" xmlns="http://www.w3.org/2000/svg">
<g clip-path="url(#clip0_1233_682)">
<g clip-path="url(#clip1_1233_682)">
<rect width="1920" height="1080" fill="#180A29"/>
<path opacity="0.75" fill-rule="evenodd" clip-rule="evenodd" d="M1956.42 168.289C1956.42 168.289 1839.53 258.464 1824.73 339.025C1809.94 419.585 1720.49 519.049 1589.42 545.93C1458.35 572.815 1274.26 566.582 1058.12 674.415C932.746 736.969 787.669 843.604 628.592 890.276C469.513 936.947 -64 982 -64 982V-34H1963L1956.42 168.289Z" fill="url(#paint0_linear_1233_682)"/>
<path opacity="0.1" fill-rule="evenodd" clip-rule="evenodd" d="M1698.69 -26C1698.69 -26 1787.8 212.454 1442.07 373.319C1096.34 534.185 1073.12 375.928 784.804 511.301C496.492 646.669 327.11 903 -28 903V-26H1698.69Z" fill="url(#paint1_linear_1233_682)"/>
<path fill-rule="evenodd" clip-rule="evenodd" d="M1698.69 -26C1698.69 -26 1787.8 212.454 1442.07 373.319C1096.34 534.185 1073.12 375.928 784.804 511.301C496.492 646.669 327.11 903 -28 903V-26H1698.69Z" fill="url(#paint2_linear_1233_682)"/>
<path opacity="0.25" fill-rule="evenodd" clip-rule="evenodd" d="M-25.0627 339C-25.0627 339 93.5087 331.605 199.311 276.487C305.114 221.368 318.41 142.974 459.306 110.763C600.203 78.5512 857.142 81.0177 964 -26H-28L-25.0627 339Z" fill="url(#paint3_linear_1233_682)"/>
<path opacity="0.25" fill-rule="evenodd" clip-rule="evenodd" d="M1936.94 737C1936.94 737 1732.67 744.395 1550.39 799.513C1368.12 854.632 1345.21 933.026 1102.48 965.237C859.743 997.449 417.093 994.982 233 1102H1942L1936.94 737Z" fill="url(#paint4_linear_1233_682)"/>
<rect opacity="0.75" width="1920" height="1080" fill="url(#paint5_linear_1233_682)"/>
<rect opacity="0.75" width="1920" height="1080" fill="url(#paint6_linear_1233_682)"/>
</g>
<g style="mix-blend-mode:overlay" opacity="0.5">
<path d="M1137.32 1152.79C1019.79 924.956 1168.33 616.001 1362.78 354.397C1545.31 108.84 1786.92 -23.7866 1791.52 -185.959C1906.09 -236.847 1955.8 -185.96 2099.85 -185.959L2091.31 1297.89H1634.34C1507.84 1325.46 1231.34 1335.05 1137.32 1152.79Z" fill="url(#paint7_linear_1233_682)"/>
</g>
<path d="M2861.19 -471.355C2820.65 -439.012 2780.52 -406.514 2740.19 -373.082C2583.54 -235.625 2471.5 -83.2402 2337.06 75.3643C2172.05 274.397 1950.01 429.892 1661.36 491.312C1616.14 500.798 1569.08 507.639 1520.2 510.749C1482.51 512.304 1445.84 506.862 1412.23 495.355C1378.62 483.849 1348.06 466.433 1322.6 443.887C1295.1 419.007 1279.41 388.22 1277.38 357.743C1275.34 327.266 1287.16 296.944 1314.66 272.843C1408.36 190.43 1524.47 129.787 1628.36 53.5951C1797.44 -67.6907 1891.14 -302.488 1675.22 -422.218C1618.18 -456.427 1550.95 -475.087 1479.66 -479.751C1420.18 -484.105 1360.69 -486.904 1301.42 -488.615C662.797 -506.185 47.6059 -454.872 -596.105 -346.026C-622.586 -341.361 -651.105 -342.916 -678.605 -342.605C-718.328 -342.139 -757.236 -343.227 -795.329 -345.249C-833.422 -347.426 -870.496 -350.691 -906.349 -354.889C-1193.57 -388.01 -1404 -476.175 -1404 -476.175" stroke="#612AA2" stroke-width="2.62628" stroke-miterlimit="10"/>
<path opacity="0.95" d="M2861.19 -374.637C2820.25 -343.383 2779.1 -312.128 2738.97 -279.474C2701.08 -248.531 2666.65 -216.033 2633.24 -183.223C2598.61 -149.325 2565.61 -114.65 2533.22 -79.5081C2463.96 -4.24868 2397.15 73.0321 2325.85 152.023C2154.94 340.949 1932.29 487.425 1645.68 542.315C1600.66 550.867 1554.21 557.242 1505.73 558.953C1468.45 560.352 1432.19 554.288 1398.79 542.781C1365.38 531.43 1334.82 514.326 1309.56 492.09C1281.86 467.833 1265.56 437.823 1262.51 407.968C1259.25 378.113 1269.43 348.413 1294.29 324.622C1379.64 242.988 1486.79 180.79 1584.57 104.286C1648.33 54.5282 1701.49 -12.3345 1728.59 -82.9291C1744.88 -126.001 1751.61 -170.162 1744.88 -212.301C1738.36 -254.284 1718.6 -294.402 1682.35 -329.077C1667.07 -343.849 1648.53 -357.377 1627.55 -370.283C1625.51 -371.527 1623.68 -372.771 1621.64 -373.859C1571.53 -404.336 1513.47 -422.84 1451.75 -430.148C1447.88 -430.615 1443.81 -431.082 1439.94 -431.392C1382.69 -437.146 1325.45 -441.655 1268.21 -445.232C1220.34 -448.186 1172.67 -451.14 1124.6 -453.317C921.3 -462.958 715.965 -463.891 508.796 -453.784C441.777 -450.518 374.961 -446.009 308.146 -440.567C242.349 -435.124 176.552 -428.594 110.959 -421.13C-131.859 -393.296 -364.898 -351.468 -602.215 -300.777C-618.308 -297.356 -635.419 -296.112 -652.327 -295.49C-662.105 -295.024 -671.883 -294.868 -681.661 -294.402C-719.957 -292.38 -758.05 -291.914 -795.125 -292.691C-832.403 -293.469 -869.07 -295.179 -904.515 -298.289C-1184.61 -323.324 -1394.22 -407.135 -1402.58 -404.647" stroke="#612AA2" stroke-width="2.62628" stroke-miterlimit="10"/>
<path opacity="0.8" d="M2861.39 -277.764C2820.04 -247.442 2778.49 -217.277 2737.95 -185.556C2699.65 -155.545 2664.61 -124.135 2630.39 -92.5698C2594.95 -59.7604 2561.13 -26.4845 2527.93 7.41335C2456.63 79.8739 2387.78 153.734 2314.44 228.838C2139.05 408.278 1914.37 545.114 1629.99 593.473C1585.38 600.936 1539.14 606.379 1491.27 607.467C1454.4 608.245 1418.34 602.025 1385.14 590.674C1351.93 579.323 1321.58 562.529 1296.32 540.76C1268.42 516.969 1251.71 487.736 1247.43 458.503C1243.16 429.27 1251.51 400.348 1273.92 376.713C1350.92 295.856 1449.51 232.57 1540.97 155.289C1600.46 105.064 1650.77 38.3567 1676.64 -31.7714C1692.33 -74.3769 1698.23 -118.226 1691.92 -160.21C1685.6 -201.883 1666.66 -241.689 1632.23 -276.52C1617.57 -291.292 1600.05 -304.975 1579.88 -318.037C1578.05 -319.281 1576.21 -320.525 1574.38 -321.769C1526.31 -352.712 1470.9 -372.46 1411.62 -381.479C1407.75 -382.101 1404.08 -382.567 1400.21 -383.034C1345.21 -390.342 1290.21 -396.251 1235.01 -401.693C1188.56 -406.358 1142.12 -411.178 1095.47 -415.066C897.263 -432.015 693.15 -439.012 484.759 -430.615C417.536 -427.972 350.313 -423.618 283.294 -417.864C217.293 -412.267 151.496 -405.114 85.9028 -396.562C-157.729 -365.152 -380.583 -313.839 -608.326 -255.217C-623.808 -251.174 -640.104 -249.308 -656.401 -247.909C-665.771 -247.131 -675.346 -246.51 -684.512 -245.577C-721.587 -242 -758.458 -239.979 -794.921 -239.357C-831.384 -238.735 -867.44 -238.89 -902.681 -241.067C-1175.44 -258.016 -1384.45 -337.318 -1401.15 -332.342" stroke="#612AA2" stroke-width="2.62628" stroke-miterlimit="10"/>
<path opacity="0.85" d="M2861.39 -181.046C2819.63 -151.658 2777.67 -122.58 2736.52 -91.7921C2697.82 -62.8701 2662.17 -32.393 2627.34 -1.91609C2591.28 29.6493 2556.65 61.8367 2522.63 94.335C2449.5 164.152 2378.41 234.591 2303.04 305.652C2122.96 475.608 1896.44 602.802 1614.1 644.631C1569.7 651.161 1524.07 656.448 1476.6 655.826C1440.14 655.36 1404.49 649.606 1371.49 638.255C1338.69 626.904 1308.34 610.422 1283.08 589.274C1255.17 566.106 1237.86 537.495 1232.36 509.039C1226.86 480.584 1233.38 452.128 1253.54 428.649C1322.19 348.413 1412.44 284.038 1497.18 206.291C1552.38 155.6 1599.84 89.2037 1624.29 19.3866C1639.16 -22.9079 1644.66 -66.4465 1638.55 -107.964C1632.44 -149.481 1614.31 -188.821 1581.71 -223.807C1567.66 -238.735 1551.16 -252.574 1532.01 -265.791C1530.18 -267.035 1528.55 -268.279 1526.71 -269.523C1480.88 -300.932 1427.92 -321.769 1371.29 -332.498C1367.62 -333.12 1363.95 -333.897 1360.49 -334.519C1307.93 -343.538 1254.97 -350.846 1201.8 -358.154C1156.78 -364.374 1111.77 -371.061 1066.14 -376.814C873.226 -401.071 669.928 -414.132 460.518 -407.446C393.092 -405.269 325.665 -401.226 258.442 -395.318C192.238 -389.409 126.237 -381.79 61.0512 -372.304C-183.599 -337.163 -396.065 -276.52 -614.03 -209.968C-628.9 -205.459 -644.586 -202.971 -660.271 -200.794C-669.234 -199.55 -678.401 -198.461 -687.364 -197.218C-723.012 -192.086 -758.865 -188.51 -794.513 -186.644C-830.162 -184.622 -865.81 -183.223 -900.644 -184.467C-1165.67 -193.641 -1374.46 -268.278 -1399.72 -260.815" stroke="#612AA2" stroke-width="2.62628" stroke-miterlimit="10"/>
<path opacity="0.75" d="M2861.39 -84.3297C2819.23 -56.0297 2776.86 -27.7297 2735.3 1.96978C2696.19 29.9588 2659.93 59.1917 2624.28 88.5802C2587.61 119.057 2552.17 149.845 2517.13 180.944C2441.96 247.962 2368.63 314.98 2291.22 382.31C2106.87 542.78 1878.11 660.178 1598.21 695.631C1554.21 701.074 1508.79 704.494 1461.94 704.028C1425.88 703.717 1390.64 696.875 1357.84 685.68C1325.25 674.484 1295.1 658.157 1269.64 637.476C1241.73 614.774 1223.8 586.94 1217.08 559.107C1210.36 531.273 1215.25 503.44 1232.97 480.271C1293.27 400.813 1374.95 335.35 1453.18 256.825C1504.1 205.668 1548.71 139.582 1571.94 70.2319C1585.99 28.2483 1591.09 -14.8237 1585.38 -56.0298C1579.68 -97.2359 1562.36 -136.421 1531.4 -171.251C1518.16 -186.334 1502.68 -200.329 1484.14 -213.701C1482.51 -214.945 1480.68 -216.189 1479.05 -217.433C1435.25 -249.31 1384.93 -271.39 1330.75 -283.674C1327.29 -284.451 1323.82 -285.229 1320.36 -286.006C1270.04 -296.58 1219.12 -305.443 1168.4 -314.462C1124.8 -322.237 1081.21 -330.944 1036.6 -338.408C848.781 -369.973 646.502 -388.944 436.073 -384.124C368.443 -382.569 300.609 -378.681 233.183 -372.461C166.774 -366.397 100.57 -358 35.5879 -347.738C-209.878 -309.02 -412.157 -238.891 -620.548 -164.41C-634.808 -159.278 -649.678 -156.168 -664.753 -153.369C-673.308 -151.814 -682.067 -150.26 -690.827 -148.705C-725.253 -142.018 -760.087 -137.043 -794.717 -133.622C-829.754 -130.201 -864.792 -125.536 -899.218 -127.557C-1155.89 -142.174 -1365.09 -198.774 -1398.7 -188.978" stroke="#612AA2" stroke-width="2.62628" stroke-miterlimit="10"/>
<path opacity="0.7" d="M2861.39 12.3896C2818.82 39.7566 2776.04 66.9682 2734.08 95.5792C2694.56 122.48 2657.49 150.78 2621.43 178.924C2583.95 208.157 2547.69 237.857 2512.04 267.556C2434.83 331.776 2359.46 395.528 2280.02 458.815C2090.78 609.955 1860.38 718.024 1582.33 746.48C1538.53 750.989 1493.51 753.322 1447.27 752.233C1411.62 751.3 1376.58 744.303 1344.19 733.107C1311.8 721.912 1281.86 705.896 1256.4 685.837C1228.29 663.601 1209.75 636.545 1202.01 609.489C1194.27 582.433 1197.32 555.066 1212.4 532.208C1264.34 453.372 1337.88 386.976 1409.38 307.674C1456.23 256.05 1497.79 190.12 1519.79 121.236C1533.03 79.7188 1537.71 36.9578 1532.21 -4.09281C1526.71 -44.9879 1510.42 -83.8616 1481.08 -118.848C1468.45 -133.931 1453.99 -148.236 1436.47 -161.764C1434.84 -163.008 1433.21 -164.408 1431.58 -165.652C1390.03 -197.995 1342.16 -221.163 1290.62 -235.313C1287.36 -236.246 1284.1 -237.024 1280.64 -237.957C1232.56 -250.241 1183.88 -260.504 1135.19 -271.388C1093.02 -280.873 1050.86 -291.447 1007.26 -300.621C824.54 -339.495 623.483 -364.529 411.832 -361.42C343.795 -360.487 275.757 -356.599 208.331 -350.224C141.719 -343.849 75.5142 -334.985 10.532 -323.634C-235.952 -281.34 -427.843 -201.726 -626.66 -119.314C-640.308 -113.716 -654.567 -109.829 -668.827 -106.253C-677.179 -104.231 -685.531 -102.365 -693.679 -100.344C-726.883 -92.1028 -760.494 -85.5721 -794.513 -80.7517C-828.736 -75.9314 -863.162 -69.4006 -897.385 -70.8001C-1146.72 -80.2852 -1355.31 -129.422 -1397.28 -117.138" stroke="#612AA2" stroke-width="2.62628" stroke-miterlimit="10"/>
<path opacity="0.65" d="M2861.39 109.262C2818.41 135.696 2775.23 161.974 2732.86 189.497C2692.93 215.465 2655.24 242.521 2618.37 269.732C2580.28 297.721 2543.21 326.177 2506.74 354.632C2427.7 416.208 2349.89 476.385 2268.61 535.784C2074.68 677.439 1842.25 775.867 1566.44 797.792C1523.05 801.213 1478.44 802.768 1432.6 800.746C1397.16 799.191 1362.73 792.039 1330.34 780.843C1298.16 769.648 1268.42 754.098 1242.95 734.35C1214.84 712.736 1195.69 686.302 1186.73 659.868C1177.77 633.434 1179.19 606.845 1191.82 584.142C1235.41 506.084 1300.4 438.599 1365.38 358.675C1407.95 306.584 1446.66 240.966 1467.23 172.393C1479.66 131.187 1483.73 88.7365 1478.64 48.1524C1473.55 7.56827 1457.86 -31.1499 1430.36 -66.1362C1418.34 -81.3747 1404.9 -95.8358 1388.19 -109.519C1386.56 -110.763 1385.14 -112.163 1383.51 -113.407C1343.99 -146.216 1298.77 -170.629 1249.67 -186.334C1246.62 -187.422 1243.36 -188.355 1240.3 -189.288C1194.67 -203.127 1147.82 -214.945 1101.38 -227.695C1060.43 -238.891 1019.69 -251.33 977.523 -262.215C799.688 -308.241 599.853 -339.496 387.184 -338.096C318.943 -337.63 250.701 -334.054 182.867 -327.367C115.848 -320.836 49.6435 -311.196 -14.9312 -299.067C-262.026 -252.73 -443.935 -163.942 -632.974 -73.911C-646.012 -67.6912 -659.456 -63.1819 -673.105 -58.9835C-681.049 -56.4956 -688.993 -54.3187 -696.938 -51.8308C-728.716 -42.0346 -761.309 -34.1044 -794.513 -27.8846C-827.921 -21.6648 -861.736 -15.9115 -895.755 -14.0455C-1137.35 -0.672994 -1345.94 -60.2274 -1396.26 -45.4554" stroke="#612AA2" stroke-width="2.62628" stroke-miterlimit="10"/>
<path opacity="0.6" d="M2861.39 205.979C2818.01 231.325 2774.41 256.67 2731.43 283.26C2691.1 308.295 2652.8 334.262 2615.32 360.23C2576.41 387.13 2538.72 414.186 2501.24 441.398C2420.17 500.175 2340.32 557.086 2257 612.598C2058.79 744.768 1824.12 833.555 1550.55 848.949C1507.36 851.437 1463.16 851.904 1417.94 849.105C1382.9 846.928 1348.88 839.62 1316.69 828.424C1284.71 817.384 1255.17 801.99 1229.71 782.709C1201.6 761.562 1181.84 736.06 1171.65 710.093C1161.47 684.281 1161.27 658.313 1171.45 635.766C1206.49 558.33 1263.12 489.757 1321.58 409.211C1359.88 356.653 1395.73 291.19 1415.08 223.084C1426.69 182.188 1430.36 140.205 1425.47 99.9318C1420.58 59.6587 1405.92 21.2515 1380.05 -13.7348C1368.84 -29.1288 1356.21 -43.7452 1340.53 -57.5842C1339.1 -58.8282 1337.68 -60.2276 1336.05 -61.6271C1298.56 -94.9029 1255.99 -120.404 1209.54 -137.819C1206.49 -138.908 1203.64 -139.996 1200.58 -141.085C1157.19 -156.479 1112.58 -169.851 1068.17 -184.312C1028.65 -197.218 989.338 -211.368 948.19 -224.119C775.447 -277.298 576.63 -314.772 362.943 -315.083C294.498 -315.239 225.849 -311.818 158.015 -304.976C90.7918 -298.134 24.5876 -288.027 -39.9872 -274.966C-288.101 -224.897 -459.621 -126.624 -639.086 -28.8177C-651.512 -21.976 -664.346 -16.8446 -677.383 -12.0242C-684.92 -9.22534 -692.457 -6.58209 -700.198 -3.62769C-730.754 7.72342 -762.328 17.2087 -794.514 24.8279C-827.106 32.4471 -860.311 39.7554 -894.126 42.7098C-1127.57 63.0796 -1336.37 9.12298 -1395.04 26.2274" stroke="#612AA2" stroke-width="2.62628" stroke-miterlimit="10"/>
<path opacity="0.55" d="M2861.39 302.698C2817.6 327.111 2773.6 351.524 2730.21 377.025C2689.47 400.971 2650.56 426.005 2612.26 450.729C2572.74 476.386 2534.24 502.353 2495.95 528.01C2412.83 583.988 2330.94 637.478 2245.59 689.102C2042.7 811.943 1806.2 890.934 1534.86 899.798C1491.88 901.197 1448.08 900.731 1403.47 897.31C1368.84 894.666 1335.03 887.047 1303.25 875.851C1271.47 864.811 1242.14 849.728 1216.67 831.069C1188.36 810.388 1168.19 785.664 1156.78 760.474C1145.58 735.44 1143.54 709.939 1151.28 687.703C1177.97 610.889 1226.04 541.227 1277.99 460.059C1312.01 406.88 1344.8 341.883 1362.93 274.087C1373.73 233.503 1376.99 191.986 1372.31 151.868C1367.62 111.906 1353.97 73.6547 1329.93 38.6684C1319.34 23.2744 1307.73 8.3469 1292.86 -5.49212C1291.43 -6.89157 1290.01 -8.13549 1288.58 -9.53494C1253.34 -43.2773 1213.21 -70.0225 1169.21 -89.1483C1166.36 -90.3923 1163.51 -91.6361 1160.65 -92.7246C1119.51 -109.829 1076.93 -124.756 1034.97 -140.928C996.875 -155.544 958.782 -171.56 918.856 -186.021C751.206 -246.509 553.612 -289.892 338.702 -292.069C270.053 -292.846 200.997 -289.425 132.959 -282.428C65.5328 -275.431 -0.875391 -264.546 -65.2464 -250.552C-314.175 -196.595 -475.51 -89.1483 -645.197 16.588C-657.012 23.8963 -669.234 29.8051 -681.456 35.403C-688.586 38.6683 -695.919 41.7783 -703.049 44.8882C-732.383 57.7942 -762.735 68.8343 -794.309 77.6975C-826.088 86.7162 -858.68 95.4239 -892.292 99.4668C-1117.79 126.523 -1326.59 78.3194 -1393.61 98.0673" stroke="#612AA2" stroke-width="2.62628" stroke-miterlimit="10"/>
<path opacity="0.5" d="M2861.39 399.57C2817.19 423.05 2772.78 446.374 2728.99 470.942C2687.63 493.956 2648.32 517.746 2609.41 541.537C2569.28 566.105 2529.76 590.673 2490.65 615.086C2405.7 668.42 2321.37 718.49 2234.18 766.071C2026.81 879.427 1788.27 948.777 1519.18 951.11C1476.6 951.421 1433.21 950.021 1389.01 945.823C1354.79 942.558 1321.38 934.783 1289.8 923.743C1258.43 912.703 1229.1 897.931 1203.64 879.738C1175.32 859.679 1154.54 835.577 1141.91 811.009C1129.49 786.596 1125.82 761.717 1131.12 739.792C1149.45 663.6 1188.97 592.85 1234.6 511.215C1264.34 457.57 1294.29 392.728 1311.19 325.399C1321.18 285.126 1324.03 243.92 1319.55 204.269C1315.27 164.618 1302.23 126.677 1280.03 91.5353C1270.04 75.9859 1259.45 60.9029 1245.6 46.9084C1244.17 45.5089 1242.95 44.1094 1241.73 42.8654C1208.53 8.65662 1171.04 -19.1768 1129.69 -40.0131C1127.04 -41.4125 1124.4 -42.6565 1121.75 -43.9005C1083.04 -62.5598 1042.51 -79.1979 1002.58 -97.0797C965.708 -113.562 929.245 -131.289 890.337 -147.46C727.78 -215.1 531.204 -264.703 315.276 -268.59C246.22 -269.834 177.163 -266.724 108.922 -259.416C41.2917 -252.263 -25.1164 -240.601 -89.4875 -225.829C-339.231 -168.141 -490.177 -51.2088 -650.493 62.3023C-661.697 70.2325 -673.104 76.7633 -684.716 82.9831C-691.438 86.715 -698.364 90.1358 -705.29 93.7122C-733.198 108.329 -762.531 120.768 -793.291 131.031C-824.254 141.449 -856.236 151.556 -889.644 156.688C-1107 190.274 -1316 148.135 -1391.58 170.216" stroke="#612AA2" stroke-width="2.62628" stroke-miterlimit="10"/>
<path opacity="0.45" d="M2861.39 496.289C2816.78 518.68 2771.97 541.227 2727.56 564.551C2685.8 586.476 2645.87 609.333 2606.15 631.88C2565.21 655.204 2525.08 678.684 2485.15 701.697C2398.17 752.233 2311.8 798.881 2222.57 842.575C2010.72 946.601 1770.14 1006.31 1503.29 1002.11C1460.92 1001.49 1417.94 999.003 1374.34 994.027C1340.53 990.14 1307.53 982.209 1275.95 971.169C1244.79 960.285 1215.86 945.668 1190.19 927.942C1161.88 908.349 1140.28 885.025 1126.64 861.235C1112.99 837.444 1107.69 813.187 1110.34 791.573C1120.12 716.003 1151.28 644.32 1190.4 561.907C1215.86 507.64 1242.95 443.11 1258.64 376.247C1267.8 336.285 1270.04 295.545 1266.17 256.205C1262.1 216.865 1250.08 179.08 1229.51 143.938C1220.34 128.233 1210.56 112.994 1197.73 98.8443C1196.51 97.4449 1195.28 96.0455 1194.06 94.6461C1162.9 59.9708 1128.06 30.8932 1089.15 8.50199C1086.71 7.10254 1084.06 5.70301 1081.62 4.14806C1045.36 -16.2217 1006.86 -34.4145 968.968 -53.8513C933.523 -72.0442 898.485 -91.6366 860.8 -109.518C703.131 -184.467 507.778 -240.134 290.831 -245.732C221.571 -247.598 152.107 -244.643 83.6621 -237.18C15.8281 -229.716 -50.58 -217.587 -114.747 -201.727C-365.306 -140.151 -506.066 -13.8893 -656.605 107.397C-667.198 115.793 -677.994 123.102 -688.79 129.943C-695.105 133.986 -701.827 137.874 -708.346 141.916C-735.031 158.088 -763.347 171.927 -793.291 183.744C-823.644 195.562 -854.811 206.913 -888.015 213.288C-1097.22 253.251 -1306.43 217.176 -1390.35 241.899" stroke="#612AA2" stroke-width="2.62628" stroke-miterlimit="10"/>
<path opacity="0.4" d="M2861.39 593.006C2816.38 614.464 2771.15 635.923 2726.34 658.314C2684.17 679.306 2643.43 701.075 2603.3 722.533C2561.74 744.769 2520.59 766.849 2479.85 788.618C2390.83 836.2 2302.43 879.738 2211.17 919.545C1994.63 1014.09 1752.01 1064 1487.4 1053.27C1445.44 1051.56 1402.66 1048.29 1359.68 1042.54C1326.27 1038.03 1293.47 1029.79 1262.3 1018.91C1231.34 1008.02 1202.62 993.716 1176.75 976.611C1148.43 957.485 1126.23 934.939 1111.36 911.77C1096.69 888.757 1089.36 865.122 1089.77 843.663C1090.99 768.715 1113.8 695.944 1146.4 612.909C1167.58 558.175 1191.82 493.956 1206.08 427.404C1214.64 387.909 1216.27 347.48 1212.6 308.295C1208.93 269.266 1197.73 231.637 1178.78 196.65C1170.23 180.79 1161.47 165.551 1149.45 151.09C1148.23 149.691 1147.01 148.291 1145.99 146.892C1116.86 111.595 1084.67 81.5842 1048.41 57.3271C1046.17 55.7721 1043.73 54.2172 1041.28 52.6622C1007.26 30.7375 970.801 10.6787 935.153 -10.3131C901.134 -30.3719 867.319 -51.5193 830.855 -71.2671C678.28 -153.368 484.148 -215.255 265.979 -222.719C196.515 -225.207 126.644 -222.252 58.1992 -214.633C-9.8385 -207.014 -76.4503 -194.108 -140.414 -177.47C-391.787 -112.007 -522.158 23.7402 -663.327 152.645C-673.104 161.664 -683.29 169.594 -693.679 177.213C-699.79 181.723 -705.901 185.921 -712.012 190.275C-737.272 208.001 -764.568 223.395 -793.698 236.457C-823.236 249.674 -853.792 262.424 -886.792 269.888C-1087.85 315.759 -1297.26 286.371 -1389.54 313.427" stroke="#612AA2" stroke-width="2.62628" stroke-miterlimit="10"/>
<path opacity="0.35" d="M2861.39 689.878C2815.97 710.248 2770.34 730.929 2725.12 752.232C2682.54 772.291 2641.19 792.816 2600.24 813.186C2557.87 834.177 2516.11 855.014 2474.56 875.383C2383.5 920.166 2292.85 960.284 2199.76 996.203C1978.74 1081.26 1734.09 1121.53 1471.51 1104.27C1429.75 1101.47 1387.58 1097.27 1345.01 1090.74C1312.01 1085.77 1279.62 1077.22 1248.66 1066.33C1217.9 1055.45 1189.38 1041.61 1163.51 1024.81C1134.99 1006.15 1112.38 984.385 1096.28 961.994C1080.39 939.603 1071.43 916.59 1069.39 895.287C1062.26 820.96 1076.93 747.256 1102.8 663.6C1119.91 608.399 1141.1 544.335 1154.14 478.25C1161.88 439.066 1163.1 398.948 1159.64 360.23C1156.17 321.512 1145.99 284.193 1128.67 249.051C1120.93 233.191 1113.19 217.641 1101.99 203.025C1100.97 201.625 1099.75 200.226 1098.73 198.826C1071.64 163.063 1042.1 131.808 1008.28 105.996C1006.04 104.286 1004.01 102.731 1001.76 101.02C969.986 77.3851 935.764 55.7713 902.152 33.0691C869.559 11.1443 837.17 -11.7134 801.725 -33.1717C654.039 -122.581 461.129 -190.377 241.738 -199.706C172.071 -202.661 101.996 -200.017 33.1436 -192.087C-35.0979 -184.157 -101.71 -170.784 -165.673 -153.213C-417.658 -84.0184 -538.047 61.2136 -669.641 197.893C-678.808 207.534 -688.382 216.086 -697.957 224.327C-703.66 229.148 -709.364 233.968 -715.272 238.633C-739.309 258.07 -765.383 274.863 -793.698 289.324C-822.421 303.941 -852.366 317.935 -885.162 326.643C-1078.28 378.423 -1287.89 355.72 -1388.52 385.109" stroke="#612AA2" stroke-width="2.62628" stroke-miterlimit="10"/>
<path opacity="0.3" d="M2861.39 786.597C2815.56 806.034 2769.73 825.626 2723.89 845.841C2680.91 864.811 2638.95 884.403 2597.39 903.529C2554.41 923.432 2511.84 942.869 2469.26 961.995C2376.17 1003.98 2283.48 1040.83 2188.35 1072.71C1962.85 1148.43 1716.16 1178.75 1455.82 1155.12C1414.47 1151.39 1372.51 1146.1 1330.34 1138.79C1297.75 1133.19 1265.77 1124.49 1235.01 1113.6C1204.45 1102.87 1175.93 1089.19 1150.27 1073.02C1121.75 1054.98 1098.52 1033.83 1081.21 1012.06C1064.1 990.295 1053.51 967.904 1049.02 946.912C1033.34 873.208 1039.65 798.415 1059.01 714.137C1071.84 658.314 1090.17 594.717 1101.78 528.943C1108.71 490.069 1109.52 450.418 1106.27 412.011C1103.21 373.603 1093.84 336.44 1078.15 301.298C1071.02 285.282 1064.3 269.577 1053.91 254.805C1052.89 253.406 1051.88 251.851 1050.86 250.452C1025.8 214.221 998.912 181.723 967.542 154.356C965.505 152.645 963.467 150.78 961.43 149.069C932.097 123.879 900.115 100.399 868.541 76.2975C837.374 52.3514 806.207 27.9387 771.984 4.77001C629.186 -91.7922 437.499 -165.807 217.089 -176.848C147.015 -180.424 76.7362 -177.936 7.88367 -169.85C-60.5615 -161.765 -127.377 -147.615 -190.933 -129.111C-443.732 -56.0284 -553.733 98.5333 -675.753 242.988C-684.309 253.095 -693.068 262.425 -702.031 271.288C-707.327 276.575 -712.827 281.706 -718.328 286.837C-740.939 307.829 -766.198 326.178 -793.699 341.882C-821.606 357.898 -850.94 373.137 -883.533 383.244C-1068.91 440.466 -1278.31 424.761 -1387.3 456.793" stroke="#612AA2" stroke-width="2.62628" stroke-miterlimit="10"/>
<path opacity="0.25" d="M2861.6 883.314C2815.15 901.818 2768.91 920.477 2722.67 939.603C2679.28 957.641 2636.71 976.144 2594.34 994.182C2550.74 1012.84 2507.15 1031.03 2463.96 1048.92C2368.83 1088.1 2273.91 1121.69 2176.94 1149.68C1946.76 1216.07 1698.03 1236.6 1439.94 1206.43C1398.79 1201.61 1357.43 1195.39 1315.67 1187.46C1283.49 1181.24 1251.71 1172.38 1221.15 1161.49C1190.8 1150.76 1162.49 1137.39 1136.82 1121.69C1108.1 1104.12 1084.26 1083.9 1065.93 1062.75C1047.8 1041.76 1035.17 1019.84 1028.25 999.158C1003.8 926.075 1001.97 850.194 1014.8 765.294C1023.36 709.005 1038.84 645.563 1049.23 580.255C1055.34 541.692 1055.54 502.508 1052.69 464.412C1049.84 426.315 1041.49 389.308 1027.43 354.166C1020.91 337.994 1015.21 322.134 1005.84 307.207C1004.82 305.807 1004 304.252 1002.99 302.853C980.171 266.156 955.726 232.569 927.004 203.336C925.17 201.47 923.337 199.604 921.504 197.738C894.411 170.993 864.67 145.648 835.133 119.991C805.391 94.1789 775.65 68.0558 742.65 43.1767C604.741 -60.6938 414.48 -140.773 192.848 -153.524C122.569 -157.722 51.8836 -155.39 -17.1727 -146.993C-85.8215 -138.597 -152.637 -123.824 -216.193 -104.543C-469.807 -27.5733 -569.419 136.318 -682.068 288.547C-690.013 299.276 -698.161 309.228 -706.309 318.869C-711.198 324.622 -716.291 330.064 -721.383 335.507C-742.773 358.209 -766.81 377.801 -793.495 395.061C-820.588 412.476 -849.311 428.803 -881.7 440.31C-1059.33 502.974 -1268.54 494.422 -1385.87 528.786" stroke="#612AA2" stroke-width="2.62628" stroke-miterlimit="10"/>
<path opacity="0.2" d="M2861.6 980.032C2814.75 997.603 2768.1 1015.33 2721.45 1033.52C2677.65 1050.63 2634.47 1067.89 2591.48 1084.84C2547.08 1102.25 2502.87 1119.2 2458.87 1135.84C2361.91 1172.22 2264.74 1202.39 2165.74 1226.49C1931.07 1283.4 1680.51 1293.82 1424.45 1257.59C1383.51 1251.68 1342.56 1244.53 1301.41 1235.82C1269.64 1228.98 1238.27 1219.96 1207.91 1209.23C1177.97 1198.66 1149.65 1185.44 1123.99 1170.2C1095.26 1153.25 1070.82 1133.66 1051.26 1113.14C1031.91 1092.77 1017.65 1071.46 1008.28 1051.09C975.282 978.633 965.097 901.663 971.615 816.296C975.893 759.541 988.523 696.254 997.486 631.413C1002.78 593.161 1002.58 554.443 999.93 516.502C997.282 478.717 989.949 441.865 977.726 406.879C972.023 390.552 967.134 374.536 958.578 359.608C957.763 358.053 956.745 356.654 955.93 355.099C935.152 317.78 913.355 283.105 887.077 252.317C885.448 250.296 883.614 248.274 881.985 246.408C857.336 217.953 829.632 190.897 802.132 163.685C774.02 136.007 745.298 108.329 713.52 81.7394C580.5 -29.4393 391.461 -115.583 168.81 -130.044C98.3283 -134.709 27.4386 -132.532 -41.8214 -123.98C-110.674 -115.428 -177.49 -99.8784 -241.046 -79.8196C-495.271 1.03761 -584.494 174.259 -687.772 334.263C-695.106 345.458 -702.439 356.032 -710.18 366.45C-714.662 372.514 -719.347 378.579 -724.236 384.332C-744.199 408.589 -767.218 429.736 -793.089 448.24C-819.367 467.211 -847.682 484.626 -879.663 497.377C-1049.76 565.172 -1258.56 563.928 -1384.24 600.781" stroke="#612AA2" stroke-width="2.62628" stroke-miterlimit="10"/>
<path opacity="0.15" d="M2861.6 1076.91C2814.54 1093.39 2767.28 1110.18 2720.23 1127.29C2675.82 1143.3 2632.22 1159.63 2588.43 1175.33C2543.41 1191.66 2498.19 1207.37 2453.37 1222.45C2354.37 1256.04 2255.17 1283.09 2154.13 1302.99C1914.98 1350.89 1662.38 1351.2 1408.36 1308.28C1367.82 1301.28 1327.08 1293.35 1286.54 1283.71C1255.17 1276.25 1224.21 1267.08 1194.06 1256.35C1164.32 1245.77 1136.21 1232.87 1110.54 1218.25C1081.82 1201.77 1056.76 1182.95 1036.19 1163.2C1015.62 1143.46 999.523 1122.78 987.912 1102.72C946.356 1030.88 927.818 952.976 927.818 866.832C927.818 809.455 937.596 746.635 945.337 682.104C949.819 644.164 949.208 605.757 946.967 568.282C944.726 530.808 938.207 494.111 927.615 459.125C922.522 442.643 918.855 426.471 911.115 411.388C910.3 409.833 909.485 408.434 908.67 406.879C889.929 369.094 870.985 333.175 847.151 300.832C845.521 298.655 844.095 296.633 842.466 294.612C820.058 264.601 794.798 235.679 769.131 207.068C742.65 177.369 714.946 148.136 684.39 119.836C556.259 1.50448 368.442 -90.7039 144.773 -107.031C74.0872 -112.318 2.79025 -110.296 -66.4697 -101.588C-135.526 -92.8808 -202.545 -76.7092 -265.898 -55.5619C-520.937 29.3381 -599.772 211.733 -693.68 379.512C-700.402 391.33 -707.125 402.525 -714.051 413.565C-718.125 420.096 -722.606 426.471 -727.088 432.691C-745.625 458.503 -767.625 481.205 -792.885 501.109C-818.348 521.479 -846.256 539.982 -877.83 554.132C-1040.79 627.059 -1248.78 633.279 -1383.02 672.619" stroke="#612AA2" stroke-width="2.62628" stroke-miterlimit="10"/>
<path opacity="0.1" d="M2861.6 1173.62C2814.13 1189.17 2766.47 1205.03 2719 1221.05C2674.19 1236.13 2629.78 1251.37 2585.58 1265.99C2539.74 1281.07 2493.91 1295.53 2448.28 1309.37C2347.24 1340 2245.79 1363.79 2142.72 1379.96C1898.88 1418.53 1644.25 1409.04 1392.68 1359.59C1352.34 1351.66 1312.21 1342.65 1272.08 1332.38C1241.12 1324.45 1210.36 1314.97 1180.62 1304.24C1151.08 1293.66 1123.17 1281.23 1097.51 1266.92C1068.58 1250.9 1043.12 1232.87 1021.32 1213.74C999.727 1194.77 981.8 1174.71 967.745 1154.65C917.429 1083.59 890.54 1004.44 884.225 917.679C879.744 859.835 886.873 797.17 893.392 733.106C897.059 695.477 896.04 657.536 894.003 620.373C891.966 583.21 886.466 546.824 877.503 511.682C873.225 495.2 870.373 478.717 863.651 463.479C863.04 461.924 862.225 460.369 861.614 458.969C844.91 420.718 828.614 383.554 807.225 349.501C805.799 347.324 804.576 345.147 803.15 342.97C782.984 311.249 760.168 280.617 736.538 250.451C711.686 218.886 685.205 187.942 655.667 157.932C532.425 32.292 346.034 -65.9806 121.143 -84.0179C50.0499 -89.9267 -21.4507 -88.0609 -90.9144 -79.0422C-160.174 -70.0235 -227.194 -53.23 -290.342 -31.3052C-545.993 57.4822 -614.438 249.207 -698.976 424.761C-704.884 437.2 -710.995 449.018 -717.31 460.835C-720.977 467.833 -725.051 474.519 -729.125 481.205C-746.44 508.728 -767.421 532.829 -791.662 554.132C-816.515 575.901 -843.811 595.494 -874.978 611.043C-1031.02 688.946 -1237.98 702.629 -1380.58 744.457" stroke="#612AA2" stroke-width="2.62628" stroke-miterlimit="10"/>
<path opacity="0.05" d="M2861.6 1270.34C2813.73 1284.8 2765.65 1299.88 2717.58 1314.66C2672.35 1328.81 2627.34 1342.8 2582.32 1356.33C2535.87 1370.32 2489.22 1383.39 2442.57 1395.98C2339.5 1423.81 2236.02 1444.34 2130.9 1456.47C1882.38 1485.55 1625.92 1466.42 1376.38 1410.44C1336.45 1401.42 1296.53 1391.47 1257.01 1380.43C1226.45 1371.88 1196.1 1362.08 1166.36 1351.51C1137.02 1341.09 1109.32 1328.81 1083.45 1314.97C1054.52 1299.57 1028.45 1282.16 1005.43 1263.65C982.615 1245.31 963.06 1225.87 946.559 1206.12C887.688 1135.84 852.447 1055.45 839.817 968.214C831.058 909.748 835.336 847.395 840.429 783.953C843.484 746.635 841.651 709.16 840.021 672.153C838.392 635.3 833.91 599.07 826.373 563.928C822.91 547.291 820.873 530.653 814.965 515.259C814.354 513.704 813.743 512.149 813.132 510.594C798.465 471.72 784.817 433.624 766.076 397.86C764.854 395.528 763.632 393.195 762.409 390.863C744.687 357.587 724.113 325.244 702.316 293.368C679.094 259.781 653.63 227.283 625.519 195.562C507.166 62.6138 321.997 -41.7231 96.0874 -61.4709C24.7903 -67.8462 -46.9139 -66.1357 -116.581 -56.9616C-186.045 -47.7874 -253.064 -30.2164 -316.213 -7.35873C-572.475 85.3161 -630.327 286.526 -705.902 469.699C-711.199 482.605 -716.699 495.2 -722.199 507.639C-725.458 514.948 -729.125 522.1 -732.995 529.098C-748.884 558.175 -768.847 583.832 -792.274 606.378C-816.311 629.547 -843.2 650.228 -873.96 667.177C-1023.28 750.055 -1229.22 771.358 -1379.96 815.674" stroke="#612AA2" stroke-width="2.62628" stroke-miterlimit="10"/>
<path opacity="0.05" d="M2861.6 1367.21C2813.32 1380.74 2764.84 1394.74 2716.36 1408.58C2670.73 1421.64 2625.1 1434.7 2579.26 1447.14C2532 1459.89 2484.74 1471.71 2437.28 1483.06C2332.37 1508.09 2226.44 1525.2 2119.5 1533.44C1866.49 1553.03 1607.99 1524.11 1360.69 1461.75C1320.97 1451.65 1281.66 1440.76 1242.54 1428.94C1212.4 1419.77 1182.45 1409.82 1152.91 1399.25C1123.78 1388.83 1096.28 1376.85 1070.41 1363.64C1041.28 1348.71 1014.6 1332.07 990.56 1314.35C966.522 1296.77 945.133 1277.96 926.189 1258.37C858.558 1188.86 815.169 1107.23 796.021 1019.37C782.984 960.44 784.613 898.242 788.28 835.266C790.521 798.259 788.28 761.095 786.854 724.554C785.428 688.013 781.965 651.938 776.058 616.952C773.206 600.159 772.391 583.365 767.298 567.816C766.687 566.261 766.076 564.706 765.669 563.151C752.835 523.655 742.039 484.471 725.742 447.152C724.724 444.664 723.705 442.332 722.483 439.844C707.001 405.013 689.075 370.804 668.908 337.528C647.519 302.075 623.074 267.867 595.981 234.435C482.517 94.179 298.571 -16.0666 71.6427 -37.6803C0.141926 -44.6776 -71.9698 -43.1227 -141.841 -33.6375C-211.712 -24.1524 -278.527 -5.95948 -341.676 17.6757C-598.753 114.393 -646.216 324.778 -712.421 515.725C-717.106 529.253 -721.791 542.47 -726.884 555.532C-729.94 563.306 -732.995 570.926 -736.662 578.234C-751.125 609.022 -770.07 636.078 -792.885 660.024C-816.107 684.592 -842.793 706.206 -872.941 724.865C-1015.74 812.72 -1220.26 841.642 -1379.56 888.29" stroke="#612AA2" stroke-width="2.62628" stroke-miterlimit="10"/>
<path opacity="0.05" d="M2861.6 1463.93C2766.88 1488.34 2672.15 1514.31 2576.41 1537.64C2528.54 1549.3 2480.47 1560.18 2431.98 1569.67C2000.94 1662.96 1540.57 1591.44 1139.27 1446.83C854.079 1344.2 711.485 1117.18 736.133 886.114C735.115 849.417 734.911 812.72 733.689 776.49C732.67 740.26 730.633 704.341 725.744 669.354C723.707 650.695 723.707 632.036 718.003 615.087C709.855 574.814 699.059 534.851 685.411 495.667C671.762 456.638 655.262 418.075 635.706 380.756C616.151 343.438 593.335 307.207 566.65 272.376C460.927 123.568 275.555 8.50203 47.4041 -14.8222C-24.3004 -22.4414 -96.8197 -21.0421 -166.691 -11.4015C-236.562 -1.7608 -304.396 16.1213 -366.526 41.6224C-644.992 145.182 -665.363 393.973 -730.548 602.336C-805.92 841.798 -1129.81 886.891 -1377.52 959.507" stroke="#612AA2" stroke-width="2.62628" stroke-miterlimit="10"/>
<g style="mix-blend-mode:overlay" opacity="0.05">
<path d="M2861.19 -471.355C2820.65 -439.012 2780.52 -406.514 2740.19 -373.082C2583.54 -235.625 2471.5 -83.2402 2337.06 75.3643C2172.06 274.397 1950.02 429.892 1661.37 491.312C1616.14 500.798 1569.09 507.639 1520.2 510.749C1482.51 512.304 1445.84 506.862 1412.23 495.355C1378.62 483.849 1348.07 466.433 1322.6 443.887C1295.1 419.007 1279.42 388.22 1277.38 357.743C1275.34 327.266 1287.16 296.944 1314.66 272.843C1408.36 190.43 1524.47 129.787 1628.36 53.5951C1797.44 -67.6907 1891.15 -302.488 1675.22 -422.218C1618.18 -456.427 1550.96 -475.087 1479.66 -479.751C1420.18 -484.105 1360.7 -486.904 1301.42 -488.615C662.799 -506.185 47.6078 -454.872 -596.103 -346.026C-622.584 -341.361 -651.103 -342.916 -678.603 -342.605C-718.326 -342.139 -757.234 -343.227 -795.327 -345.249C-833.42 -347.426 -870.494 -350.691 -906.347 -354.889C-1193.57 -388.01 -1404 -476.175 -1404 -476.175" stroke="white" stroke-width="2.62628" stroke-miterlimit="10"/>
</g>
</g>
<defs>
<linearGradient id="paint0_linear_1233_682" x1="646" y1="937" x2="1812" y2="450" gradientUnits="userSpaceOnUse">
<stop stop-color="#180A29"/>
<stop offset="1" stop-color="#301551"/>
</linearGradient>
<linearGradient id="paint1_linear_1233_682" x1="72.2132" y1="863.786" x2="168.296" y2="260.788" gradientUnits="userSpaceOnUse">
<stop stop-color="#7934CB"/>
<stop offset="1" stop-color="#7934CB" stop-opacity="0"/>
</linearGradient>
<linearGradient id="paint2_linear_1233_682" x1="1552" y1="-53.5" x2="400.173" y2="653.397" gradientUnits="userSpaceOnUse">
<stop stop-color="#3F2262"/>
<stop offset="1" stop-opacity="0"/>
</linearGradient>
<linearGradient id="paint3_linear_1233_682" x1="369.812" y1="-12.0424" x2="298.893" y2="514.935" gradientUnits="userSpaceOnUse">
<stop stop-color="#1C0C30"/>
<stop offset="1" stop-color="#7934CB"/>
</linearGradient>
<linearGradient id="paint4_linear_1233_682" x1="1256.66" y1="1088.04" x2="1298.31" y2="554.775" gradientUnits="userSpaceOnUse">
<stop stop-color="#1C0C30"/>
<stop offset="1" stop-color="#7934CB"/>
</linearGradient>
<linearGradient id="paint5_linear_1233_682" x1="1253" y1="-2.06411e-05" x2="760" y2="1080" gradientUnits="userSpaceOnUse">
<stop stop-color="#2A1757"/>
<stop offset="1" stop-color="#2A1757" stop-opacity="0"/>
</linearGradient>
<linearGradient id="paint6_linear_1233_682" x1="-226.5" y1="1892.5" x2="318" y2="247.5" gradientUnits="userSpaceOnUse">
<stop/>
<stop offset="1" stop-opacity="0"/>
</linearGradient>
<linearGradient id="paint7_linear_1233_682" x1="1693.69" y1="76.6686" x2="1932.68" y2="483.741" gradientUnits="userSpaceOnUse">
<stop stop-opacity="0.927581"/>
<stop offset="1" stop-opacity="0"/>
</linearGradient>
<clipPath id="clip0_1233_682">
<rect width="1920" height="1080" fill="white"/>
</clipPath>
<clipPath id="clip1_1233_682">
<rect width="1920" height="1080" fill="white"/>
</clipPath>
</defs>
</svg>
