<svg width="24" height="24" viewBox="0 0 24 24" fill="none" xmlns="http://www.w3.org/2000/svg">
<path d="M7.64044 9.53894C7.96969 9.20969 8.33494 8.93819 8.72344 8.72369C10.6406 7.66713 13.0371 8.04355 14.5273 9.60876C14.8694 9.96813 14.8052 10.5273 14.4543 10.8781C13.9341 11.398 13.0109 11.2091 12.3868 10.8201C11.8405 10.4797 11.1679 10.3474 10.4972 10.4974C10.0479 10.5979 9.62119 10.8222 9.27244 11.1709L6.04444 14.4004C5.06419 15.3807 5.06419 16.9752 6.04444 17.9554C7.02469 18.9357 8.61919 18.9357 9.59944 17.9554L10.1935 17.3614C10.437 17.1179 10.8044 17.049 11.1346 17.1467C11.9019 17.3738 12.3515 18.4689 11.7857 19.0347L11.2322 19.5882C9.34894 21.4714 6.29569 21.4714 4.41244 19.5882C2.52919 17.7049 2.52919 14.6517 4.41244 12.7684L7.64044 9.53894ZM12.7674 4.41194L12.2146 4.96481C11.649 5.53037 12.0989 6.62641 12.8659 6.85318C13.1956 6.95068 13.5623 6.88178 13.8055 6.63863L14.3994 6.04469C15.3797 5.06444 16.9742 5.06444 17.9544 6.04469C18.9347 7.02494 18.9347 8.61944 17.9544 9.59969L14.7257 12.8284C13.7424 13.8117 12.1457 13.8034 11.1707 12.8284C10.8429 12.5006 10.2717 12.3937 9.94384 12.7215L9.54409 13.121C9.19298 13.472 9.12618 14.0331 9.47004 14.3912C9.4922 14.4142 9.51482 14.4373 9.53794 14.4604C10.1469 15.0694 10.9224 15.5232 11.8149 15.7384C12.9714 16.0167 14.2104 15.8629 15.2747 15.2757C15.6632 15.0612 16.0284 14.7897 16.3577 14.4604L19.5857 11.2317C21.4697 9.34844 21.4697 6.29519 19.5864 4.41194C17.7032 2.52944 14.6507 2.52944 12.7674 4.41194Z" fill="#D0D4DA"/>
</svg>
