<svg width="33" height="33" viewBox="0 0 33 33" fill="none" xmlns="http://www.w3.org/2000/svg">
<path d="M3.91504 9.18725C3.91504 5.87354 6.60133 3.18726 9.91504 3.18726H23.7616C27.0753 3.18726 29.7616 5.87355 29.7616 9.18726V23.0338C29.7616 26.3475 27.0753 29.0338 23.7616 29.0338H9.91504C6.60133 29.0338 3.91504 26.3475 3.91504 23.0338V9.18725Z" fill="white"/>
<path fill-rule="evenodd" clip-rule="evenodd" d="M9.33062 2.11053C5.76346 2.11053 2.91336 5.05412 2.91336 8.57207L2.83838 23.649C2.83838 27.2387 5.76345 30.1105 9.25928 30.1105H24.3127C27.8799 30.1105 30.8384 27.1669 30.8384 23.649L30.8105 8.16193C30.5979 4.76606 27.7457 2.11053 24.3841 2.11053H9.33062ZM28.0186 8.40139C27.9289 6.47313 26.3268 4.98233 24.4554 4.98233H9.25928C7.33301 4.91053 5.69211 6.56182 5.69211 8.57207L5.68794 23.649H5.69211C5.69211 25.6593 7.33301 27.2387 9.25928 27.2387H24.3127C26.3103 27.2387 27.9846 25.5875 27.9846 23.649L28.0186 8.40139Z" fill="url(#paint0_linear_5925_1673)"/>
<path fill-rule="evenodd" clip-rule="evenodd" d="M9.33062 2.11053C5.76346 2.11053 2.91336 5.05412 2.91336 8.57207L2.83838 23.649C2.83838 27.2387 5.76345 30.1105 9.25928 30.1105H24.3127C27.8799 30.1105 30.8384 27.1669 30.8384 23.649L30.8105 8.16193C30.5979 4.76606 27.7457 2.11053 24.3841 2.11053H9.33062ZM28.0186 8.40139C27.9289 6.47313 26.3268 4.98233 24.4554 4.98233H9.25928C7.33301 4.91053 5.69211 6.56182 5.69211 8.57207L5.68794 23.649H5.69211C5.69211 25.6593 7.33301 27.2387 9.25928 27.2387H24.3127C26.3103 27.2387 27.9846 25.5875 27.9846 23.649L28.0186 8.40139Z" fill="url(#paint1_linear_5925_1673)"/>
<path fill-rule="evenodd" clip-rule="evenodd" d="M9.33062 2.11053C5.76346 2.11053 2.91336 5.05412 2.91336 8.57207L2.83838 23.649C2.83838 27.2387 5.76345 30.1105 9.25928 30.1105H24.3127C27.8799 30.1105 30.8384 27.1669 30.8384 23.649L30.8105 8.16193C30.5979 4.76606 27.7457 2.11053 24.3841 2.11053H9.33062ZM28.0186 8.40139C27.9289 6.47313 26.3268 4.98233 24.4554 4.98233H9.25928C7.33301 4.91053 5.69211 6.56182 5.69211 8.57207L5.68794 23.649H5.69211C5.69211 25.6593 7.33301 27.2387 9.25928 27.2387H24.3127C26.3103 27.2387 27.9846 25.5875 27.9846 23.649L28.0186 8.40139Z" fill="url(#paint2_linear_5925_1673)"/>
<path d="M10.2881 13.069C10.2881 12.4278 10.2881 12.1072 10.4683 11.8741C10.6485 11.641 10.9588 11.5602 11.5793 11.3988L12.3763 11.1914C13.3697 10.933 13.8664 10.8038 14.2015 11.0628C14.5366 11.3219 14.5366 11.8352 14.5366 12.8616V18.0048C14.5366 18.7269 14.5366 19.0879 14.3221 19.3322C14.1075 19.5765 13.7495 19.623 13.0335 19.7162L12.2365 19.8199C11.3288 19.9379 10.875 19.997 10.5815 19.7392C10.2881 19.4815 10.2881 19.0238 10.2881 18.1085V13.069Z" fill="url(#paint3_linear_5925_1673)"/>
<path d="M19.0969 12.8616C19.0969 11.8352 19.0969 11.3219 19.432 11.0628C19.7671 10.8038 20.2638 10.933 21.2572 11.1914L22.0542 11.3988C22.6748 11.5602 22.985 11.641 23.1653 11.8741C23.3455 12.1072 23.3455 12.4278 23.3455 13.069V18.1085C23.3455 19.0238 23.3455 19.4815 23.052 19.7392C22.7586 19.997 22.3047 19.9379 21.3971 19.8199L20.6001 19.7162C19.8841 19.623 19.5261 19.5765 19.3115 19.3322C19.0969 19.0879 19.0969 18.7269 19.0969 18.0048V12.8616Z" fill="url(#paint4_linear_5925_1673)"/>
<defs>
<linearGradient id="paint0_linear_5925_1673" x1="2.83838" y1="30.1105" x2="34.9327" y2="24.1477" gradientUnits="userSpaceOnUse">
<stop stop-color="#FF4087"/>
<stop offset="1" stop-color="#FFC056"/>
</linearGradient>
<linearGradient id="paint1_linear_5925_1673" x1="16.8384" y1="16.1105" x2="-1.16087" y2="25.612" gradientUnits="userSpaceOnUse">
<stop offset="0.631405" stop-color="#FF6DE8" stop-opacity="0"/>
<stop offset="1" stop-color="#DA6EA2"/>
</linearGradient>
<linearGradient id="paint2_linear_5925_1673" x1="21.8384" y1="12.1105" x2="32.8382" y2="10.1097" gradientUnits="userSpaceOnUse">
<stop offset="0.640157" stop-color="#FFE43E" stop-opacity="0"/>
<stop offset="1" stop-color="#FFE43E"/>
</linearGradient>
<linearGradient id="paint3_linear_5925_1673" x1="14.0464" y1="10.6294" x2="9.19153" y2="14.8884" gradientUnits="userSpaceOnUse">
<stop stop-color="#545454"/>
<stop offset="1"/>
</linearGradient>
<linearGradient id="paint4_linear_5925_1673" x1="22.8553" y1="10.6294" x2="18.0004" y2="14.8884" gradientUnits="userSpaceOnUse">
<stop stop-color="#545454"/>
<stop offset="1"/>
</linearGradient>
</defs>
</svg>
