<svg width="33" height="33" viewBox="0 0 33 33" fill="none" xmlns="http://www.w3.org/2000/svg">
<path d="M3.91504 9.07672C3.91504 5.76301 6.60133 3.07672 9.91504 3.07672H23.7616C27.0753 3.07672 29.7616 5.76301 29.7616 9.07672V22.9233C29.7616 26.237 27.0753 28.9233 23.7616 28.9233H9.91504C6.60133 28.9233 3.91504 26.237 3.91504 22.9233V9.07672Z" fill="white"/>
<path fill-rule="evenodd" clip-rule="evenodd" d="M9.33062 2C5.76346 2 2.91336 4.94359 2.91336 8.46154L2.83838 23.5385C2.83838 27.1282 5.76345 30 9.25928 30H24.3127C27.8799 30 30.8384 27.0564 30.8384 23.5385L30.8105 8.05139C30.5979 4.65552 27.7457 2 24.3841 2H9.33062ZM28.0186 8.29085C27.9289 6.36259 26.3268 4.8718 24.4554 4.8718H9.25928C7.33301 4.8 5.69211 6.45128 5.69211 8.46154L5.68794 23.5385H5.69211C5.69211 25.5487 7.33301 27.1282 9.25928 27.1282H24.3127C26.3103 27.1282 27.9846 25.4769 27.9846 23.5385L28.0186 8.29085Z" fill="url(#paint0_linear_5925_1689)"/>
<path fill-rule="evenodd" clip-rule="evenodd" d="M9.33062 2C5.76346 2 2.91336 4.94359 2.91336 8.46154L2.83838 23.5385C2.83838 27.1282 5.76345 30 9.25928 30H24.3127C27.8799 30 30.8384 27.0564 30.8384 23.5385L30.8105 8.05139C30.5979 4.65552 27.7457 2 24.3841 2H9.33062ZM28.0186 8.29085C27.9289 6.36259 26.3268 4.8718 24.4554 4.8718H9.25928C7.33301 4.8 5.69211 6.45128 5.69211 8.46154L5.68794 23.5385H5.69211C5.69211 25.5487 7.33301 27.1282 9.25928 27.1282H24.3127C26.3103 27.1282 27.9846 25.4769 27.9846 23.5385L28.0186 8.29085Z" fill="url(#paint1_linear_5925_1689)"/>
<path fill-rule="evenodd" clip-rule="evenodd" d="M9.33062 2C5.76346 2 2.91336 4.94359 2.91336 8.46154L2.83838 23.5385C2.83838 27.1282 5.76345 30 9.25928 30H24.3127C27.8799 30 30.8384 27.0564 30.8384 23.5385L30.8105 8.05139C30.5979 4.65552 27.7457 2 24.3841 2H9.33062ZM28.0186 8.29085C27.9289 6.36259 26.3268 4.8718 24.4554 4.8718H9.25928C7.33301 4.8 5.69211 6.45128 5.69211 8.46154L5.68794 23.5385H5.69211C5.69211 25.5487 7.33301 27.1282 9.25928 27.1282H24.3127C26.3103 27.1282 27.9846 25.4769 27.9846 23.5385L28.0186 8.29085Z" fill="url(#paint2_linear_5925_1689)"/>
<rect x="10.6799" y="9.56915" width="3.98551" height="8.86915" rx="0.862894" fill="url(#paint3_linear_5925_1689)"/>
<rect x="18.9431" y="9.56915" width="3.98551" height="8.86915" rx="0.862894" fill="url(#paint4_linear_5925_1689)"/>
<defs>
<linearGradient id="paint0_linear_5925_1689" x1="2.83838" y1="30" x2="34.9327" y2="24.0372" gradientUnits="userSpaceOnUse">
<stop stop-color="#FF4087"/>
<stop offset="1" stop-color="#FFC056"/>
</linearGradient>
<linearGradient id="paint1_linear_5925_1689" x1="16.8384" y1="16" x2="-1.16087" y2="25.5014" gradientUnits="userSpaceOnUse">
<stop offset="0.631405" stop-color="#FF6DE8" stop-opacity="0"/>
<stop offset="1" stop-color="#DA6EA2"/>
</linearGradient>
<linearGradient id="paint2_linear_5925_1689" x1="21.8384" y1="12" x2="32.8382" y2="9.99913" gradientUnits="userSpaceOnUse">
<stop offset="0.640157" stop-color="#FFE43E" stop-opacity="0"/>
<stop offset="1" stop-color="#FFE43E"/>
</linearGradient>
<linearGradient id="paint3_linear_5925_1689" x1="14.2056" y1="9.56915" x2="9.64682" y2="13.5638" gradientUnits="userSpaceOnUse">
<stop stop-color="#545454"/>
<stop offset="1"/>
</linearGradient>
<linearGradient id="paint4_linear_5925_1689" x1="22.4688" y1="9.56915" x2="17.91" y2="13.5638" gradientUnits="userSpaceOnUse">
<stop stop-color="#545454"/>
<stop offset="1"/>
</linearGradient>
</defs>
</svg>
