<svg width="24" height="24" viewBox="0 0 24 24" fill="none" xmlns="http://www.w3.org/2000/svg">
<rect x="3.2948" y="17.3585" width="17.4104" height="1.90426" rx="0.388625" fill="#808080"/>
<path d="M10.8397 11.0018C11.0298 10.8998 11.0609 10.6399 10.9001 10.496L7.09223 7.0879C6.83007 6.85327 6.91223 6.42392 7.24248 6.30264L7.80799 6.09497C8.53554 5.82779 9.34013 5.86559 10.0394 6.19981L14.7289 8.44103C15.0289 8.5844 15.3789 8.57675 15.6732 8.42199C15.8722 8.31731 16.0158 8.2427 16.0906 8.20529C17.4426 7.42486 19.2004 7.49539 19.9103 7.62821L20.6536 7.88884C21.5413 8.20013 21.6025 9.43228 20.7499 9.82995L8.99284 15.3139C7.86746 15.8388 6.53393 15.6038 5.65585 14.7257L3.80638 12.8762C3.61417 12.684 3.67362 12.3589 3.92142 12.2471L5.51081 11.5304L7.65424 12.712C8.50593 12.2541 9.65852 11.6351 10.8397 11.0018Z" fill="#808080"/>
</svg>
