<svg width="24" height="24" viewBox="0 0 24 24" fill="none" xmlns="http://www.w3.org/2000/svg">
<rect x="3.2948" y="17.3585" width="17.4104" height="1.90426" rx="0.388625" fill="#808080"/>
<path d="M10.5262 9.91015C10.7328 9.97251 10.9385 9.81073 10.9266 9.59531L10.6439 4.4928C10.6244 4.14151 10.9861 3.89601 11.3054 4.04378L11.8521 4.2968C12.5555 4.62234 13.0977 5.218 13.3559 5.9488L15.087 10.8495C15.1978 11.163 15.4507 11.4052 15.7682 11.5038C15.983 11.5705 16.1372 11.6192 16.2166 11.6457C17.7244 12.0499 18.9175 13.3427 19.3256 13.9386L19.6669 14.6485C20.0745 15.4963 19.2465 16.4108 18.3624 16.0892L6.17117 11.6534C5.00423 11.2288 4.22749 10.1196 4.22749 8.87785V6.2623C4.22749 5.99047 4.49941 5.80263 4.75365 5.89883L6.38436 6.51585L7.06446 8.86703C7.99046 9.14548 9.2432 9.52277 10.5262 9.91015Z" fill="#808080"/>
</svg>
