<svg width="379" height="301" viewBox="0 0 379 301" fill="none" xmlns="http://www.w3.org/2000/svg">
<g clip-path="url(#clip0_917_5806)">
<g filter="url(#filter0_b_917_5806)">
<g filter="url(#filter1_b_917_5806)">
<rect x="0.25" y="-27" width="379" height="83" rx="12" fill="#200A3C" fill-opacity="0.54"/>
<rect x="1.25" y="-26" width="377" height="81" rx="11" stroke="url(#paint0_linear_917_5806)" stroke-width="2"/>
</g>
<g filter="url(#filter2_b_917_5806)">
<path d="M-26 64H405.5" stroke="black" stroke-opacity="0.1" stroke-width="2" style="mix-blend-mode:overlay"/>
</g>
<g filter="url(#filter3_b_917_5806)">
<rect x="0.25" y="72" width="379" height="143" rx="12" fill="#200A3C"/>
<path d="M19.505 88.8182H17.4815L14.9609 90.4141V92.3232L17.2926 90.8615H17.3523V99H19.505V88.8182ZM25.9171 99.2237C28.4775 99.2237 30.0236 97.2749 30.0286 93.919C30.0336 90.5881 28.4675 88.679 25.9171 88.679C23.3617 88.679 21.8105 90.5831 21.8056 93.919C21.7956 97.2649 23.3517 99.2188 25.9171 99.2237ZM25.9171 97.4389C24.7488 97.4389 23.9931 96.2656 23.998 93.919C24.003 91.6072 24.7537 90.4439 25.9171 90.4439C27.0755 90.4439 27.8311 91.6072 27.8311 93.919C27.8361 96.2656 27.0804 97.4389 25.9171 97.4389ZM32.8214 92.8253C33.4577 92.8253 34.0096 92.2933 34.0146 91.6321C34.0096 90.9808 33.4577 90.4489 32.8214 90.4489C32.1651 90.4489 31.6232 90.9808 31.6282 91.6321C31.6232 92.2933 32.1651 92.8253 32.8214 92.8253ZM32.8214 97.8168C33.4577 97.8168 34.0096 97.2848 34.0146 96.6236C34.0096 95.9723 33.4577 95.4403 32.8214 95.4403C32.1651 95.4403 31.6232 95.9723 31.6282 96.6236C31.6232 97.2848 32.1651 97.8168 32.8214 97.8168ZM39.7257 99.2237C42.286 99.2237 43.8322 97.2749 43.8372 93.919C43.8422 90.5881 42.2761 88.679 39.7257 88.679C37.1703 88.679 35.6191 90.5831 35.6142 93.919C35.6042 97.2649 37.1603 99.2188 39.7257 99.2237ZM39.7257 97.4389C38.5574 97.4389 37.8017 96.2656 37.8066 93.919C37.8116 91.6072 38.5623 90.4439 39.7257 90.4439C40.8841 90.4439 41.6397 91.6072 41.6397 93.919C41.6447 96.2656 40.889 97.4389 39.7257 97.4389ZM49.3643 99.2237C51.9247 99.2237 53.4709 97.2749 53.4759 93.919C53.4808 90.5881 51.9148 88.679 49.3643 88.679C46.8089 88.679 45.2578 90.5831 45.2528 93.919C45.2429 97.2649 46.799 99.2188 49.3643 99.2237ZM49.3643 97.4389C48.196 97.4389 47.4403 96.2656 47.4453 93.919C47.4503 91.6072 48.201 90.4439 49.3643 90.4439C50.5227 90.4439 51.2784 91.6072 51.2784 93.919C51.2834 96.2656 50.5277 97.4389 49.3643 97.4389ZM60.0657 99L60.8214 96.6783H64.4954L65.2511 99H67.5579L64.0479 88.8182H61.2738L57.7589 99H60.0657ZM61.3683 94.9979L62.6211 91.1449H62.7006L63.9535 94.9979H61.3683ZM68.7834 88.8182V99H70.8714V92.348H70.956L73.5909 98.9503H75.0128L77.6477 92.3729H77.7322V99H79.8203V88.8182H77.1655L74.3615 95.6591H74.2422L71.4382 88.8182H68.7834Z" fill="#8F56D4"/>
<path opacity="0.4" d="M32.4701 193.83L32.8601 196.99C32.9601 197.82 32.0701 198.4 31.3601 197.97L27.1701 195.48C26.7101 195.48 26.2601 195.45 25.8201 195.39C26.5601 194.52 27.0001 193.42 27.0001 192.23C27.0001 189.39 24.5401 187.09 21.5001 187.09C20.3401 187.09 19.2701 187.42 18.3801 188C18.3501 187.75 18.3401 187.5 18.3401 187.24C18.3401 182.69 22.2901 179 27.1701 179C32.0501 179 36.0001 182.69 36.0001 187.24C36.0001 189.94 34.6101 192.33 32.4701 193.83Z" fill="#8F56D4"/>
<path d="M27 192.23C27 193.42 26.56 194.52 25.82 195.39C24.83 196.59 23.26 197.36 21.5 197.36L18.89 198.91C18.45 199.18 17.89 198.81 17.95 198.3L18.2 196.33C16.86 195.4 16 193.91 16 192.23C16 190.47 16.94 188.92 18.38 188C19.27 187.42 20.34 187.09 21.5 187.09C24.54 187.09 27 189.39 27 192.23Z" fill="#8F56D4"/>
<path d="M44.8849 183.818V194H46.973V187.348H47.0575L49.6925 193.95H51.1143L53.7493 187.373H53.8338V194H55.9219V183.818H53.267L50.4631 190.659H50.3438L47.5398 183.818H44.8849ZM61.1358 194.149C63.025 194.149 64.2978 193.229 64.5961 191.812L62.6373 191.683C62.4235 192.265 61.8766 192.568 61.1706 192.568C60.1117 192.568 59.4405 191.867 59.4405 190.729V190.724H64.6408V190.142C64.6408 187.547 63.0698 186.264 61.0513 186.264C58.8042 186.264 57.3475 187.86 57.3475 190.217C57.3475 192.638 58.7843 194.149 61.1358 194.149ZM59.4405 189.411C59.4853 188.541 60.1465 187.845 61.0861 187.845C62.0059 187.845 62.6422 188.501 62.6472 189.411H59.4405ZM69.503 194.149C71.3922 194.149 72.665 193.229 72.9632 191.812L71.0044 191.683C70.7907 192.265 70.2438 192.568 69.5378 192.568C68.4789 192.568 67.8077 191.867 67.8077 190.729V190.724H73.008V190.142C73.008 187.547 71.437 186.264 69.4185 186.264C67.1713 186.264 65.7147 187.86 65.7147 190.217C65.7147 192.638 67.1515 194.149 69.503 194.149ZM67.8077 189.411C67.8525 188.541 68.5137 187.845 69.4533 187.845C70.373 187.845 71.0094 188.501 71.0144 189.411H67.8077ZM78.4519 186.364H77.0151V184.534H74.8972V186.364H73.8532V187.955H74.8972V191.932C74.8873 193.428 75.9064 194.169 77.4426 194.104C77.9895 194.085 78.3773 193.975 78.5911 193.906L78.258 192.33C78.1536 192.349 77.9299 192.399 77.731 192.399C77.3084 192.399 77.0151 192.24 77.0151 191.653V187.955H78.4519V186.364ZM79.8315 194H81.9494V186.364H79.8315V194ZM80.8954 185.379C81.5268 185.379 82.0439 184.897 82.0439 184.305C82.0439 183.719 81.5268 183.237 80.8954 183.237C80.269 183.237 79.752 183.719 79.752 184.305C79.752 184.897 80.269 185.379 80.8954 185.379ZM85.7638 189.585C85.7688 188.601 86.3555 188.024 87.2106 188.024C88.0607 188.024 88.5728 188.581 88.5678 189.516V194H90.6857V189.138C90.6857 187.358 89.6417 186.264 88.0508 186.264C86.9173 186.264 86.0969 186.821 85.7539 187.711H85.6644V186.364H83.646V194H85.7638V189.585ZM95.7953 197.023C97.9778 197.023 99.5289 196.028 99.5289 194.075V186.364H97.426V187.646H97.3464C97.063 187.025 96.4416 186.264 95.1639 186.264C93.4885 186.264 92.0716 187.567 92.0716 190.167C92.0716 192.707 93.4487 193.891 95.1689 193.891C96.3869 193.891 97.068 193.279 97.3464 192.648H97.4359V194.045C97.4359 195.094 96.7647 195.501 95.845 195.501C94.9103 195.501 94.438 195.094 94.264 194.631L92.3052 194.895C92.5588 196.098 93.737 197.023 95.7953 197.023ZM95.84 192.3C94.801 192.3 94.2342 191.474 94.2342 190.157C94.2342 188.859 94.791 187.95 95.84 187.95C96.8691 187.95 97.4458 188.82 97.4458 190.157C97.4458 191.504 96.8592 192.3 95.84 192.3ZM105.961 194H108.198L109.511 189.197H109.605L110.918 194H113.16L115.233 186.364H113.095L111.932 191.464H111.867L110.614 186.364H108.511L107.278 191.494H107.209L106.026 186.364H103.883L105.961 194ZM116.363 194H118.481V186.364H116.363V194ZM117.427 185.379C118.058 185.379 118.575 184.897 118.575 184.305C118.575 183.719 118.058 183.237 117.427 183.237C116.8 183.237 116.283 183.719 116.283 184.305C116.283 184.897 116.8 185.379 117.427 185.379ZM124.239 186.364H122.802V184.534H120.684V186.364H119.64V187.955H120.684V191.932C120.674 193.428 121.694 194.169 123.23 194.104C123.777 194.085 124.164 193.975 124.378 193.906L124.045 192.33C123.941 192.349 123.717 192.399 123.518 192.399C123.096 192.399 122.802 192.24 122.802 191.653V187.955H124.239V186.364ZM127.901 189.585C127.906 188.601 128.507 188.024 129.372 188.024C130.232 188.024 130.739 188.576 130.734 189.516V194H132.852V189.138C132.857 187.348 131.803 186.264 130.212 186.264C129.054 186.264 128.278 186.811 127.93 187.711H127.841V183.818H125.783V194H127.901V189.585Z" fill="#8F56D4"/>
<g clip-path="url(#clip1_917_5806)">
<path d="M158.726 191.535C158.726 191.423 158.763 191.274 158.875 191.162C158.95 191.05 159.062 190.976 159.136 190.901C159.248 190.864 159.285 190.827 159.285 190.864C159.509 191.199 159.844 191.498 160.254 191.721C160.664 191.945 161.149 192.057 161.634 192.057C162.193 192.057 162.603 191.945 162.901 191.721C163.199 191.498 163.348 191.199 163.348 190.789C163.348 190.603 163.311 190.454 163.237 190.342C163.162 190.193 163.088 190.081 162.976 190.006C162.864 189.932 162.715 189.857 162.528 189.783C162.305 189.708 162.156 189.634 162.006 189.634C161.895 189.596 161.671 189.559 161.373 189.485C161 189.41 160.702 189.335 160.441 189.224C160.18 189.112 159.919 189 159.658 188.814C159.397 188.627 159.211 188.441 159.062 188.143C158.912 187.882 158.875 187.546 158.875 187.136C158.875 186.465 159.136 185.906 159.658 185.496C160.18 185.086 160.888 184.862 161.708 184.862C162.528 184.862 163.199 185.011 163.684 185.31C164.169 185.608 164.429 185.906 164.429 186.241C164.429 186.391 164.392 186.502 164.28 186.614C164.169 186.726 164.094 186.801 163.982 186.875C163.87 186.912 163.833 186.95 163.833 186.95C163.609 186.652 163.311 186.391 162.938 186.167C162.566 185.981 162.156 185.869 161.708 185.869C161.224 185.869 160.814 185.981 160.515 186.204C160.217 186.428 160.068 186.726 160.068 187.099C160.068 187.285 160.105 187.472 160.18 187.583C160.254 187.733 160.366 187.844 160.553 187.919C160.739 187.994 160.925 188.068 161.075 188.105C161.224 188.143 161.485 188.217 161.783 188.292C161.857 188.292 161.895 188.329 161.932 188.329C162.305 188.404 162.64 188.515 162.938 188.627C163.199 188.739 163.498 188.888 163.758 189.037C164.019 189.224 164.243 189.447 164.392 189.708C164.541 189.969 164.616 190.305 164.616 190.677C164.616 191.386 164.355 191.982 163.833 192.392C163.311 192.802 162.566 193.026 161.634 193.026C160.739 193.026 160.031 192.84 159.509 192.504C159.024 192.243 158.726 191.908 158.726 191.535ZM167.113 189.708V185.571C167.113 185.198 167.3 185.011 167.635 185.011H167.822C168.194 185.011 168.381 185.198 168.381 185.571V189.708C168.381 191.237 169.052 191.982 170.357 191.982C171.661 191.982 172.332 191.199 172.332 189.671V185.571C172.332 185.198 172.519 185.011 172.854 185.011H173.04C173.376 185.011 173.562 185.198 173.562 185.571V189.708C173.562 190.789 173.301 191.647 172.742 192.243C172.183 192.84 171.4 193.1 170.319 193.1C169.276 193.1 168.455 192.802 167.934 192.243C167.374 191.647 167.113 190.827 167.113 189.708ZM176.395 192.355V185.757C176.395 185.533 176.47 185.384 176.582 185.235C176.694 185.086 176.88 185.049 177.066 185.049H179.303C180.272 185.049 181.018 185.235 181.502 185.645C181.987 186.055 182.248 186.614 182.248 187.397C182.248 188.068 182.062 188.627 181.652 189.037C181.241 189.447 180.682 189.671 179.899 189.746L182.211 192.467C182.248 192.504 182.211 192.541 182.173 192.616C182.136 192.69 182.024 192.765 181.912 192.84C181.801 192.914 181.652 192.951 181.465 192.951C181.167 192.951 180.906 192.802 180.645 192.467L178.483 189.82H177.626V192.355C177.626 192.728 177.439 192.914 177.104 192.914H176.917C176.545 192.989 176.395 192.765 176.395 192.355ZM177.588 188.851H179.266C179.825 188.851 180.272 188.739 180.533 188.478C180.831 188.217 180.943 187.882 180.943 187.434C180.943 186.502 180.347 186.018 179.191 186.018H177.551L177.588 188.851ZM184.82 192.318V185.757C184.82 185.533 184.895 185.384 185.006 185.235C185.118 185.086 185.305 185.049 185.491 185.049H189.778C190.151 185.049 190.374 185.235 190.374 185.571V185.645C190.374 185.981 190.188 186.167 189.778 186.167H186.05V188.702H188.809C189.182 188.702 189.405 188.851 189.405 189.186V189.224C189.405 189.559 189.219 189.746 188.809 189.746H186.088V192.429C186.088 192.802 185.901 192.989 185.528 192.989H185.342C185.006 192.989 184.82 192.765 184.82 192.318ZM192.686 192.243V185.757C192.686 185.533 192.76 185.384 192.872 185.235C192.984 185.086 193.17 185.049 193.357 185.049H197.942C198.314 185.049 198.538 185.235 198.538 185.571V185.645C198.538 185.981 198.352 186.167 197.942 186.167H193.916V188.404H197.01C197.382 188.404 197.606 188.553 197.606 188.888V188.925C197.606 189.261 197.42 189.447 197.01 189.447H193.916V191.833H198.016C198.389 191.833 198.575 191.982 198.575 192.355V192.429C198.575 192.802 198.389 192.989 198.016 192.989H193.357C193.17 192.989 192.984 192.914 192.872 192.802C192.76 192.616 192.686 192.467 192.686 192.243ZM201.11 192.355V185.757C201.11 185.533 201.185 185.384 201.297 185.235C201.408 185.086 201.595 185.049 201.781 185.049H204.018C204.987 185.049 205.733 185.235 206.217 185.645C206.702 186.055 206.963 186.614 206.963 187.397C206.963 188.068 206.776 188.627 206.366 189.037C205.956 189.447 205.397 189.671 204.614 189.746L206.925 192.467C206.963 192.504 206.925 192.541 206.888 192.616C206.851 192.69 206.739 192.765 206.627 192.84C206.515 192.914 206.366 192.951 206.18 192.951C205.882 192.951 205.621 192.802 205.36 192.467L203.198 189.82H202.34V192.355C202.34 192.728 202.154 192.914 201.818 192.914H201.632C201.297 192.989 201.11 192.765 201.11 192.355ZM202.34 188.851H204.018C204.577 188.851 205.024 188.739 205.285 188.478C205.583 188.217 205.695 187.882 205.695 187.434C205.695 186.502 205.099 186.018 203.943 186.018H202.303L202.34 188.851Z" fill="white"/>
<path d="M147.319 192.355H148.624C148.81 192.355 148.922 192.206 148.922 192.057V185.981C148.922 185.794 148.773 185.682 148.624 185.682H147.319C147.133 185.682 147.021 185.831 147.021 185.981V192.057C147.021 192.206 147.17 192.355 147.319 192.355ZM140.237 185.086V188.627V189.373V189.746H140.982L140.237 190.827L139.491 191.908L138.746 190.827L138 189.746H138.783V189.373V188.627V185.086C138.783 183.259 140.274 181.731 142.138 181.731H150.003C151.83 181.731 153.358 183.222 153.358 185.086H151.904C151.904 184.042 151.047 183.222 150.041 183.222H142.1C141.094 183.185 140.237 184.042 140.237 185.086ZM152.575 186.092L153.321 187.173L154.066 188.254H153.321V188.627V188.963V192.914C153.321 194.741 151.83 196.269 149.966 196.269H142.1C140.274 196.269 138.746 194.778 138.746 192.914H140.237C140.237 193.958 141.094 194.778 142.1 194.778H149.966C151.01 194.778 151.83 193.921 151.83 192.914V189V188.665V188.292H151.084L151.83 187.211L152.575 186.092ZM143.442 192.355H144.747C144.934 192.355 145.045 192.206 145.045 192.057V188.18C145.045 187.994 144.896 187.882 144.747 187.882H143.442C143.256 187.882 143.144 188.031 143.144 188.18V192.019C143.144 192.206 143.293 192.355 143.442 192.355Z" fill="url(#paint1_linear_917_5806)"/>
</g>
<rect x="1.25" y="73" width="377" height="141" rx="11" stroke="url(#paint2_linear_917_5806)" stroke-width="2"/>
</g>
<g filter="url(#filter4_b_917_5806)">
<path d="M-26 223H405.5" stroke="black" stroke-opacity="0.1" stroke-width="2" style="mix-blend-mode:overlay"/>
</g>
<rect x="1.25" y="232" width="377" height="81" rx="7.8535" fill="#1F0A39"/>
<path d="M20.67 247.818H18.6466L16.126 249.414V251.323L18.4577 249.862H18.5173V258H20.67V247.818ZM27.5196 247.818H25.4962L22.9756 249.414V251.323L25.3073 249.862H25.3669V258H27.5196V247.818ZM31.1974 251.825C31.8337 251.825 32.3856 251.293 32.3905 250.632C32.3856 249.981 31.8337 249.449 31.1974 249.449C30.5411 249.449 29.9992 249.981 30.0042 250.632C29.9992 251.293 30.5411 251.825 31.1974 251.825ZM31.1974 256.817C31.8337 256.817 32.3856 256.285 32.3905 255.624C32.3856 254.972 31.8337 254.44 31.1974 254.44C30.5411 254.44 29.9992 254.972 30.0042 255.624C29.9992 256.285 30.5411 256.817 31.1974 256.817ZM38.1017 258.224C40.662 258.224 42.2082 256.275 42.2132 252.919C42.2181 249.588 40.6521 247.679 38.1017 247.679C35.5463 247.679 33.9951 249.583 33.9901 252.919C33.9802 256.265 35.5363 258.219 38.1017 258.224ZM38.1017 256.439C36.9333 256.439 36.1776 255.266 36.1826 252.919C36.1876 250.607 36.9383 249.444 38.1017 249.444C39.26 249.444 40.0157 250.607 40.0157 252.919C40.0207 255.266 39.265 256.439 38.1017 256.439ZM47.7403 258.224C50.3007 258.224 51.8469 256.275 51.8518 252.919C51.8568 249.588 50.2907 247.679 47.7403 247.679C45.1849 247.679 43.6338 249.583 43.6288 252.919C43.6189 256.265 45.175 258.219 47.7403 258.224ZM47.7403 256.439C46.572 256.439 45.8163 255.266 45.8213 252.919C45.8263 250.607 46.577 249.444 47.7403 249.444C48.8987 249.444 49.6544 250.607 49.6544 252.919C49.6594 255.266 48.9037 256.439 47.7403 256.439ZM58.4417 258L59.1974 255.678H62.8714L63.627 258H65.9339L62.4239 247.818H59.6498L56.1349 258H58.4417ZM59.7442 253.998L60.9971 250.145H61.0766L62.3295 253.998H59.7442ZM67.1594 247.818V258H69.2474V251.348H69.3319L71.9669 257.95H73.3888L76.0237 251.373H76.1082V258H78.1963V247.818H75.5415L72.7375 254.659H72.6182L69.8142 247.818H67.1594Z" fill="#612AA2"/>
<rect x="1.25" y="232" width="377" height="81" rx="7.8535" stroke="url(#paint3_linear_917_5806)" stroke-width="2"/>
</g>
</g>
<defs>
<filter id="filter0_b_917_5806" x="-46" y="-47" width="471.5" height="381" filterUnits="userSpaceOnUse" color-interpolation-filters="sRGB">
<feFlood flood-opacity="0" result="BackgroundImageFix"/>
<feGaussianBlur in="BackgroundImageFix" stdDeviation="10"/>
<feComposite in2="SourceAlpha" operator="in" result="effect1_backgroundBlur_917_5806"/>
<feBlend mode="normal" in="SourceGraphic" in2="effect1_backgroundBlur_917_5806" result="shape"/>
</filter>
<filter id="filter1_b_917_5806" x="-51.75" y="-79" width="483" height="187" filterUnits="userSpaceOnUse" color-interpolation-filters="sRGB">
<feFlood flood-opacity="0" result="BackgroundImageFix"/>
<feGaussianBlur in="BackgroundImageFix" stdDeviation="26"/>
<feComposite in2="SourceAlpha" operator="in" result="effect1_backgroundBlur_917_5806"/>
<feBlend mode="normal" in="SourceGraphic" in2="effect1_backgroundBlur_917_5806" result="shape"/>
</filter>
<filter id="filter2_b_917_5806" x="-46" y="43" width="471.5" height="42" filterUnits="userSpaceOnUse" color-interpolation-filters="sRGB">
<feFlood flood-opacity="0" result="BackgroundImageFix"/>
<feGaussianBlur in="BackgroundImageFix" stdDeviation="10"/>
<feComposite in2="SourceAlpha" operator="in" result="effect1_backgroundBlur_917_5806"/>
<feBlend mode="normal" in="SourceGraphic" in2="effect1_backgroundBlur_917_5806" result="shape"/>
</filter>
<filter id="filter3_b_917_5806" x="-51.75" y="20" width="483" height="247" filterUnits="userSpaceOnUse" color-interpolation-filters="sRGB">
<feFlood flood-opacity="0" result="BackgroundImageFix"/>
<feGaussianBlur in="BackgroundImageFix" stdDeviation="26"/>
<feComposite in2="SourceAlpha" operator="in" result="effect1_backgroundBlur_917_5806"/>
<feBlend mode="normal" in="SourceGraphic" in2="effect1_backgroundBlur_917_5806" result="shape"/>
</filter>
<filter id="filter4_b_917_5806" x="-46" y="202" width="471.5" height="42" filterUnits="userSpaceOnUse" color-interpolation-filters="sRGB">
<feFlood flood-opacity="0" result="BackgroundImageFix"/>
<feGaussianBlur in="BackgroundImageFix" stdDeviation="10"/>
<feComposite in2="SourceAlpha" operator="in" result="effect1_backgroundBlur_917_5806"/>
<feBlend mode="normal" in="SourceGraphic" in2="effect1_backgroundBlur_917_5806" result="shape"/>
</filter>
<linearGradient id="paint0_linear_917_5806" x1="189.75" y1="-27" x2="189.75" y2="56" gradientUnits="userSpaceOnUse">
<stop stop-color="#491F7A"/>
<stop offset="1" stop-color="#491F7A" stop-opacity="0"/>
</linearGradient>
<linearGradient id="paint1_linear_917_5806" x1="138" y1="196.269" x2="156.167" y2="192.831" gradientUnits="userSpaceOnUse">
<stop stop-color="#E84D8C"/>
<stop offset="1" stop-color="#F8D98A"/>
</linearGradient>
<linearGradient id="paint2_linear_917_5806" x1="189.75" y1="72" x2="189.75" y2="215" gradientUnits="userSpaceOnUse">
<stop stop-color="#491F7A"/>
<stop offset="1" stop-color="#491F7A" stop-opacity="0"/>
</linearGradient>
<linearGradient id="paint3_linear_917_5806" x1="189.75" y1="231" x2="189.75" y2="314" gradientUnits="userSpaceOnUse">
<stop stop-color="#491F7A"/>
<stop offset="1" stop-color="#491F7A" stop-opacity="0"/>
</linearGradient>
<clipPath id="clip0_917_5806">
<rect width="379" height="301" fill="white"/>
</clipPath>
<clipPath id="clip1_917_5806">
<rect width="69" height="14.5381" fill="white" transform="translate(138 181.731)"/>
</clipPath>
</defs>
</svg>
