<svg width="720" height="340" viewBox="0 0 720 340" fill="none" xmlns="http://www.w3.org/2000/svg">
<g clip-path="url(#clip0_552_36782)">
<g style="mix-blend-mode:soft-light">
<rect x="-1" y="-1" width="38" height="38" stroke="black" stroke-width="0.553984"/>
<rect x="37" y="-1" width="38" height="38" stroke="black" stroke-width="0.553984"/>
<rect x="75" y="-1" width="38" height="38" stroke="black" stroke-width="0.553984"/>
<rect x="113" y="-1" width="38" height="38" stroke="black" stroke-width="0.553984"/>
<rect x="151" y="-1" width="38" height="38" stroke="black" stroke-width="0.553984"/>
<rect x="189" y="-1" width="38" height="38" stroke="black" stroke-width="0.553984"/>
<rect x="227" y="-1" width="38" height="38" stroke="black" stroke-width="0.553984"/>
<rect x="265" y="-1" width="38" height="38" stroke="black" stroke-width="0.553984"/>
<rect x="303" y="-1" width="38" height="38" stroke="black" stroke-width="0.553984"/>
<rect x="341" y="-1" width="38" height="38" stroke="black" stroke-width="0.553984"/>
<rect x="379" y="-1" width="38" height="38" stroke="black" stroke-width="0.553984"/>
<rect x="417" y="-1" width="38" height="38" stroke="black" stroke-width="0.553984"/>
<rect x="455" y="-1" width="38" height="38" stroke="black" stroke-width="0.553984"/>
<rect x="493" y="-1" width="38" height="38" stroke="black" stroke-width="0.553984"/>
<rect x="531" y="-1" width="38" height="38" stroke="black" stroke-width="0.553984"/>
<rect x="569" y="-1" width="38" height="38" stroke="black" stroke-width="0.553984"/>
<rect x="607" y="-1" width="38" height="38" stroke="black" stroke-width="0.553984"/>
<rect x="645" y="-1" width="38" height="38" stroke="black" stroke-width="0.553984"/>
<rect x="683" y="-1" width="38" height="38" stroke="black" stroke-width="0.553984"/>
<rect x="-1" y="37" width="38" height="38" stroke="black" stroke-width="0.553984"/>
<rect x="37" y="37" width="38" height="38" stroke="black" stroke-width="0.553984"/>
<rect x="75" y="37" width="38" height="38" stroke="black" stroke-width="0.553984"/>
<rect x="113" y="37" width="38" height="38" stroke="black" stroke-width="0.553984"/>
<rect x="151" y="37" width="38" height="38" stroke="black" stroke-width="0.553984"/>
<rect x="189" y="37" width="38" height="38" stroke="black" stroke-width="0.553984"/>
<rect x="227" y="37" width="38" height="38" stroke="black" stroke-width="0.553984"/>
<rect x="265" y="37" width="38" height="38" stroke="black" stroke-width="0.553984"/>
<rect x="303" y="37" width="38" height="38" stroke="black" stroke-width="0.553984"/>
<rect x="341" y="37" width="38" height="38" stroke="black" stroke-width="0.553984"/>
<rect x="379" y="37" width="38" height="38" stroke="black" stroke-width="0.553984"/>
<rect x="417" y="37" width="38" height="38" stroke="black" stroke-width="0.553984"/>
<rect x="455" y="37" width="38" height="38" stroke="black" stroke-width="0.553984"/>
<rect x="493" y="37" width="38" height="38" stroke="black" stroke-width="0.553984"/>
<rect x="531" y="37" width="38" height="38" stroke="black" stroke-width="0.553984"/>
<rect x="569" y="37" width="38" height="38" stroke="black" stroke-width="0.553984"/>
<rect x="607" y="37" width="38" height="38" stroke="black" stroke-width="0.553984"/>
<rect x="645" y="37" width="38" height="38" stroke="black" stroke-width="0.553984"/>
<rect x="683" y="37" width="38" height="38" stroke="black" stroke-width="0.553984"/>
<rect x="-1" y="75" width="38" height="38" stroke="black" stroke-width="0.553984"/>
<rect x="37" y="75" width="38" height="38" stroke="black" stroke-width="0.553984"/>
<rect x="75" y="75" width="38" height="38" stroke="black" stroke-width="0.553984"/>
<rect x="113" y="75" width="38" height="38" stroke="black" stroke-width="0.553984"/>
<rect x="151" y="75" width="38" height="38" stroke="black" stroke-width="0.553984"/>
<rect x="189" y="75" width="38" height="38" stroke="black" stroke-width="0.553984"/>
<rect x="227" y="75" width="38" height="38" stroke="black" stroke-width="0.553984"/>
<rect x="265" y="75" width="38" height="38" stroke="black" stroke-width="0.553984"/>
<rect x="303" y="75" width="38" height="38" stroke="black" stroke-width="0.553984"/>
<rect x="341" y="75" width="38" height="38" stroke="black" stroke-width="0.553984"/>
<rect x="379" y="75" width="38" height="38" stroke="black" stroke-width="0.553984"/>
<rect x="417" y="75" width="38" height="38" stroke="black" stroke-width="0.553984"/>
<rect x="455" y="75" width="38" height="38" stroke="black" stroke-width="0.553984"/>
<rect x="493" y="75" width="38" height="38" stroke="black" stroke-width="0.553984"/>
<rect x="531" y="75" width="38" height="38" stroke="black" stroke-width="0.553984"/>
<rect x="569" y="75" width="38" height="38" stroke="black" stroke-width="0.553984"/>
<rect x="607" y="75" width="38" height="38" stroke="black" stroke-width="0.553984"/>
<rect x="645" y="75" width="38" height="38" stroke="black" stroke-width="0.553984"/>
<rect x="683" y="75" width="38" height="38" stroke="black" stroke-width="0.553984"/>
<rect x="-1" y="113" width="38" height="38" stroke="black" stroke-width="0.553984"/>
<rect x="37" y="113" width="38" height="38" stroke="black" stroke-width="0.553984"/>
<rect x="75" y="113" width="38" height="38" stroke="black" stroke-width="0.553984"/>
<rect x="113" y="113" width="38" height="38" stroke="black" stroke-width="0.553984"/>
<rect x="151" y="113" width="38" height="38" stroke="black" stroke-width="0.553984"/>
<rect x="189" y="113" width="38" height="38" stroke="black" stroke-width="0.553984"/>
<rect x="227" y="113" width="38" height="38" stroke="black" stroke-width="0.553984"/>
<rect x="265" y="113" width="38" height="38" stroke="black" stroke-width="0.553984"/>
<rect x="303" y="113" width="38" height="38" stroke="black" stroke-width="0.553984"/>
<rect x="341" y="113" width="38" height="38" stroke="black" stroke-width="0.553984"/>
<rect x="379" y="113" width="38" height="38" stroke="black" stroke-width="0.553984"/>
<rect x="417" y="113" width="38" height="38" stroke="black" stroke-width="0.553984"/>
<rect x="455" y="113" width="38" height="38" stroke="black" stroke-width="0.553984"/>
<rect x="493" y="113" width="38" height="38" stroke="black" stroke-width="0.553984"/>
<rect x="531" y="113" width="38" height="38" stroke="black" stroke-width="0.553984"/>
<rect x="569" y="113" width="38" height="38" stroke="black" stroke-width="0.553984"/>
<rect x="607" y="113" width="38" height="38" stroke="black" stroke-width="0.553984"/>
<rect x="645" y="113" width="38" height="38" stroke="black" stroke-width="0.553984"/>
<rect x="683" y="113" width="38" height="38" stroke="black" stroke-width="0.553984"/>
<rect x="-1" y="151" width="38" height="38" stroke="black" stroke-width="0.553984"/>
<rect x="37" y="151" width="38" height="38" stroke="black" stroke-width="0.553984"/>
<rect x="75" y="151" width="38" height="38" stroke="black" stroke-width="0.553984"/>
<rect x="113" y="151" width="38" height="38" stroke="black" stroke-width="0.553984"/>
<rect x="151" y="151" width="38" height="38" stroke="black" stroke-width="0.553984"/>
<rect x="189" y="151" width="38" height="38" stroke="black" stroke-width="0.553984"/>
<rect x="227" y="151" width="38" height="38" stroke="black" stroke-width="0.553984"/>
<rect x="265" y="151" width="38" height="38" stroke="black" stroke-width="0.553984"/>
<rect x="303" y="151" width="38" height="38" stroke="black" stroke-width="0.553984"/>
<rect x="341" y="151" width="38" height="38" stroke="black" stroke-width="0.553984"/>
<rect x="379" y="151" width="38" height="38" stroke="black" stroke-width="0.553984"/>
<rect x="417" y="151" width="38" height="38" stroke="black" stroke-width="0.553984"/>
<rect x="455" y="151" width="38" height="38" stroke="black" stroke-width="0.553984"/>
<rect x="493" y="151" width="38" height="38" stroke="black" stroke-width="0.553984"/>
<rect x="531" y="151" width="38" height="38" stroke="black" stroke-width="0.553984"/>
<rect x="569" y="151" width="38" height="38" stroke="black" stroke-width="0.553984"/>
<rect x="607" y="151" width="38" height="38" stroke="black" stroke-width="0.553984"/>
<rect x="645" y="151" width="38" height="38" stroke="black" stroke-width="0.553984"/>
<rect x="683" y="151" width="38" height="38" stroke="black" stroke-width="0.553984"/>
<rect x="-1" y="189" width="38" height="38" stroke="black" stroke-width="0.553984"/>
<rect x="37" y="189" width="38" height="38" stroke="black" stroke-width="0.553984"/>
<rect x="75" y="189" width="38" height="38" stroke="black" stroke-width="0.553984"/>
<rect x="113" y="189" width="38" height="38" stroke="black" stroke-width="0.553984"/>
<rect x="151" y="189" width="38" height="38" stroke="black" stroke-width="0.553984"/>
<rect x="189" y="189" width="38" height="38" stroke="black" stroke-width="0.553984"/>
<rect x="227" y="189" width="38" height="38" stroke="black" stroke-width="0.553984"/>
<rect x="265" y="189" width="38" height="38" stroke="black" stroke-width="0.553984"/>
<rect x="303" y="189" width="38" height="38" stroke="black" stroke-width="0.553984"/>
<rect x="341" y="189" width="38" height="38" stroke="black" stroke-width="0.553984"/>
<rect x="379" y="189" width="38" height="38" stroke="black" stroke-width="0.553984"/>
<rect x="417" y="189" width="38" height="38" stroke="black" stroke-width="0.553984"/>
<rect x="455" y="189" width="38" height="38" stroke="black" stroke-width="0.553984"/>
<rect x="493" y="189" width="38" height="38" stroke="black" stroke-width="0.553984"/>
<rect x="531" y="189" width="38" height="38" stroke="black" stroke-width="0.553984"/>
<rect x="569" y="189" width="38" height="38" stroke="black" stroke-width="0.553984"/>
<rect x="607" y="189" width="38" height="38" stroke="black" stroke-width="0.553984"/>
<rect x="645" y="189" width="38" height="38" stroke="black" stroke-width="0.553984"/>
<rect x="683" y="189" width="38" height="38" stroke="black" stroke-width="0.553984"/>
<rect x="-1" y="227" width="38" height="38" stroke="black" stroke-width="0.553984"/>
<rect x="37" y="227" width="38" height="38" stroke="black" stroke-width="0.553984"/>
<rect x="75" y="227" width="38" height="38" stroke="black" stroke-width="0.553984"/>
<rect x="113" y="227" width="38" height="38" stroke="black" stroke-width="0.553984"/>
<rect x="151" y="227" width="38" height="38" stroke="black" stroke-width="0.553984"/>
<rect x="189" y="227" width="38" height="38" stroke="black" stroke-width="0.553984"/>
<rect x="227" y="227" width="38" height="38" stroke="black" stroke-width="0.553984"/>
<rect x="265" y="227" width="38" height="38" stroke="black" stroke-width="0.553984"/>
<rect x="303" y="227" width="38" height="38" stroke="black" stroke-width="0.553984"/>
<rect x="341" y="227" width="38" height="38" stroke="black" stroke-width="0.553984"/>
<rect x="379" y="227" width="38" height="38" stroke="black" stroke-width="0.553984"/>
<rect x="417" y="227" width="38" height="38" stroke="black" stroke-width="0.553984"/>
<rect x="455" y="227" width="38" height="38" stroke="black" stroke-width="0.553984"/>
<rect x="493" y="227" width="38" height="38" stroke="black" stroke-width="0.553984"/>
<rect x="531" y="227" width="38" height="38" stroke="black" stroke-width="0.553984"/>
<rect x="569" y="227" width="38" height="38" stroke="black" stroke-width="0.553984"/>
<rect x="607" y="227" width="38" height="38" stroke="black" stroke-width="0.553984"/>
<rect x="645" y="227" width="38" height="38" stroke="black" stroke-width="0.553984"/>
<rect x="683" y="227" width="38" height="38" stroke="black" stroke-width="0.553984"/>
<rect x="-1" y="265" width="38" height="38" stroke="black" stroke-width="0.553984"/>
<rect x="37" y="265" width="38" height="38" stroke="black" stroke-width="0.553984"/>
<rect x="75" y="265" width="38" height="38" stroke="black" stroke-width="0.553984"/>
<rect x="113" y="265" width="38" height="38" stroke="black" stroke-width="0.553984"/>
<rect x="151" y="265" width="38" height="38" stroke="black" stroke-width="0.553984"/>
<rect x="189" y="265" width="38" height="38" stroke="black" stroke-width="0.553984"/>
<rect x="227" y="265" width="38" height="38" stroke="black" stroke-width="0.553984"/>
<rect x="265" y="265" width="38" height="38" stroke="black" stroke-width="0.553984"/>
<rect x="303" y="265" width="38" height="38" stroke="black" stroke-width="0.553984"/>
<rect x="341" y="265" width="38" height="38" stroke="black" stroke-width="0.553984"/>
<rect x="379" y="265" width="38" height="38" stroke="black" stroke-width="0.553984"/>
<rect x="417" y="265" width="38" height="38" stroke="black" stroke-width="0.553984"/>
<rect x="455" y="265" width="38" height="38" stroke="black" stroke-width="0.553984"/>
<rect x="493" y="265" width="38" height="38" stroke="black" stroke-width="0.553984"/>
<rect x="531" y="265" width="38" height="38" stroke="black" stroke-width="0.553984"/>
<rect x="569" y="265" width="38" height="38" stroke="black" stroke-width="0.553984"/>
<rect x="607" y="265" width="38" height="38" stroke="black" stroke-width="0.553984"/>
<rect x="645" y="265" width="38" height="38" stroke="black" stroke-width="0.553984"/>
<rect x="683" y="265" width="38" height="38" stroke="black" stroke-width="0.553984"/>
<rect x="-1" y="303" width="38" height="38" stroke="black" stroke-width="0.553984"/>
<rect x="37" y="303" width="38" height="38" stroke="black" stroke-width="0.553984"/>
<rect x="75" y="303" width="38" height="38" stroke="black" stroke-width="0.553984"/>
<rect x="113" y="303" width="38" height="38" stroke="black" stroke-width="0.553984"/>
<rect x="151" y="303" width="38" height="38" stroke="black" stroke-width="0.553984"/>
<rect x="189" y="303" width="38" height="38" stroke="black" stroke-width="0.553984"/>
<rect x="227" y="303" width="38" height="38" stroke="black" stroke-width="0.553984"/>
<rect x="265" y="303" width="38" height="38" stroke="black" stroke-width="0.553984"/>
<rect x="303" y="303" width="38" height="38" stroke="black" stroke-width="0.553984"/>
<rect x="341" y="303" width="38" height="38" stroke="black" stroke-width="0.553984"/>
<rect x="379" y="303" width="38" height="38" stroke="black" stroke-width="0.553984"/>
<rect x="417" y="303" width="38" height="38" stroke="black" stroke-width="0.553984"/>
<rect x="455" y="303" width="38" height="38" stroke="black" stroke-width="0.553984"/>
<rect x="493" y="303" width="38" height="38" stroke="black" stroke-width="0.553984"/>
<rect x="531" y="303" width="38" height="38" stroke="black" stroke-width="0.553984"/>
<rect x="569" y="303" width="38" height="38" stroke="black" stroke-width="0.553984"/>
<rect x="607" y="303" width="38" height="38" stroke="black" stroke-width="0.553984"/>
<rect x="645" y="303" width="38" height="38" stroke="black" stroke-width="0.553984"/>
<rect x="683" y="303" width="38" height="38" stroke="black" stroke-width="0.553984"/>
</g>
</g>
<defs>
<clipPath id="clip0_552_36782">
<rect width="720" height="340" fill="white"/>
</clipPath>
</defs>
</svg>
