<svg width="18" height="25" viewBox="0 0 18 25" fill="none" xmlns="http://www.w3.org/2000/svg">
<g id="Group 1648">
<path id="ai-icon" fill-rule="evenodd" clip-rule="evenodd" d="M2.87647 0.0782471C2.67019 0.0782471 2.49038 0.218639 2.44035 0.418761L2.28518 1.03941C2.14425 1.60314 1.70409 2.0433 1.14037 2.18423L0.519721 2.33939C0.319598 2.38942 0.179206 2.56923 0.179206 2.77551C0.179206 2.98179 0.319598 3.1616 0.519721 3.21163L1.14037 3.3668C1.70409 3.50773 2.14425 3.94789 2.28518 4.51162L2.44035 5.13227C2.49038 5.33239 2.67019 5.47278 2.87647 5.47278C3.08275 5.47278 3.26256 5.33239 3.31259 5.13227L3.46775 4.51162C3.60868 3.94789 4.04884 3.50773 4.61257 3.3668L5.23322 3.21163C5.43334 3.1616 5.57373 2.98179 5.57373 2.77551C5.57373 2.56923 5.43334 2.38942 5.23322 2.33939L4.61257 2.18423C4.04884 2.0433 3.60868 1.60314 3.46775 1.03941L3.31259 0.418761C3.26256 0.218639 3.08275 0.0782471 2.87647 0.0782471Z" fill="white"/>
<path id="ai-icon_2" fill-rule="evenodd" clip-rule="evenodd" d="M13.2813 4.51672C12.9659 4.51672 12.6911 4.73135 12.6146 5.03729L12.3774 5.98612C12.1619 6.84793 11.489 7.52083 10.6272 7.73628L9.67838 7.97349C9.37244 8.04997 9.15781 8.32486 9.15781 8.64022C9.15781 8.95557 9.37244 9.23046 9.67838 9.30695L10.6272 9.54415C11.489 9.7596 12.1619 10.4325 12.3774 11.2943L12.6146 12.2431C12.6911 12.5491 12.9659 12.7637 13.2813 12.7637C13.5967 12.7637 13.8715 12.5491 13.948 12.2431L14.1852 11.2943C14.4007 10.4325 15.0736 9.7596 15.9354 9.54415L16.8842 9.30695C17.1902 9.23046 17.4048 8.95557 17.4048 8.64022C17.4048 8.32486 17.1902 8.04997 16.8842 7.97349L15.9354 7.73628C15.0736 7.52083 14.4007 6.84793 14.1852 5.98612L13.948 5.03729C13.8715 4.73135 13.5967 4.51672 13.2813 4.51672Z" fill="#D78EE3"/>
<path id="ai-icon_3" fill-rule="evenodd" clip-rule="evenodd" d="M8.26838 16.3065C8.07981 16.3065 7.9141 16.4315 7.86229 16.6128L7.40438 18.2155C7.20394 18.9171 6.65559 19.4654 5.95408 19.6658L4.35136 20.1238C4.17006 20.1756 4.04506 20.3413 4.04506 20.5298C4.04506 20.7184 4.17006 20.8841 4.35136 20.9359L5.95408 21.3938C6.65559 21.5943 7.20394 22.1426 7.40438 22.8441L7.86229 24.4469C7.9141 24.6282 8.07981 24.7532 8.26838 24.7532C8.45694 24.7532 8.62266 24.6282 8.67446 24.4469L9.13238 22.8441C9.33281 22.1426 9.88116 21.5943 10.5827 21.3938L12.1854 20.9359C12.3667 20.8841 12.4917 20.7184 12.4917 20.5298C12.4917 20.3413 12.3667 20.1756 12.1854 20.1238L10.5827 19.6658C9.88116 19.4654 9.33281 18.9171 9.13238 18.2155L8.67446 16.6128C8.62266 16.4315 8.45694 16.3065 8.26838 16.3065Z" fill="#FFB093"/>
</g>
</svg>

