<svg width="241" height="88" viewBox="0 0 241 88" fill="none" xmlns="http://www.w3.org/2000/svg">
<g clip-path="url(#clip0_547_26031)">
<g opacity="0.5" filter="url(#filter0_f_547_26031)">
<path d="M36.498 48.4353L81.0013 38.7656L74.3165 49.2893C90.9367 45.325 116.325 34.4405 204.453 42.2456" stroke="url(#paint0_linear_547_26031)" stroke-width="2.88295"/>
</g>
<g filter="url(#filter1_f_547_26031)">
<path d="M36.498 48.4353L81.0013 38.7656L74.3165 49.2893C90.9367 45.325 116.325 34.4405 204.453 42.2456" stroke="url(#paint1_linear_547_26031)" stroke-width="2.88295"/>
</g>
<path d="M36.5605 48.5919L78.438 39.7323C79.316 39.5465 79.9753 40.5219 79.4756 41.2674L75.7935 46.7602C75.2887 47.5132 75.9553 48.4885 76.8346 48.2681C93.4802 44.0965 120.31 35.1092 204.334 40.7275" stroke="url(#paint2_linear_547_26031)" stroke-width="2.88295" stroke-linecap="round" stroke-linejoin="round"/>
</g>
<defs>
<filter id="filter0_f_547_26031" x="0.155476" y="0.587116" width="240.462" height="86.9659" filterUnits="userSpaceOnUse" color-interpolation-filters="sRGB">
<feFlood flood-opacity="0" result="BackgroundImageFix"/>
<feBlend mode="normal" in="SourceGraphic" in2="BackgroundImageFix" result="shape"/>
<feGaussianBlur stdDeviation="18.0185" result="effect1_foregroundBlur_547_26031"/>
</filter>
<filter id="filter1_f_547_26031" x="0.155476" y="0.587116" width="240.462" height="86.9659" filterUnits="userSpaceOnUse" color-interpolation-filters="sRGB">
<feFlood flood-opacity="0" result="BackgroundImageFix"/>
<feBlend mode="normal" in="SourceGraphic" in2="BackgroundImageFix" result="shape"/>
<feGaussianBlur stdDeviation="18.0185" result="effect1_foregroundBlur_547_26031"/>
</filter>
<linearGradient id="paint0_linear_547_26031" x1="43.2162" y1="47.4652" x2="64.6626" y2="101.384" gradientUnits="userSpaceOnUse">
<stop stop-color="#B35DF6"/>
<stop offset="0.328125" stop-color="#F54470"/>
<stop offset="0.666667" stop-color="#FF4087"/>
<stop offset="1" stop-color="#FFC056"/>
</linearGradient>
<linearGradient id="paint1_linear_547_26031" x1="43.2162" y1="47.4652" x2="64.6626" y2="101.384" gradientUnits="userSpaceOnUse">
<stop stop-color="#B35DF6"/>
<stop offset="0.328125" stop-color="#F54470"/>
<stop offset="0.666667" stop-color="#FF4087"/>
<stop offset="1" stop-color="#FFC056"/>
</linearGradient>
<linearGradient id="paint2_linear_547_26031" x1="43.2715" y1="47.1396" x2="62.667" y2="98.7699" gradientUnits="userSpaceOnUse">
<stop stop-color="#B35DF6"/>
<stop offset="0.328125" stop-color="#F54470"/>
<stop offset="0.666667" stop-color="#FF4087"/>
<stop offset="1" stop-color="#FFC056"/>
</linearGradient>
<clipPath id="clip0_547_26031">
<rect width="241" height="88" fill="white"/>
</clipPath>
</defs>
</svg>
